<?xml version="1.0" encoding="utf-8"?>
<!-- Generator: Adobe Illustrator 21.1.0, SVG Export Plug-In . SVG Version: 6.00 Build 0)  -->
<svg version="1.1" id="Camada_1" xmlns="http://www.w3.org/2000/svg" xmlns:xlink="http://www.w3.org/1999/xlink" x="0px" y="0px"
	 viewBox="0 0 1101.1 445.5" style="enable-background:new 0 0 1101.1 445.5;" xml:space="preserve">
<style type="text/css">
	.st0{fill:#FFFFFF;}
	.st1{fill:#242424;}
</style>
<rect x="4" y="4" class="st0" width="1093" height="437.5"/>
<g>
	<g>
		<g>
			<path class="st1" d="M663.5,445.5H0V0h663.5V445.5z M8,437.5h647.5V8H8V437.5z"/>
		</g>
		<g>
			<path class="st1" d="M1101.1,445.5H655.5V0H1101L1101.1,445.5L1101.1,445.5z M663.5,437.5H1093V8H663.5V437.5z"/>
		</g>
		<g>
			<g>
				<g>
					<path class="st1" d="M132.6,374.3h-14.1l-18.4-21.1H88.7v21.1H76.8v-63.2c10,0,20,0.1,30,0.1c14.9,0.1,22.7,10,22.7,20.9
						c0,8.7-4,17.4-16,19.8l19.1,21.5V374.3z M88.7,322.3v20.2h18.1c7.6,0,10.8-5,10.8-10.1s-3.3-10.1-10.8-10.1H88.7z"/>
					<path class="st1" d="M184.6,374.3h-47.2c0-21,0-42.1,0-63.1h47.2v11.5h-35.4v14.5h34.2v11.1h-34.2v14.2h35.4V374.3z"/>
					<path class="st1" d="M235.3,311.1h11.9v63.2h-7.4v0.1l-33.2-42.6v42.5h-11.9v-63.1h9.6l30.9,39.1L235.3,311.1L235.3,311.1z"/>
					<path class="st1" d="M319.2,343.1c-0.2,16.3-10.2,32.6-32.4,32.6c-22.2,0-32.4-16-32.4-32.5s10.6-33.3,32.4-33.3
						C308.5,309.9,319.4,326.6,319.2,343.1z M266.1,343.4c0.3,10.4,5.9,21.4,20.7,21.4c14.9,0,20.5-11.2,20.6-21.5
						c0.2-10.6-5.8-22.5-20.6-22.5C272,320.7,265.8,332.7,266.1,343.4z"/>
					<path class="st1" d="M355.7,374.5h-12.3l-26.2-63.4h13.3l19,49.1l19.1-49.1h13.3L355.7,374.5z"/>
					<path class="st1" d="M417.8,362.4h-33l-5.4,11.9h-12.9l28.3-63.1h13l28.3,63.1h-13L417.8,362.4z M413,351.3l-11.7-26.9
						l-11.7,26.9H413z M416,291.9h-13l-6.7,12.3v0.5h9.7l9.9-12.3v-0.5H416z"/>
					<path class="st1" d="M461.7,374.5h-12.3l-26.2-63.4h13.3l19,49.1l19.1-49.1H488L461.7,374.5z"/>
					<path class="st1" d="M538.7,374.3h-47.2c0-21,0-42.1,0-63.1h47.2v11.5h-35.4v14.5h34.2v11.1h-34.2v14.2h35.4V374.3z"/>
					<path class="st1" d="M558,311.2v52.1h32.4v11h-44.3v-63.1H558z"/>
				</g>
				<g>
					<path class="st1" d="M108.3,112.3H77c0-13.9,0-27.9,0-41.8h31.3v7.6H84.8v9.6h22.6V95H84.8v9.4h23.5V112.3z"/>
					<path class="st1" d="M150.8,82l-13.6,18.2h-1.6L122.3,82v30.4h-7.9V70.6h9.1l13.1,18l13.1-18h9v41.8h-7.9L150.8,82L150.8,82z"
						/>
					<path class="st1" d="M185.8,100H174v12.3h-7.9V70.5c6.6,0,13.1-0.1,19.7-0.1C206.2,70.4,206.3,100,185.8,100z M174,92.8h11.8
						c10.1,0,10-14.8,0-14.8H174V92.8z"/>
					<path class="st1" d="M243.5,112.3h-9.4l-12.2-14h-7.6v14h-7.9V70.4c6.6,0,13.3,0.1,19.9,0.1c9.9,0.1,15,6.6,15,13.9
						c0,5.7-2.6,11.5-10.6,13.1l12.7,14.3v0.5H243.5z M214.4,77.8v13.4h12c5,0,7.2-3.3,7.2-6.7s-2.2-6.7-7.2-6.7
						C226.4,77.8,214.4,77.8,214.4,77.8z"/>
					<path class="st1" d="M277.9,112.3h-31.3c0-13.9,0-27.9,0-41.8h31.3v7.6h-23.5v9.6H277V95h-22.6v9.4h23.5V112.3z"/>
					<path class="st1" d="M311.1,80.6c-1.4-2.4-5.4-4.7-9.9-4.7c-5.9,0-8.7,2.4-8.7,5.6c0,3.6,4.3,4.7,9.3,5.3
						c8.7,1.1,16.8,3.3,16.8,13.3c0,9.3-8.2,13.3-17.6,13.3c-8.5,0-15.1-2.6-18.2-10.3l6.6-3.4c1.9,4.6,6.7,6.6,11.8,6.6
						c5,0,9.6-1.7,9.6-6.3c0-3.9-4.1-5.6-9.7-6.1c-8.5-1-16.4-3.3-16.4-12.7c0-8.6,8.5-12.1,16.2-12.2c6.5,0,13.3,1.9,16.4,8.3
						L311.1,80.6z"/>
					<path class="st1" d="M354.4,104.4h-21.9l-3.6,7.9h-8.5l18.7-41.8h8.6l18.7,41.8h-8.6L354.4,104.4z M343.5,79.3l-7.8,17.8h15.5
						L343.5,79.3z"/>
					<path class="st1" d="M113.5,144.5l-13.6,18.2h-1.6L85,144.5v30.4h-7.9V133h9.1l13.1,18l13.1-18h9v41.8h-7.9
						C113.5,174.8,113.5,144.5,113.5,144.5z"/>
					<path class="st1" d="M169.9,154.1c-0.1,10.8-6.7,21.6-21.4,21.6S127,165.1,127,154.2s7-22,21.5-22
						C162.9,132.1,170,143.2,169.9,154.1z M134.7,154.3c0.2,6.9,3.9,14.2,13.7,14.2c9.9,0,13.6-7.4,13.7-14.3
						c0.1-7-3.8-14.9-13.7-14.9C138.6,139.3,134.6,147.2,134.7,154.3z"/>
					<path class="st1" d="M196.5,174.9h-8.2l-17.4-42h8.8l12.6,32.5L205,133h8.8L196.5,174.9z"/>
					<path class="st1" d="M218.7,174.8V133h7.8v41.8H218.7z"/>
					<path class="st1" d="M270.8,153.5c0.2,10.6-6.3,21.3-20.9,21.3c-5.1,0-11.3,0-16.4,0V133c5.1,0,11.3,0,16.4,0
						C264.2,133,270.6,143.2,270.8,153.5z M241.3,167.2h8.6c9.5,0,13.3-6.9,13.1-13.7c-0.2-6.5-4-13-13.1-13h-8.6L241.3,167.2
						L241.3,167.2z"/>
					<path class="st1" d="M305.6,166.9h-21.9l-3.6,7.9h-8.5l18.7-41.8h8.6l18.7,41.8H309L305.6,166.9z M294.7,141.7l-7.8,17.8h15.5
						L294.7,141.7z"/>
					<path class="st1" d="M106.8,229.4H84.9l-3.6,7.9h-8.5l18.7-41.8h8.6l18.7,41.8h-8.6L106.8,229.4z M95.9,204.2L88.1,222h15.5
						L95.9,204.2z"/>
					<path class="st1" d="M165.1,237.2h-31.3c0-13.9,0-27.9,0-41.8h31.3v7.6h-23.5v9.6h22.6v7.3h-22.6v9.4h23.5V237.2z"/>
					<path class="st1" d="M199.9,195.4h7.9v41.9h-4.9v0.1l-22-28.2v28.2H173v-41.8h6.4l20.5,25.9V195.4z"/>
					<path class="st1" d="M246.2,237.2h-31.3c0-13.9,0-27.9,0-41.8h31.3v7.6h-23.5v9.6h22.6v7.3h-22.6v9.4h23.5V237.2z"/>
					<path class="st1" d="M289.3,237.2h-9.4l-12.2-14h-7.6v14h-7.9v-41.9c6.6,0,13.3,0.1,19.9,0.1c9.9,0.1,15,6.6,15,13.9
						c0,5.7-2.6,11.5-10.6,13.1l12.7,14.3v0.5H289.3z M260.2,202.8v13.4h12c5,0,7.2-3.3,7.2-6.7c0-3.3-2.2-6.7-7.2-6.7H260.2z"/>
					<path class="st1" d="M323.6,205.6c-2.8-2.7-7-4.2-10.6-4.2c-9,0-14.4,6.8-14.4,15.4c0,6.9,4,14,14.4,14c3.3,0,6.1-0.7,9.4-3.3
						v-7.4h-10.7v-7h17.9v17.6c-4.1,4.7-9.3,7.5-16.7,7.5c-15.7,0-22.1-10.3-22.1-21.3c0-11.8,7.3-22.6,22.1-22.6
						c5.6,0,11.2,2.1,15.5,6.4L323.6,205.6z"/>
					<path class="st1" d="M336.1,237.2v-41.8h7.8v41.8H336.1z"/>
					<path class="st1" d="M381,229.4h-21.9l-3.6,7.9H347l18.7-41.8h8.6l18.7,41.8h-8.6L381,229.4z M370.1,204.2l-7.8,17.8h15.5
						L370.1,204.2z"/>
				</g>
			</g>
			<g>
				<rect x="75.8" y="267.3" class="st1" width="318.6" height="11.1"/>
			</g>
		</g>
	</g>
	<g>
		<g>
			<g>
				<g>
					<g>
						<path class="st1" d="M907.1,233h17.4c2.4,0,4.3,1.9,4.3,4.3c0,2.4-1.9,4.3-4.3,4.3h-17.4c-2.4,0-4.3-1.9-4.3-4.3
							C902.9,234.9,904.8,233,907.1,233z"/>
					</g>
				</g>
				<g>
					<g>
						<path class="st1" d="M907.1,203.6h17.4c2.4,0,4.3,1.9,4.3,4.3s-1.9,4.3-4.3,4.3h-17.4c-2.4,0-4.3-1.9-4.3-4.3
							S904.8,203.6,907.1,203.6z"/>
					</g>
				</g>
				<g>
					<path class="st1" d="M898.5,254.5c0.8-0.8,1.3-1.9,1.3-3.1v-57.3c0-1.2-0.5-2.3-1.3-3.1s-1.9-1.2-3-1.2h-0.1l-26.3,0.7
						c-2.3,0.1-4.1,1.9-4.2,4.2c0,0-0.1,3-1.8,5.9c-2.1,3.6-5.7,5.5-10.8,5.8h-7.9c-2.4,0-4.3,1.9-4.3,4.3V235
						c0,2.4,1.9,4.3,4.3,4.3h7.9c5.2,0.3,8.7,2.2,10.8,5.8c1.7,2.9,1.8,5.8,1.8,5.8c0,2.3,1.9,4.1,4.2,4.2l26.3,0.7
						C896.6,255.8,897.7,255.3,898.5,254.5z M884.7,239.7v-33.3c0-1.4,1.2-2.6,2.6-2.6c1.4,0,2.6,1.2,2.6,2.6v33.3
						c0,1.4-1.2,2.6-2.6,2.6C885.8,242.3,884.7,241.1,884.7,239.7z"/>
				</g>
			</g>
		</g>
	</g>
	<g>
		<g>
			<path class="st1" d="M911.7,106l-0.3-2.2c-0.1-0.7-0.7-1.2-1.4-1.1l-29.4,4l-18.2-23.5c-0.2-0.3-0.5-0.4-0.8-0.5
				c-0.3,0-0.7,0-0.9,0.2l-1.7,1.3c-0.4,0.3-0.5,0.7-0.5,1.2c0,0.2,0.1,0.4,0.2,0.6l18.2,23.5L865.6,137c-0.1,0.2-0.1,0.4-0.1,0.6
				c0,0.1,0,0.2,0.1,0.3c0.1,0.3,0.4,0.5,0.7,0.7l2,0.8c0.6,0.3,1.4,0,1.6-0.7l11.3-27.5l29.4-4C911.3,107.3,911.8,106.6,911.7,106z
				 M880.3,110.2l-11.5,28.1l-2-0.8l2,0.8L880.3,110.2l30.1-4.1l-0.3-2.2l0,0l0.3,2.2L880.3,110.2z"/>
		</g>
		<g>
			<path class="st1" d="M879.6,151.6c-16,0-30.4-8.8-37.7-23c-5.2-10.1-6.2-21.6-2.7-32.3s10.9-19.6,21-24.8
				c6.1-3.1,12.6-4.7,19.4-4.7c16,0,30.4,8.8,37.7,23c5.2,10.1,6.2,21.6,2.7,32.3c-3.4,10.8-10.9,19.6-21,24.8
				C892.9,150,886.4,151.6,879.6,151.6z M879.5,67.9c-6.6,0-13,1.5-18.9,4.6c-9.8,5-17,13.6-20.4,24.1c-3.3,10.5-2.4,21.7,2.6,31.4
				c7.1,13.8,21.2,22.3,36.7,22.3c6.6,0,13-1.5,18.9-4.6c9.8-5,17-13.6,20.4-24.1c3.3-10.5,2.4-21.7-2.6-31.4
				C909.1,76.5,895.1,67.9,879.5,67.9z"/>
			<path class="st1" d="M879.6,153.1c-16.5,0-31.5-9.1-39.1-23.8c-5.4-10.4-6.4-22.3-2.8-33.5c3.6-11.2,11.3-20.3,21.7-25.7
				c6.3-3.2,13.1-4.9,20.1-4.9c16.5,0,31.5,9.1,39.1,23.8c5.4,10.4,6.4,22.3,2.8,33.5c-3.6,11.2-11.3,20.3-21.7,25.7
				C893.4,151.4,886.6,153.1,879.6,153.1z M879.5,69.4c-6.4,0-12.5,1.5-18.2,4.4c-9.4,4.9-16.4,13.1-19.6,23.2
				c-3.2,10.1-2.3,20.9,2.5,30.3c6.8,13.3,20.4,21.5,35.3,21.5c6.4,0,12.5-1.5,18.2-4.4c9.4-4.9,16.4-13.1,19.6-23.2
				c3.2-10.1,2.3-20.9-2.5-30.3C908,77.7,894.5,69.4,879.5,69.4z"/>
		</g>
	</g>
	<g>
		<g>
			<path class="st1" d="M879.6,379.5c-23.5,0-42.7-19.1-42.7-42.7s19.1-42.7,42.7-42.7c23.5,0,42.7,19.1,42.7,42.7
				S903.1,379.5,879.6,379.5z M879.6,295.4c-22.9,0-41.5,18.6-41.5,41.5s18.6,41.5,41.5,41.5s41.5-18.6,41.5-41.5
				S902.4,295.4,879.6,295.4z"/>
			<path class="st1" d="M879.6,381c-24.4,0-44.2-19.8-44.2-44.2c0-24.4,19.8-44.2,44.2-44.2s44.2,19.8,44.2,44.2
				C923.7,361.2,903.9,381,879.6,381z M879.6,296.9c-22,0-40,17.9-40,40s17.9,40,40,40s40-17.9,40-40S901.6,296.9,879.6,296.9z"/>
		</g>
		<g>
			<g>
				<path class="st1" d="M919.7,324.1c-2.2,0.3-4,2.3-4,4.6v12.1c0,1.2-1,2.2-2.2,2.2s-2.2-1-2.2-2.2v-5.2c0-2.6-2.1-4.7-4.7-4.7
					c-2.6,0-4.7,2.1-4.7,4.7v20.7c0,1.2-1,2.2-2.2,2.2s-2.2-1-2.2-2.2v-13.8c0-2.6-2.1-4.7-4.7-4.7l0,0l0,0c-2.6,0-4.7,2.1-4.7,4.7
					v7.8c0,1.2-1,2.2-2.2,2.2s-2.2-1-2.2-2.2v-28.5c0-2.6-2.1-4.7-4.7-4.7c-2.6,0-4.7,2.1-4.7,4.7v16.7c0,1.2-1,2.2-2.2,2.2
					s-2.2-1-2.2-2.2v-23.6c0-2.6-2.1-4.7-4.7-4.7c-2.6,0-4.7,2.1-4.7,4.7v30.5c0,1.2-1,2.2-2.2,2.2s-2.2-1-2.2-2.2v-9.8
					c0-2.6-2.1-4.7-4.7-4.7c-2.6,0-4.7,2.1-4.7,4.7v22.3c0,1.2-1,2.2-2.2,2.2c0.2,0.2,1.5,2.2,1.5,2.2c1.8-0.6,3.2-2.4,3.2-4.4
					v-22.3c0-1.2,1-2.2,2.2-2.2s2.2,1,2.2,2.2v9.8c0,2.6,2.1,4.7,4.7,4.7c2.6,0,4.7-2.1,4.7-4.7v-30.5c0-1.2,1-2.2,2.2-2.2
					s2.2,1,2.2,2.2v23.6c0,2.6,2.1,4.7,4.7,4.7c2.6,0,4.7-2.1,4.7-4.7v-16.7c0-1.2,1-2.2,2.2-2.2s2.2,1,2.2,2.2v28.5
					c0,2.6,2.1,4.7,4.7,4.7c2.6,0,4.7-2.1,4.7-4.7v-7.8c0-1.2,1-2.2,2.2-2.2s2.2,1,2.2,2.2v13.8c0,2.6,2.1,4.7,4.7,4.7
					c2.6,0,4.7-2.1,4.7-4.7v-20.7c0-1.2,1-2.2,2.2-2.2s2.2,1,2.2,2.2v5.2c0,2.6,2.1,4.7,4.7,4.7c2.6,0,4.7-2.1,4.7-4.7v-12.1
					c0-1.2,1-2.2,2.2-2.2C920.4,326.5,919.9,324,919.7,324.1z"/>
			</g>
		</g>
	</g>
	<g>
		<g>
			<path class="st1" d="M766,265.7c-23.5,0-42.6-19.1-42.6-42.6s19.1-42.6,42.6-42.6s42.6,19.1,42.6,42.6S789.5,265.7,766,265.7z
				 M766,181.8c-22.8,0-41.4,18.6-41.4,41.4s18.6,41.4,41.4,41.4c22.8,0,41.4-18.6,41.4-41.4S788.8,181.8,766,181.8z"/>
			<path class="st1" d="M766,267.2c-24.3,0-44.1-19.8-44.1-44.1S741.7,179,766,179s44.1,19.8,44.1,44.1
				C810.1,247.5,790.3,267.2,766,267.2z M766,183.3c-22,0-39.9,17.9-39.9,39.9s17.9,39.9,39.9,39.9s39.9-17.9,39.9-39.9
				S788,183.3,766,183.3z"/>
		</g>
		<g>
			<path class="st1" d="M774.7,226.5c-1,1.3-2.8,2.7-5.8,2.2c0,0-3.2-3.1-4.1-8.3c8.2-12.7-7.5-19.9-7.5-19.9
				c-5.9,15.4,2.8,19.2,6.1,20.1c0.4,1.7,1.7,5.8,4.3,9c0,0-2.6-3-6.4-3.5c-9.3-12-21.4,0.5-21.4,0.5s9.3,9.9,17.7,4.1
				c1.5-1,2.6-2.2,3.2-3.2c2.4,0.6,5.3,1.9,7.7,5c0,0,3.6,7.7,10.5,11.7c0,0,1.1,1.2,1.8-0.9c0,0-10.2-7-10.7-12.8
				c0,0,4-0.4,6.2-3.2c14.3-3,8.9-19,8.9-19C767,215.4,774.7,226.5,774.7,226.5z"/>
		</g>
	</g>
	<g>
		<g>
			<path class="st1" d="M994.1,265.4c-23.4,0-42.5-19.1-42.5-42.5s19.1-42.5,42.5-42.5s42.5,19.1,42.5,42.5
				S1017.5,265.4,994.1,265.4z M994.1,181.7c-22.8,0-41.3,18.5-41.3,41.3s18.5,41.3,41.3,41.3s41.3-18.5,41.3-41.3
				S1016.8,181.7,994.1,181.7z"/>
			<path class="st1" d="M994.1,266.9c-24.2,0-44-19.7-44-44s19.7-44,44-44s44,19.7,44,44S1018.3,266.9,994.1,266.9z M994.1,183.2
				c-21.9,0-39.8,17.8-39.8,39.8c0,21.9,17.8,39.8,39.8,39.8s39.8-17.8,39.8-39.8C1033.8,201,1016,183.2,994.1,183.2z"/>
		</g>
		<g>
			<g>
				
					<ellipse transform="matrix(0.6088 -0.7933 0.7933 0.6088 214.9415 861.8659)" class="st1" cx="981.4" cy="213" rx="0.9" ry="0.9"/>
			</g>
			<g>
				<ellipse transform="matrix(0.7934 -0.6087 0.6087 0.7934 74.2081 644.4766)" class="st1" cx="986.5" cy="212.9" rx="1" ry="1"/>
			</g>
			<g>
				<ellipse transform="matrix(0.5 -0.866 0.866 0.5 304.1778 961.6056)" class="st1" cx="984.9" cy="217.4" rx="1" ry="1"/>
			</g>
			<g>
				
					<ellipse transform="matrix(0.707 -0.7072 0.7072 0.707 137.8969 758.1914)" class="st1" cx="984" cy="212.7" rx="0.9" ry="0.9"/>
			</g>
			<g>
				
					<ellipse transform="matrix(0.5001 -0.866 0.866 0.5001 304.1198 957.9915)" class="st1" cx="981.8" cy="215.6" rx="0.9" ry="0.9"/>
			</g>
			<g>
				<ellipse transform="matrix(0.3826 -0.9239 0.9239 0.3826 405.1602 1042.3545)" class="st1" cx="982.5" cy="218" rx="1" ry="1"/>
			</g>
			<g>
				
					<ellipse transform="matrix(0.6088 -0.7933 0.7933 0.6088 214.2875 864.8596)" class="st1" cx="984.1" cy="215.1" rx="1" ry="1"/>
			</g>
			<g>
				<ellipse transform="matrix(0.866 -0.5 0.5 0.866 26.9845 521.7032)" class="st1" cx="987" cy="210.5" rx="0.9" ry="0.9"/>
			</g>
			<g>
				<ellipse transform="matrix(0.2589 -0.9659 0.9659 0.2589 509.5749 1130.0699)" class="st1" cx="991.2" cy="233" rx="1" ry="1"/>
			</g>
			<g>
				
					<ellipse transform="matrix(0.1306 -0.9914 0.9914 0.1306 629.5889 1188.1924)" class="st1" cx="992.3" cy="235.1" rx="1" ry="1"/>
			</g>
			<g>
				<ellipse transform="matrix(0.9659 -0.2589 0.2589 0.9659 -21.2162 263.896)" class="st1" cx="991.3" cy="212.5" rx="1" ry="1"/>
			</g>
			<g>
				
					<ellipse transform="matrix(0.9659 -0.2588 0.2588 0.9659 -20.3471 263.4333)" class="st1" cx="990.4" cy="209" rx="0.9" ry="0.9"/>
			</g>
			<g>
				<ellipse transform="matrix(0.9239 -0.3827 0.3827 0.9239 -5.5106 394.6868)" class="st1" cx="989.3" cy="211.2" rx="1" ry="1"/>
			</g>
			<g>
				
					<ellipse transform="matrix(0.9238 -0.3828 0.3828 0.9238 -4.3744 394.0113)" class="st1" cx="987.9" cy="208" rx="0.9" ry="0.9"/>
			</g>
			<g>
				<ellipse transform="matrix(0.866 -0.5001 0.5001 0.866 18.0311 523.0858)" class="st1" cx="984.9" cy="227.9" rx="1" ry="1"/>
			</g>
			<g>
				<ellipse transform="matrix(0.7933 -0.6088 0.6088 0.7933 63.2059 646.7845)" class="st1" cx="984.2" cy="230.3" rx="1" ry="1"/>
			</g>
			<g>
				<ellipse transform="matrix(0.9659 -0.2588 0.2588 0.9659 -24.8427 262.288)" class="st1" cx="983.8" cy="225.5" rx="1" ry="1"/>
			</g>
			<g>
				<ellipse transform="matrix(0.2588 -0.9659 0.9659 0.2588 516.6545 1113.3619)" class="st1" cx="983.8" cy="220" rx="1" ry="1"/>
			</g>
			<g>
				<ellipse transform="matrix(0.5 -0.866 0.866 0.5 290.0404 972.1523)" class="st1" cx="986.9" cy="234.9" rx="0.9" ry="0.9"/>
			</g>
			<g>
				
					<ellipse transform="matrix(0.2589 -0.9659 0.9659 0.2589 514.9766 1109.4269)" class="st1" cx="980.5" cy="219.1" rx="0.9" ry="0.9"/>
			</g>
			<g>
				
					<ellipse transform="matrix(0.7071 -0.7071 0.7071 0.7071 136.7671 760.5712)" class="st1" cx="986.5" cy="215.2" rx="1" ry="1"/>
			</g>
			<g>
				
					<ellipse transform="matrix(0.6088 -0.7933 0.7933 0.6088 201.3979 873.6027)" class="st1" cx="986.5" cy="232.6" rx="1" ry="1"/>
			</g>
			<g>
				<ellipse transform="matrix(0.5 -0.866 0.866 0.5 304.0191 954.6133)" class="st1" cx="978.7" cy="214" rx="0.8" ry="0.8"/>
			</g>
			<g>
				
					<ellipse transform="matrix(0.3827 -0.9239 0.9239 0.3827 404.4815 1038.4727)" class="st1" cx="979.3" cy="216.6" rx="0.9" ry="0.9"/>
			</g>
			<g>
				<circle class="st1" cx="979.9" cy="222.7" r="0.9"/>
			</g>
			<g>
				<ellipse transform="matrix(0.1306 -0.9914 0.9914 0.1306 634.199 1165.515)" class="st1" cx="981.7" cy="221.1" rx="1" ry="1"/>
			</g>
			<g>
				
					<ellipse transform="matrix(0.9914 -0.1305 0.1305 0.9914 -20.8755 130.0304)" class="st1" cx="981.7" cy="224.3" rx="1" ry="1"/>
			</g>
			<g>
				<circle class="st1" cx="983.4" cy="222.7" r="1"/>
			</g>
			<g>
				<ellipse transform="matrix(0.5 -0.866 0.866 0.5 304.067 989.7651)" class="st1" cx="1009.2" cy="231.5" rx="0.8" ry="0.8"/>
			</g>
			<g>
				
					<ellipse transform="matrix(0.2589 -0.9659 0.9659 0.2589 529.8322 1144.9387)" class="st1" cx="1011" cy="227.2" rx="0.8" ry="0.8"/>
			</g>
			<g>
				
					<ellipse transform="matrix(0.7071 -0.7072 0.7072 0.7071 126.5561 785.759)" class="st1" cx="1011.7" cy="240.1" rx="0.7" ry="0.7"/>
			</g>
			<g>
				<circle class="st1" cx="994" cy="243.9" r="0.8"/>
			</g>
			<g>
				<circle class="st1" cx="994" cy="247.4" r="0.7"/>
			</g>
			<g>
				<circle class="st1" cx="994" cy="240.3" r="0.8"/>
			</g>
			<g>
				
					<ellipse transform="matrix(0.3827 -0.9239 0.9239 0.3827 412.0939 1077.024)" class="st1" cx="1012" cy="230.1" rx="0.8" ry="0.8"/>
			</g>
			<g>
				
					<ellipse transform="matrix(0.9659 -0.2588 0.2588 0.9659 -28.5262 271.3042)" class="st1" cx="1016.2" cy="244" rx="0.7" ry="0.7"/>
			</g>
			<g>
				
					<ellipse transform="matrix(0.966 -0.2587 0.2587 0.966 -29.4242 270.2614)" class="st1" cx="1012.2" cy="246.9" rx="0.7" ry="0.7"/>
			</g>
			<g>
				
					<ellipse transform="matrix(0.6088 -0.7933 0.7933 0.6088 208.1597 895.6205)" class="st1" cx="1012.2" cy="236.7" rx="0.8" ry="0.8"/>
			</g>
			<g>
				
					<ellipse transform="matrix(0.9659 -0.2588 0.2588 0.9659 -26.8227 271.2393)" class="st1" cx="1016.8" cy="237.5" rx="0.7" ry="0.7"/>
			</g>
			<g>
				
					<ellipse transform="matrix(0.5001 -0.866 0.866 0.5001 304.0869 993.3199)" class="st1" cx="1012.4" cy="233.3" rx="0.8" ry="0.8"/>
			</g>
			<g>
				<ellipse transform="matrix(0.7071 -0.7071 0.7071 0.7071 126.1652 764.973)" class="st1" cx="986.5" cy="230.2" rx="1" ry="1"/>
			</g>
			<g>
				<ellipse transform="matrix(0.866 -0.5 0.5 0.866 14.0705 519.1076)" class="st1" cx="975.7" cy="233.3" rx="0.8" ry="0.8"/>
			</g>
			<g>
				
					<ellipse transform="matrix(0.4999 -0.8661 0.8661 0.4999 304.2 947.6281)" class="st1" cx="972.7" cy="210.4" rx="0.7" ry="0.7"/>
			</g>
			<g>
				
					<ellipse transform="matrix(0.1306 -0.9914 0.9914 0.1306 626.449 1154.0532)" class="st1" cx="971.2" cy="219.8" rx="0.8" ry="0.8"/>
			</g>
			<g>
				
					<ellipse transform="matrix(0.7071 -0.7071 0.7071 0.7071 140.1358 746.3155)" class="st1" cx="971" cy="204" rx="0.8" ry="0.8"/>
			</g>
			<g>
				
					<ellipse transform="matrix(0.2588 -0.9659 0.9659 0.2588 510.0734 1097.4044)" class="st1" cx="970.1" cy="216.3" rx="0.7" ry="0.7"/>
			</g>
			<g>
				
					<ellipse transform="matrix(0.9659 -0.2588 0.2588 0.9659 -25.8883 259.74)" class="st1" cx="973.6" cy="228.2" rx="0.8" ry="0.8"/>
			</g>
			<g>
				<circle class="st1" cx="972.8" cy="222.7" r="0.8"/>
			</g>
			<g>
				
					<ellipse transform="matrix(0.2589 -0.9659 0.9659 0.2589 511.6524 1101.3416)" class="st1" cx="973.5" cy="217.2" rx="0.8" ry="0.8"/>
			</g>
			<g>
				<ellipse transform="matrix(0.866 -0.5 0.5 0.866 24.4942 512.4015)" class="st1" cx="968.4" cy="210.5" rx="0.7" ry="0.7"/>
			</g>
			<g>
				
					<ellipse transform="matrix(0.1304 -0.9915 0.9915 0.1304 629.3738 1157.7788)" class="st1" cx="974.7" cy="220.1" rx="0.8" ry="0.8"/>
			</g>
			<g>
				
					<ellipse transform="matrix(0.9238 -0.3828 0.3828 0.9238 -13.7833 391.142)" class="st1" cx="976" cy="230.2" rx="0.8" ry="0.8"/>
			</g>
			<g>
				
					<ellipse transform="matrix(0.7933 -0.6088 0.6088 0.7933 57.5786 642.9834)" class="st1" cx="975.8" cy="236.7" rx="0.8" ry="0.8"/>
			</g>
			<g>
				<circle class="st1" cx="976.4" cy="222.7" r="0.8"/>
			</g>
			<g>
				<circle class="st1" cx="969.3" cy="222.7" r="0.7"/>
			</g>
			<g>
				
					<ellipse transform="matrix(0.9659 -0.2588 0.2588 0.9659 -26.2364 258.892)" class="st1" cx="970.2" cy="229.1" rx="0.7" ry="0.7"/>
			</g>
			<g>
				
					<ellipse transform="matrix(0.9914 -0.1305 0.1305 0.9914 -21.1506 128.6582)" class="st1" cx="971" cy="225.7" rx="0.8" ry="0.8"/>
			</g>
			<g>
				<circle class="st1" cx="970.6" cy="238.9" r="0.7"/>
			</g>
			<g>
				
					<ellipse transform="matrix(0.9914 -0.1305 0.1305 0.9914 -22.5006 128.4322)" class="st1" cx="968.6" cy="235.9" rx="0.8" ry="0.8"/>
			</g>
			<g>
				
					<ellipse transform="matrix(0.9659 -0.2588 0.2588 0.9659 -27.13 258.9062)" class="st1" cx="969.8" cy="232.5" rx="0.7" ry="0.7"/>
			</g>
			<g>
				<ellipse transform="matrix(0.866 -0.5 0.5 0.866 16.3465 513.9932)" class="st1" cx="967.3" cy="226.5" rx="0.7" ry="0.7"/>
			</g>
			<g>
				
					<ellipse transform="matrix(0.9239 -0.3827 0.3827 0.9239 -14.4312 387.668)" class="st1" cx="967.2" cy="230.1" rx="0.8" ry="0.8"/>
			</g>
			<g>
				
					<ellipse transform="matrix(0.1304 -0.9915 0.9915 0.1304 622.259 1193.3467)" class="st1" cx="991.4" cy="241.9" rx="0.8" ry="0.8"/>
			</g>
			<g>
				
					<ellipse transform="matrix(0.1306 -0.9914 0.9914 0.1306 625.7813 1190.8578)" class="st1" cx="991.9" cy="238.6" rx="0.9" ry="0.9"/>
			</g>
			<g>
				
					<ellipse transform="matrix(0.2588 -0.9659 0.9659 0.2588 505.7169 1131.9559)" class="st1" cx="990.4" cy="236.5" rx="0.9" ry="0.9"/>
			</g>
			<g>
				
					<ellipse transform="matrix(0.3827 -0.9239 0.9239 0.3827 390.5356 1059.2137)" class="st1" cx="987.9" cy="237.4" rx="0.9" ry="0.9"/>
			</g>
			<g>
				<ellipse transform="matrix(0.866 -0.5 0.5 0.866 25.7121 522.9442)" class="st1" cx="988.7" cy="213.5" rx="1" ry="1"/>
			</g>
			<g>
				
					<ellipse transform="matrix(0.3827 -0.9239 0.9239 0.3827 394.4041 1058.619)" class="st1" cx="989.4" cy="234.2" rx="1" ry="1"/>
			</g>
			<g>
				
					<ellipse transform="matrix(0.2588 -0.9659 0.9659 0.2588 501.6171 1133.4789)" class="st1" cx="989.4" cy="239.9" rx="0.8" ry="0.8"/>
			</g>
			<g>
				
					<ellipse transform="matrix(0.2589 -0.9659 0.9659 0.2589 497.7365 1135.071)" class="st1" cx="988.6" cy="243.2" rx="0.8" ry="0.8"/>
			</g>
			<g>
				
					<ellipse transform="matrix(0.1306 -0.9914 0.9914 0.1306 618.0753 1196.0917)" class="st1" cx="991" cy="245.6" rx="0.8" ry="0.8"/>
			</g>
			<g>
				<ellipse transform="matrix(0.5001 -0.866 0.866 0.5001 293.5285 972.1782)" class="st1" cx="988.8" cy="231.9" rx="1" ry="1"/>
			</g>
			<g>
				
					<ellipse transform="matrix(0.3828 -0.9238 0.9238 0.3828 403.4764 1034.5659)" class="st1" cx="976" cy="215.3" rx="0.8" ry="0.8"/>
			</g>
			<g>
				<ellipse transform="matrix(0.5 -0.866 0.866 0.5 304.151 950.9733)" class="st1" cx="975.7" cy="212.1" rx="0.8" ry="0.8"/>
			</g>
			<g>
				
					<ellipse transform="matrix(0.9239 -0.3827 0.3827 0.9239 -14.5368 389.9185)" class="st1" cx="972.8" cy="231.5" rx="0.8" ry="0.8"/>
			</g>
			<g>
				
					<ellipse transform="matrix(0.6087 -0.7934 0.7934 0.6087 220.1501 852.4764)" class="st1" cx="974.3" cy="203" rx="0.8" ry="0.8"/>
			</g>
			<g>
				
					<ellipse transform="matrix(0.7071 -0.7071 0.7071 0.7071 139.007 748.8759)" class="st1" cx="973.5" cy="206.6" rx="0.7" ry="0.7"/>
			</g>
			<g>
				
					<ellipse transform="matrix(0.7071 -0.7071 0.7071 0.7071 140.9161 750.5601)" class="st1" cx="976.5" cy="205.2" rx="0.7" ry="0.7"/>
			</g>
			<g>
				
					<ellipse transform="matrix(0.3827 -0.9239 0.9239 0.3827 402.9063 1030.6757)" class="st1" cx="972.7" cy="213.8" rx="0.8" ry="0.8"/>
			</g>
			<g>
				
					<ellipse transform="matrix(0.2587 -0.966 0.966 0.2587 494.0897 1136.8595)" class="st1" cx="987.7" cy="246.5" rx="0.7" ry="0.7"/>
			</g>
			<g>
				
					<ellipse transform="matrix(0.3827 -0.9239 0.9239 0.3827 386.7741 1059.9629)" class="st1" cx="986.6" cy="240.6" rx="0.8" ry="0.8"/>
			</g>
			<g>
				
					<ellipse transform="matrix(0.7934 -0.6087 0.6087 0.7934 61.3063 645.3921)" class="st1" cx="981.4" cy="232.4" rx="0.9" ry="0.9"/>
			</g>
			<g>
				
					<ellipse transform="matrix(0.9659 -0.2588 0.2588 0.9659 -25.1653 261.4345)" class="st1" cx="980.4" cy="226.3" rx="0.9" ry="0.9"/>
			</g>
			<g>
				
					<ellipse transform="matrix(0.2588 -0.9659 0.9659 0.2588 513.3159 1105.2921)" class="st1" cx="976.9" cy="218.2" rx="0.8" ry="0.8"/>
			</g>
			<g>
				
					<ellipse transform="matrix(0.1306 -0.9914 0.9914 0.1306 631.6639 1161.6581)" class="st1" cx="978.2" cy="220.7" rx="0.9" ry="0.9"/>
			</g>
			<g>
				<circle class="st1" cx="1008.1" cy="222.7" r="0.9"/>
			</g>
			<g>
				<ellipse transform="matrix(0.5 -0.866 0.866 0.5 318.2341 972.2129)" class="st1" cx="1001.1" cy="210.5" rx="0.9" ry="0.9"/>
			</g>
			<g>
				<circle class="st1" cx="994" cy="233.3" r="1"/>
			</g>
			<g>
				
					<ellipse transform="matrix(0.3827 -0.9239 0.9239 0.3827 425.264 1052.4117)" class="st1" cx="1000.2" cy="208" rx="0.9" ry="0.9"/>
			</g>
			<g>
				
					<ellipse transform="matrix(0.3827 -0.9239 0.9239 0.3827 421.437 1053.1227)" class="st1" cx="998.8" cy="211.2" rx="1" ry="1"/>
			</g>
			<g>
				
					<ellipse transform="matrix(0.2588 -0.9659 0.9659 0.2588 533.5932 1120.3027)" class="st1" cx="996.8" cy="212.5" rx="1" ry="1"/>
			</g>
			<g>
				<circle class="st1" cx="994" cy="212.1" r="1"/>
			</g>
			<g>
				<ellipse transform="matrix(0.9914 -0.1306 0.1306 0.9914 -22.1635 132.0386)" class="st1" cx="995.6" cy="235" rx="1" ry="1"/>
			</g>
			<g>
				
					<ellipse transform="matrix(0.2589 -0.9659 0.9659 0.2589 537.47 1118.6824)" class="st1" cx="997.7" cy="209.1" rx="0.9" ry="0.9"/>
			</g>
			<g>
				<ellipse transform="matrix(0.9239 -0.3827 0.3827 0.9239 -6.8831 401.4073)" class="st1" cx="1005.5" cy="218" rx="1" ry="1"/>
			</g>
			<g>
				
					<ellipse transform="matrix(0.7071 -0.7071 0.7071 0.7071 143.6836 772.2177)" class="st1" cx="1004" cy="212.7" rx="0.9" ry="0.9"/>
			</g>
			<g>
				
					<ellipse transform="matrix(0.6088 -0.7933 0.7933 0.6088 222.9024 877.8796)" class="st1" cx="1001.6" cy="212.9" rx="1" ry="1"/>
			</g>
			<g>
				<ellipse transform="matrix(0.866 -0.5 0.5 0.866 27.0105 531.9771)" class="st1" cx="1006.2" cy="215.6" rx="0.9" ry="0.9"/>
			</g>
			<g>
				
					<ellipse transform="matrix(0.6088 -0.7933 0.7933 0.6088 225.8972 878.4437)" class="st1" cx="1003.7" cy="210.2" rx="0.9" ry="0.9"/>
			</g>
			<g>
				<ellipse transform="matrix(0.5 -0.866 0.866 0.5 321.7417 972.0778)" class="st1" cx="1002.7" cy="207.4" rx="0.8" ry="0.8"/>
			</g>
			<g>
				
					<ellipse transform="matrix(0.9659 -0.2588 0.2588 0.9659 -31.0221 265.7368)" class="st1" cx="993.8" cy="250.7" rx="0.7" ry="0.7"/>
			</g>
			<g>
				<circle class="st1" cx="994" cy="236.8" r="0.9"/>
			</g>
			<g>
				
					<ellipse transform="matrix(0.7934 -0.6087 0.6087 0.7934 78.328 656.7838)" class="st1" cx="1006.7" cy="213" rx="0.9" ry="0.9"/>
			</g>
			<g>
				<circle class="st1" cx="1015.2" cy="222.7" r="0.8"/>
			</g>
			<g>
				
					<ellipse transform="matrix(0.7934 -0.6088 0.6088 0.7934 80.3348 658.1807)" class="st1" cx="1009.6" cy="210.8" rx="0.8" ry="0.8"/>
			</g>
			<g>
				
					<ellipse transform="matrix(0.8661 -0.4999 0.4999 0.8661 28.2289 533.1951)" class="st1" cx="1009.3" cy="213.9" rx="0.8" ry="0.8"/>
			</g>
			<g>
				
					<ellipse transform="matrix(0.9659 -0.2589 0.2589 0.9659 -21.9916 269.2072)" class="st1" cx="1011.1" cy="218.1" rx="0.8" ry="0.8"/>
			</g>
			<g>
				<circle class="st1" cx="1011.7" cy="222.7" r="0.8"/>
			</g>
			<g>
				
					<ellipse transform="matrix(0.9659 -0.2588 0.2588 0.9659 -22.3713 268.2573)" class="st1" cx="1007.7" cy="219.1" rx="0.9" ry="0.9"/>
			</g>
			<g>
				
					<ellipse transform="matrix(0.9239 -0.3827 0.3827 0.9239 -6.1067 402.5153)" class="st1" cx="1008.7" cy="216.6" rx="0.9" ry="0.9"/>
			</g>
			<g>
				
					<ellipse transform="matrix(0.3827 -0.9239 0.9239 0.3827 412.9752 1080.7957)" class="st1" cx="1015.3" cy="231.4" rx="0.8" ry="0.8"/>
			</g>
			<g>
				
					<ellipse transform="matrix(0.5001 -0.866 0.866 0.5001 304.1642 996.7743)" class="st1" cx="1015.4" cy="234.9" rx="0.7" ry="0.7"/>
			</g>
			<g>
				
					<ellipse transform="matrix(0.2588 -0.9659 0.9659 0.2588 533.1434 1152.9702)" class="st1" cx="1017.9" cy="229.1" rx="0.7" ry="0.7"/>
			</g>
			<g>
				
					<ellipse transform="matrix(0.1306 -0.9914 0.9914 0.1306 657.5956 1200.5651)" class="st1" cx="1013.3" cy="225.3" rx="0.8" ry="0.8"/>
			</g>
			<g>
				
					<ellipse transform="matrix(0.2587 -0.966 0.966 0.2587 531.7744 1149.012)" class="st1" cx="1014.5" cy="228" rx="0.8" ry="0.8"/>
			</g>
			<g>
				
					<ellipse transform="matrix(0.7071 -0.7071 0.7071 0.7071 146.1779 773.2499)" class="st1" cx="1006.5" cy="210.2" rx="0.8" ry="0.8"/>
			</g>
			<g>
				
					<ellipse transform="matrix(0.7072 -0.707 0.707 0.7072 127.3516 782.9604)" class="st1" cx="1009" cy="237.7" rx="0.8" ry="0.8"/>
			</g>
			<g>
				
					<ellipse transform="matrix(0.7933 -0.6088 0.6088 0.7933 62.9387 661.5901)" class="st1" cx="1005.9" cy="238.1" rx="0.8" ry="0.8"/>
			</g>
			<g>
				<ellipse transform="matrix(0.5 -0.866 0.866 0.5 304.1007 986.3077)" class="st1" cx="1006.2" cy="229.8" rx="0.9" ry="0.9"/>
			</g>
			<g>
				<ellipse transform="matrix(0.866 -0.5 0.5 0.866 14.0715 534.5547)" class="st1" cx="1004.5" cy="241" rx="0.8" ry="0.8"/>
			</g>
			<g>
				
					<ellipse transform="matrix(0.7071 -0.7071 0.7071 0.7071 128.4832 780.5864)" class="st1" cx="1006.5" cy="235.2" rx="0.8" ry="0.8"/>
			</g>
			<g>
				
					<ellipse transform="matrix(0.1305 -0.9914 0.9914 0.1305 652.4163 1192.8169)" class="st1" cx="1006.3" cy="224.4" rx="1" ry="1"/>
			</g>
			<g>
				
					<ellipse transform="matrix(0.6087 -0.7934 0.7934 0.6087 209.4973 889.6249)" class="st1" cx="1006.7" cy="232.4" rx="0.9" ry="0.9"/>
			</g>
			<g>
				<ellipse transform="matrix(0.866 -0.5 0.5 0.866 12.7827 535.8997)" class="st1" cx="1006.4" cy="244.1" rx="0.7" ry="0.7"/>
			</g>
			<g>
				
					<ellipse transform="matrix(0.9914 -0.1305 0.1305 0.9914 -23.0553 132.1391)" class="st1" cx="996.7" cy="242" rx="0.8" ry="0.8"/>
			</g>
			<g>
				
					<ellipse transform="matrix(0.9914 -0.1305 0.1305 0.9914 -23.5138 132.1945)" class="st1" cx="996.8" cy="245.5" rx="0.8" ry="0.8"/>
			</g>
			<g>
				
					<ellipse transform="matrix(0.9239 -0.3826 0.3826 0.9239 -17.0599 402.2314)" class="st1" cx="1002.8" cy="244" rx="0.8" ry="0.8"/>
			</g>
			<g>
				
					<ellipse transform="matrix(0.9239 -0.3827 0.3827 0.9239 -15.8775 401.5957)" class="st1" cx="1001.5" cy="240.7" rx="0.8" ry="0.8"/>
			</g>
			<g>
				
					<ellipse transform="matrix(0.3826 -0.9239 0.9239 0.3826 410.5685 1069.506)" class="st1" cx="1005.5" cy="227.6" rx="1" ry="1"/>
			</g>
			<g>
				
					<ellipse transform="matrix(0.6087 -0.7934 0.7934 0.6087 210.1833 886.5434)" class="st1" cx="1003.9" cy="230.2" rx="1" ry="1"/>
			</g>
			<g>
				
					<ellipse transform="matrix(0.7071 -0.7071 0.7071 0.7071 129.5368 778.0875)" class="st1" cx="1004" cy="232.7" rx="0.9" ry="0.9"/>
			</g>
			<g>
				
					<ellipse transform="matrix(0.2589 -0.9659 0.9659 0.2589 528.1572 1141.0533)" class="st1" cx="1007.7" cy="226.3" rx="0.9" ry="0.9"/>
			</g>
			<g>
				
					<ellipse transform="matrix(0.6088 -0.7933 0.7933 0.6088 208.7551 892.6287)" class="st1" cx="1009.5" cy="234.6" rx="0.8" ry="0.8"/>
			</g>
			<g>
				
					<ellipse transform="matrix(0.1306 -0.9914 0.9914 0.1306 654.9627 1196.7583)" class="st1" cx="1009.9" cy="224.9" rx="0.9" ry="0.9"/>
			</g>
			<g>
				
					<ellipse transform="matrix(0.3827 -0.9239 0.9239 0.3827 411.3615 1073.2958)" class="st1" cx="1008.8" cy="228.8" rx="0.9" ry="0.9"/>
			</g>
			<g>
				
					<ellipse transform="matrix(0.4999 -0.8661 0.8661 0.4999 304.3153 982.7975)" class="st1" cx="1003.2" cy="227.9" rx="1" ry="1"/>
			</g>
			<g>
				
					<ellipse transform="matrix(0.2588 -0.9659 0.9659 0.2588 526.5054 1137.147)" class="st1" cx="1004.2" cy="225.5" rx="1" ry="1"/>
			</g>
			<g>
				
					<ellipse transform="matrix(0.7071 -0.7071 0.7071 0.7071 130.4865 775.642)" class="st1" cx="1001.5" cy="230.3" rx="1" ry="1"/>
			</g>
			<g>
				
					<ellipse transform="matrix(0.7933 -0.6088 0.6088 0.7933 65.4007 657.8547)" class="st1" cx="1001.6" cy="232.6" rx="1" ry="1"/>
			</g>
			<g>
				<ellipse transform="matrix(0.866 -0.5 0.5 0.866 15.3458 533.2794)" class="st1" cx="1002.8" cy="238" rx="0.8" ry="0.8"/>
			</g>
			<g>
				
					<ellipse transform="matrix(0.7934 -0.6088 0.6088 0.7934 64.1687 659.7531)" class="st1" cx="1003.9" cy="235.4" rx="0.9" ry="0.9"/>
			</g>
			<g>
				<ellipse transform="matrix(0.7934 -0.6087 0.6087 0.7934 76.474 655.5005)" class="st1" cx="1003.9" cy="215.1" rx="1" ry="1"/>
			</g>
			<g>
				<ellipse transform="matrix(0.9659 -0.2588 0.2588 0.9659 -22.7227 267.3841)" class="st1" cx="1004.2" cy="220" rx="1" ry="1"/>
			</g>
			<g>
				<circle class="st1" cx="1004.6" cy="222.7" r="1"/>
			</g>
			<g>
				<ellipse transform="matrix(0.9914 -0.1305 0.1305 0.9914 -20.245 133.226)" class="st1" cx="1006.4" cy="221.1" rx="1" ry="1"/>
			</g>
			<g>
				<ellipse transform="matrix(0.866 -0.5 0.5 0.866 16.678 532.0153)" class="st1" cx="1001.1" cy="234.9" rx="0.9" ry="0.9"/>
			</g>
			<g>
				
					<ellipse transform="matrix(0.7071 -0.7071 0.7071 0.7071 141.1696 771.1814)" class="st1" cx="1001.5" cy="215.2" rx="1" ry="1"/>
			</g>
			<g>
				
					<ellipse transform="matrix(0.8661 -0.4999 0.4999 0.8661 25.6636 530.6105)" class="st1" cx="1003.2" cy="217.4" rx="1" ry="1"/>
			</g>
			<g>
				<ellipse transform="matrix(0.5 -0.866 0.866 0.5 314.6214 972.0923)" class="st1" cx="999.2" cy="213.6" rx="1" ry="1"/>
			</g>
			<g>
				
					<ellipse transform="matrix(0.7933 -0.6088 0.6088 0.7933 61.5968 663.4806)" class="st1" cx="1008" cy="241" rx="0.8" ry="0.8"/>
			</g>
			<g>
				
					<ellipse transform="matrix(0.9914 -0.1305 0.1305 0.9914 -20.1497 133.6788)" class="st1" cx="1009.9" cy="220.6" rx="0.9" ry="0.9"/>
			</g>
			<g>
				
					<ellipse transform="matrix(0.9239 -0.3827 0.3827 0.9239 -14.718 400.8093)" class="st1" cx="1000.1" cy="237.4" rx="0.9" ry="0.9"/>
			</g>
			<g>
				
					<ellipse transform="matrix(0.9659 -0.2589 0.2589 0.9659 -29.7347 267.4149)" class="st1" cx="1000.4" cy="246.6" rx="0.7" ry="0.7"/>
			</g>
			<g>
				
					<ellipse transform="matrix(0.9659 -0.2588 0.2588 0.9659 -28.0389 266.6062)" class="st1" cx="998.6" cy="239.8" rx="0.8" ry="0.8"/>
			</g>
			<g>
				
					<ellipse transform="matrix(0.9659 -0.2589 0.2589 0.9659 -28.8863 267.0622)" class="st1" cx="999.5" cy="243.2" rx="0.8" ry="0.8"/>
			</g>
			<g>
				<ellipse transform="matrix(0.866 -0.5 0.5 0.866 17.9279 530.7152)" class="st1" cx="999.3" cy="231.9" rx="1" ry="1"/>
			</g>
			<g>
				
					<ellipse transform="matrix(0.9659 -0.2589 0.2589 0.9659 -26.3102 266.0117)" class="st1" cx="996.8" cy="232.9" rx="1" ry="1"/>
			</g>
			<g>
				
					<ellipse transform="matrix(0.9659 -0.2589 0.2589 0.9659 -27.1866 266.3668)" class="st1" cx="997.7" cy="236.4" rx="0.9" ry="0.9"/>
			</g>
			<g>
				
					<ellipse transform="matrix(0.9239 -0.3827 0.3827 0.9239 -13.5956 400.0693)" class="st1" cx="998.8" cy="234.2" rx="1" ry="1"/>
			</g>
			<g>
				
					<ellipse transform="matrix(0.9914 -0.1306 0.1306 0.9914 -22.6163 132.1335)" class="st1" cx="996.1" cy="238.5" rx="0.9" ry="0.9"/>
			</g>
			<g>
				
					<ellipse transform="matrix(0.1306 -0.9914 0.9914 0.1306 660.1092 1204.4944)" class="st1" cx="1016.8" cy="225.9" rx="0.8" ry="0.8"/>
			</g>
			<g>
				<circle class="st1" cx="994" cy="208.6" r="0.9"/>
			</g>
			<g>
				<ellipse transform="matrix(0.866 -0.5 0.5 0.866 29.5465 519.0818)" class="st1" cx="983.4" cy="204.4" rx="0.8" ry="0.8"/>
			</g>
			<g>
				<circle class="st1" cx="994" cy="201.5" r="0.8"/>
			</g>
			<g>
				<circle class="st1" cx="994" cy="205.1" r="0.8"/>
			</g>
			<g>
				
					<ellipse transform="matrix(0.9239 -0.3827 0.3827 0.9239 -5.3587 403.6834)" class="st1" cx="1012" cy="215.3" rx="0.8" ry="0.8"/>
			</g>
			<g>
				
					<ellipse transform="matrix(0.7934 -0.6087 0.6087 0.7934 82.1037 659.3032)" class="st1" cx="1012.3" cy="208.7" rx="0.8" ry="0.8"/>
			</g>
			<g>
				
					<ellipse transform="matrix(0.9659 -0.2588 0.2588 0.9659 -24.6282 272.109)" class="st1" cx="1021.2" cy="229.6" rx="0.7" ry="0.7"/>
			</g>
			<g>
				
					<ellipse transform="matrix(0.8661 -0.4999 0.4999 0.8661 29.5275 534.4438)" class="st1" cx="1012.3" cy="212.1" rx="0.8" ry="0.8"/>
			</g>
			<g>
				
					<ellipse transform="matrix(0.9659 -0.2588 0.2588 0.9659 -20.2394 271.639)" class="st1" cx="1021.6" cy="212.7" rx="0.7" ry="0.7"/>
			</g>
			<g>
				
					<ellipse transform="matrix(0.9659 -0.2588 0.2588 0.9659 -27.4534 258.0502)" class="st1" cx="966.4" cy="233.3" rx="0.8" ry="0.8"/>
			</g>
			<g>
				
					<ellipse transform="matrix(0.2589 -0.9659 0.9659 0.2589 505.3394 1093.3551)" class="st1" cx="965.2" cy="217.4" rx="0.7" ry="0.7"/>
			</g>
			<g>
				
					<ellipse transform="matrix(0.707 -0.7072 0.7072 0.707 126.9709 747.9921)" class="st1" cx="966.2" cy="220.8" rx="0.7" ry="0.7"/>
			</g>
			<g>
				
					<ellipse transform="matrix(0.7933 -0.6088 0.6088 0.7933 62.3596 633.4982)" class="st1" cx="964.2" cy="224.9" rx="0.8" ry="0.8"/>
			</g>
			<g>
				<circle class="st1" cx="994" cy="198" r="0.7"/>
			</g>
			<g>
				<ellipse transform="matrix(0.5 -0.866 0.866 0.5 282.9161 972.22)" class="st1" cx="983.4" cy="241.1" rx="0.8" ry="0.8"/>
			</g>
			<g>
				<ellipse transform="matrix(0.5 -0.866 0.866 0.5 279.4477 972.1884)" class="st1" cx="981.7" cy="244.1" rx="0.7" ry="0.7"/>
			</g>
			<g>
				
					<ellipse transform="matrix(0.6088 -0.7933 0.7933 0.6088 195.2205 872.385)" class="st1" cx="982.2" cy="238.2" rx="0.8" ry="0.8"/>
			</g>
			<g>
				
					<ellipse transform="matrix(0.7071 -0.7071 0.7071 0.7071 118.6605 761.8722)" class="st1" cx="979" cy="237.7" rx="0.8" ry="0.8"/>
			</g>
			<g>
				
					<ellipse transform="matrix(0.7934 -0.6087 0.6087 0.7934 59.3824 644.1547)" class="st1" cx="978.6" cy="234.6" rx="0.8" ry="0.8"/>
			</g>
			<g>
				
					<ellipse transform="matrix(0.9914 -0.1305 0.1305 0.9914 -20.9707 129.5778)" class="st1" cx="978.2" cy="224.8" rx="0.9" ry="0.9"/>
			</g>
			<g>
				
					<ellipse transform="matrix(0.9659 -0.2588 0.2588 0.9659 -25.5389 260.5921)" class="st1" cx="977" cy="227.3" rx="0.8" ry="0.8"/>
			</g>
			<g>
				
					<ellipse transform="matrix(0.7072 -0.7071 0.7071 0.7072 116.2074 760.8751)" class="st1" cx="976.7" cy="240.1" rx="0.7" ry="0.7"/>
			</g>
			<g>
				
					<ellipse transform="matrix(0.8661 -0.4999 0.4999 0.8661 15.3346 520.2495)" class="st1" cx="978.7" cy="231.5" rx="0.8" ry="0.8"/>
			</g>
			<g>
				
					<ellipse transform="matrix(0.8661 -0.4999 0.4999 0.8661 12.7697 517.6653)" class="st1" cx="972.6" cy="235" rx="0.7" ry="0.7"/>
			</g>
			<g>
				
					<ellipse transform="matrix(0.9238 -0.3828 0.3828 0.9238 -12.9869 392.3074)" class="st1" cx="979.3" cy="228.8" rx="0.9" ry="0.9"/>
			</g>
			<g>
				
					<ellipse transform="matrix(0.9914 -0.1306 0.1306 0.9914 -21.0758 129.2257)" class="st1" cx="974.7" cy="225.3" rx="0.8" ry="0.8"/>
			</g>
			<g>
				
					<ellipse transform="matrix(0.2588 -0.9659 0.9659 0.2588 487.4693 1124.8173)" class="st1" cx="976.7" cy="244.8" rx="0.7" ry="0.7"/>
			</g>
			<g>
				
					<ellipse transform="matrix(0.6088 -0.7934 0.7934 0.6088 192.3331 871.8859)" class="st1" cx="980.2" cy="240.9" rx="0.8" ry="0.8"/>
			</g>
			<g>
				
					<ellipse transform="matrix(0.7933 -0.6088 0.6088 0.7933 74.2193 633.4135)" class="st1" cx="970" cy="207.4" rx="0.8" ry="0.8"/>
			</g>
			<g>
				
					<ellipse transform="matrix(0.6087 -0.7934 0.7934 0.6087 216.2473 855.7578)" class="st1" cx="975.7" cy="208.6" rx="0.8" ry="0.8"/>
			</g>
			<g>
				
					<ellipse transform="matrix(0.7071 -0.7072 0.7072 0.7071 121.2869 763.0645)" class="st1" cx="981.7" cy="235.1" rx="0.8" ry="0.8"/>
			</g>
			<g>
				
					<ellipse transform="matrix(0.9239 -0.3827 0.3827 0.9239 -12.2886 393.3698)" class="st1" cx="982.6" cy="227.6" rx="1" ry="1"/>
			</g>
			<g>
				
					<ellipse transform="matrix(0.5001 -0.866 0.866 0.5001 314.2787 947.0637)" class="st1" cx="977.4" cy="201.3" rx="0.7" ry="0.7"/>
			</g>
			<g>
				<ellipse transform="matrix(0.866 -0.5 0.5 0.866 16.6401 521.696)" class="st1" cx="981.8" cy="229.8" rx="0.9" ry="0.9"/>
			</g>
			<g>
				<ellipse transform="matrix(0.5 -0.866 0.866 0.5 286.4548 972.1782)" class="st1" cx="985.2" cy="238" rx="0.8" ry="0.8"/>
			</g>
			<g>
				
					<ellipse transform="matrix(0.6088 -0.7933 0.7933 0.6088 198.3186 872.9655)" class="st1" cx="984.3" cy="235.4" rx="0.9" ry="0.9"/>
			</g>
			<g>
				
					<ellipse transform="matrix(0.3827 -0.9239 0.9239 0.3827 382.8742 1060.9)" class="st1" cx="985.3" cy="243.9" rx="0.8" ry="0.8"/>
			</g>
			<g>
				
					<ellipse transform="matrix(0.7071 -0.7072 0.7072 0.7071 123.7914 764.0988)" class="st1" cx="984.2" cy="232.6" rx="0.9" ry="0.9"/>
			</g>
			<g>
				
					<ellipse transform="matrix(0.6087 -0.7934 0.7934 0.6087 215.6655 859.0017)" class="st1" cx="978.7" cy="210.9" rx="0.8" ry="0.8"/>
			</g>
			<g>
				
					<ellipse transform="matrix(0.1306 -0.9914 0.9914 0.1306 660.7719 1167.4497)" class="st1" cx="996" cy="207" rx="0.9" ry="0.9"/>
			</g>
			<g>
				
					<ellipse transform="matrix(0.1305 -0.9914 0.9914 0.1305 657.127 1170.1036)" class="st1" cx="995.7" cy="210.4" rx="1" ry="1"/>
			</g>
			<g>
				
					<ellipse transform="matrix(0.1306 -0.9914 0.9914 0.1306 664.7298 1164.884)" class="st1" cx="996.6" cy="203.4" rx="0.8" ry="0.8"/>
			</g>
			<g>
				
					<ellipse transform="matrix(0.9914 -0.1305 0.1305 0.9914 -18.9701 131.3071)" class="st1" cx="992.3" cy="210.4" rx="1" ry="1"/>
			</g>
			<g>
				
					<ellipse transform="matrix(0.9914 -0.1305 0.1305 0.9914 -18.0668 131.1171)" class="st1" cx="991.4" cy="203.4" rx="0.8" ry="0.8"/>
			</g>
			<g>
				
					<ellipse transform="matrix(0.1305 -0.9914 0.9914 0.1305 668.6207 1162.3268)" class="st1" cx="997" cy="200" rx="0.8" ry="0.8"/>
			</g>
			<g>
				
					<ellipse transform="matrix(0.9914 -0.1305 0.1305 0.9914 -18.5176 131.2122)" class="st1" cx="991.9" cy="206.9" rx="0.9" ry="0.9"/>
			</g>
			<g>
				
					<ellipse transform="matrix(0.2588 -0.9659 0.9659 0.2588 541.4487 1117.0573)" class="st1" cx="998.6" cy="205.7" rx="0.8" ry="0.8"/>
			</g>
			<g>
				
					<ellipse transform="matrix(0.9914 -0.1306 0.1306 0.9914 -17.606 131.135)" class="st1" cx="991" cy="199.8" rx="0.8" ry="0.8"/>
			</g>
			<g>
				
					<ellipse transform="matrix(0.3827 -0.9239 0.9239 0.3827 429.2128 1051.6124)" class="st1" cx="1001.5" cy="204.6" rx="0.8" ry="0.8"/>
			</g>
			<g>
				
					<ellipse transform="matrix(0.2588 -0.9659 0.9659 0.2588 555.4046 1113.2089)" class="st1" cx="1003.1" cy="194.7" rx="0.7" ry="0.7"/>
			</g>
			<g>
				<ellipse transform="matrix(0.5 -0.866 0.866 0.5 325.2507 972.1996)" class="st1" cx="1004.6" cy="204.4" rx="0.8" ry="0.8"/>
			</g>
			<g>
				
					<ellipse transform="matrix(0.2589 -0.9659 0.9659 0.2589 545.3493 1115.4105)" class="st1" cx="999.6" cy="202.3" rx="0.8" ry="0.8"/>
			</g>
			<g>
				
					<ellipse transform="matrix(0.2588 -0.9659 0.9659 0.2588 549.3288 1113.7845)" class="st1" cx="1000.4" cy="198.9" rx="0.7" ry="0.7"/>
			</g>
			<g>
				
					<ellipse transform="matrix(0.3827 -0.9239 0.9239 0.3827 433.0202 1050.9148)" class="st1" cx="1002.9" cy="201.4" rx="0.8" ry="0.8"/>
			</g>
			<g>
				<ellipse transform="matrix(0.866 -0.5 0.5 0.866 30.881 517.8197)" class="st1" cx="981.7" cy="201.3" rx="0.7" ry="0.7"/>
			</g>
			<g>
				
					<ellipse transform="matrix(0.707 -0.7072 0.7072 0.707 138.9263 755.6865)" class="st1" cx="981.5" cy="210.2" rx="0.8" ry="0.8"/>
			</g>
			<g>
				
					<ellipse transform="matrix(0.7934 -0.6087 0.6087 0.7934 76.7854 640.6585)" class="st1" cx="982.2" cy="207.2" rx="0.8" ry="0.8"/>
			</g>
			<g>
				
					<ellipse transform="matrix(0.7072 -0.7071 0.7071 0.7072 139.861 753.0715)" class="st1" cx="979.1" cy="207.7" rx="0.8" ry="0.8"/>
			</g>
			<g>
				
					<ellipse transform="matrix(0.7933 -0.6088 0.6088 0.7933 75.5253 642.6747)" class="st1" cx="984.3" cy="210.1" rx="0.9" ry="0.9"/>
			</g>
			<g>
				
					<ellipse transform="matrix(0.7934 -0.6087 0.6087 0.7934 77.9709 638.7775)" class="st1" cx="980" cy="204.5" rx="0.8" ry="0.8"/>
			</g>
			<g>
				
					<ellipse transform="matrix(0.9659 -0.2588 0.2588 0.9659 -19.5276 263.0626)" class="st1" cx="989.4" cy="205.7" rx="0.8" ry="0.8"/>
			</g>
			<g>
				
					<ellipse transform="matrix(0.9659 -0.2589 0.2589 0.9659 -18.6717 262.8223)" class="st1" cx="988.5" cy="202.3" rx="0.8" ry="0.8"/>
			</g>
			<g>
				<ellipse transform="matrix(0.866 -0.5 0.5 0.866 28.2986 520.3838)" class="st1" cx="985.2" cy="207.4" rx="0.8" ry="0.8"/>
			</g>
			<g>
				
					<ellipse transform="matrix(0.9659 -0.2588 0.2588 0.9659 -17.8291 262.3656)" class="st1" cx="987.6" cy="198.9" rx="0.7" ry="0.7"/>
			</g>
			<g>
				<circle class="st1" cx="989.5" cy="195.5" r="0.7"/>
			</g>
			<g>
				
					<ellipse transform="matrix(0.9239 -0.3826 0.3826 0.9239 -2.1319 392.2747)" class="st1" cx="985.2" cy="201.5" rx="0.8" ry="0.8"/>
			</g>
			<g>
				
					<ellipse transform="matrix(0.9239 -0.3827 0.3827 0.9239 -3.2344 393.1517)" class="st1" cx="986.6" cy="204.7" rx="0.8" ry="0.8"/>
			</g>
			<g>
				<ellipse transform="matrix(0.5 -0.866 0.866 0.5 328.8474 972.1714)" class="st1" cx="1006.4" cy="201.3" rx="0.7" ry="0.7"/>
			</g>
			<g>
				
					<ellipse transform="matrix(0.6088 -0.7934 0.7934 0.6088 229.2473 879.1682)" class="st1" cx="1006" cy="207.1" rx="0.8" ry="0.8"/>
			</g>
			<g>
				
					<ellipse transform="matrix(0.9914 -0.1306 0.1306 0.9914 -19.9709 134.6741)" class="st1" cx="1016.8" cy="219.6" rx="0.8" ry="0.8"/>
			</g>
			<g>
				<circle class="st1" cx="1018.7" cy="222.7" r="0.7"/>
			</g>
			<g>
				
					<ellipse transform="matrix(0.9659 -0.2588 0.2588 0.9659 -21.2519 271.9511)" class="st1" cx="1022.3" cy="216.7" rx="0.7" ry="0.7"/>
			</g>
			<g>
				
					<ellipse transform="matrix(0.966 -0.2587 0.2587 0.966 -25.568 272.569)" class="st1" cx="1022.9" cy="233.4" rx="0.7" ry="0.7"/>
			</g>
			<g>
				
					<ellipse transform="matrix(0.9659 -0.2588 0.2588 0.9659 -21.2982 270.8012)" class="st1" cx="1017.9" cy="216.3" rx="0.7" ry="0.7"/>
			</g>
			<g>
				<circle class="st1" cx="1010.8" cy="200.3" r="0.7"/>
			</g>
			<g>
				
					<ellipse transform="matrix(0.6087 -0.7934 0.7934 0.6087 232.1978 879.7893)" class="st1" cx="1008" cy="204.5" rx="0.8" ry="0.8"/>
			</g>
			<g>
				
					<ellipse transform="matrix(0.7071 -0.7071 0.7071 0.7071 148.6103 774.3461)" class="st1" cx="1009" cy="207.8" rx="0.8" ry="0.8"/>
			</g>
			<g>
				
					<ellipse transform="matrix(0.966 -0.2587 0.2587 0.966 -21.6654 269.8188)" class="st1" cx="1014.4" cy="217.2" rx="0.8" ry="0.8"/>
			</g>
			<g>
				
					<ellipse transform="matrix(0.7071 -0.7071 0.7071 0.7071 151.175 775.316)" class="st1" cx="1011.5" cy="205.2" rx="0.7" ry="0.7"/>
			</g>
			<g>
				<ellipse transform="matrix(0.866 -0.5 0.5 0.866 30.8299 535.8859)" class="st1" cx="1015.4" cy="210.4" rx="0.7" ry="0.7"/>
			</g>
			<g>
				
					<ellipse transform="matrix(0.9239 -0.3827 0.3827 0.9239 -4.5666 404.8422)" class="st1" cx="1015.3" cy="213.9" rx="0.8" ry="0.8"/>
			</g>
			<g>
				
					<ellipse transform="matrix(0.9914 -0.1305 0.1305 0.9914 -20.0677 134.1319)" class="st1" cx="1013.4" cy="220.2" rx="0.8" ry="0.8"/>
			</g>
		</g>
	</g>
	<g>
		<path class="st1" d="M987.2,182.2c-11.7-30.3-35.7-54.5-66-66.3l1.8-4.7c31.6,12.3,56.7,37.5,68.9,69.1L987.2,182.2z"/>
	</g>
	<g>
		<path class="st1" d="M771.5,181.9l-4.7-1.8c12.4-32.1,38-57.4,70.2-69.4l1.8,4.7C808,126.9,783.4,151.2,771.5,181.9z"/>
	</g>
	<g>
		<path class="st1" d="M835.9,336.1C803.4,323.6,778,297.7,766,265l4.7-1.7c11.4,31.3,35.9,56.2,67,68.2L835.9,336.1z"/>
	</g>
	<g>
		<path class="st1" d="M923,335.9l-1.8-4.7c30.9-12.1,55.2-36.9,66.6-68l4.7,1.7C980.7,297.5,955.3,323.4,923,335.9z"/>
	</g>
</g>
<g>
	<g>
		<path class="st1" d="M605.1,34.7c-5.2,0-9.8,2.2-13.2,5.6c-1.1-0.5-2.4-0.4-3.2,0.4c0,0,0,0,0,0l0,0l-1.5,1.5l-0.6,0.6
			c-0.9,0.9-0.6,2.6,0.6,3.8c1.2,1.2,2.9,1.4,3.8,0.5l0.6-0.6l1.4-1.5l0,0c0,0,0,0,0,0c0.8-0.8,0.9-2.1,0.4-3.2l0.3-0.3
			c2.9-2.9,6.9-4.7,11.4-4.7c8.9,0,16.1,7.2,16.1,16.1c0,8.9-7.2,16.1-16.1,16.1c-4.4,0-8.3-1.7-11.2-4.6l0,0l-1-1l-5.4-5.7
			l-4.6-4.8l0,0l0,0l-1.4-1.5l0,0h0l-6.9-7.3l0,0l-2.8-3c-3.3-3.9-8.3-6.3-13.8-6.3c-10.1,0-18.2,8.1-18.2,18.2
			c0,10.1,8.1,18.2,18.2,18.2c5.6,0,10.6-2.5,13.9-6.5l0.8-0.8c1.2,0.5,2.5,0.3,3.2-0.6l1.5-1.7c-0.9-0.1-1.9-0.6-2.8-1.4
			c-0.9-0.8-1.5-1.7-1.8-2.6l-1.5,1.7c-0.8,0.9-0.8,2.2-0.2,3.2l-0.9,1l-1,1l0,0c-2.9,2.8-6.9,4.6-11.2,4.6
			c-8.9,0-16.1-7.2-16.1-16.1c0-8.9,7.2-16.1,16.1-16.1c4.4,0,8.4,1.8,11.4,4.7l0.7,0.7l5.5,5.9l4.1,4.3l0.5,0.5l1.4,1.5l0,0l7,7.4
			l0,0l2.7,2.8c3.3,4,8.3,6.5,13.9,6.5c10.1,0,18.2-8.1,18.2-18.2C623.3,42.8,615.2,34.7,605.1,34.7z"/>
		<path class="st1" d="M575.6,58.7c-1.8-1.6-2.5-3.8-1.6-4.9l-1,1.1c0,0,0,0.1-0.1,0.1c-0.9,1.2-0.2,3.3,1.6,4.8
			c1.8,1.5,4,1.9,5,0.8c0,0,0-0.1,0.1-0.1l1-1.1C579.8,60.6,577.5,60.3,575.6,58.7z"/>
		<path class="st1" d="M579,54.7c-1.7-1.4-3.8-1.8-4.7-0.7c-0.9,1.1-0.3,3.1,1.4,4.5c1.7,1.4,3.8,1.8,4.7,0.7
			C581.4,58.2,580.7,56.2,579,54.7z M576.6,55.9c-0.1,0.1-0.4,0.1-0.6-0.1c-0.2-0.2-0.3-0.5-0.2-0.6c0.1-0.1,0.4-0.1,0.6,0.1
			C576.7,55.5,576.8,55.8,576.6,55.9z M578,57.1c0.1-0.1,0.4-0.1,0.6,0.1c0.2,0.2,0.3,0.5,0.2,0.6c-0.1,0.1-0.4,0.1-0.6-0.1
			C578,57.5,577.9,57.2,578,57.1z M580.1,59c-0.4,0.5-1.1,0.6-1.9,0.5c0.7,0.1,1.3-0.1,1.7-0.5c0.8-0.9,0.2-2.6-1.2-3.8
			c-1.4-1.2-3.2-1.5-4-0.6c-0.4,0.4-0.4,1.1-0.2,1.7c-0.3-0.8-0.2-1.5,0.2-2c0.8-0.9,2.7-0.7,4.2,0.6C580.3,56.2,580.9,58,580.1,59z
			"/>
		<path class="st1" d="M583,49.4l1.3-1.4c0.2,0.3,0.4,0.5,0.7,0.8c0.3,0.3,0.5,0.5,0.8,0.7l-1.3,1.4c-0.1,0.1-0.1,0.4,0,0.5
			c0.1,0.1,0.4,0.1,0.5,0l1.5-1.5c1.4,0.8,2.8,0.8,3.6,0l1-1.1c-1,1.1-3.3,0.6-5-1.1c-1.7-1.7-2.2-3.9-1.2-5l-1,1.1
			c-0.8,0.8-0.7,2.2,0.1,3.6l-1.5,1.5c-0.1,0.1-0.1,0.4,0,0.5C582.7,49.6,582.9,49.6,583,49.4z"/>
		<path class="st1" d="M586.2,47.6c1.6,1.6,3.6,2,4.6,1c0.4-0.4,0.5-0.9,0.5-1.5c0,0.1-0.1,0.1-0.1,0.2c-1,1-2.8,0.7-4.1-0.5
			c-1.3-1.3-1.6-3.1-0.6-4.1c0.1-0.1,0.1-0.1,0.2-0.1c-0.6,0-1.2,0.1-1.5,0.5C584.2,44,584.7,46.1,586.2,47.6z"/>
	</g>
	<g>
		<path class="st1" d="M472.9,42.4c1.4-1,3.2-1.5,5.3-1.5c2.1,0,3.9,0.7,5.5,2.2c1.6,1.5,2.3,3.5,2.3,6.1v15.2h-1.6V49.2
			c0-2-0.6-3.6-1.9-4.9c-1.3-1.3-2.8-2-4.7-2c-1.8,0-3.4,0.7-4.8,2c-1.4,1.4-2.1,2.9-2.1,4.7v15.3h-1.6V49.1c0-1.8-0.6-3.4-1.9-4.8
			c-1.3-1.3-2.9-2-4.7-2c-1.8,0-3.4,0.7-4.8,2c-1.4,1.4-2,2.9-2,4.7v15.3H454v-23h1.6v3.2c0.7-1,1.7-1.9,3-2.7
			c1.3-0.7,2.7-1.1,4.2-1.1c1.4,0,2.8,0.5,4.2,1.5c1.3,1,2.3,2.3,2.9,3.9C470.4,44.7,471.4,43.4,472.9,42.4z"/>
		<path class="st1" d="M494.3,61.4c-2.3-2.4-3.5-5.3-3.5-8.5c0-3.2,1.2-6,3.6-8.4c2.4-2.4,5.2-3.5,8.6-3.5c3.3,0,6.2,1.2,8.6,3.5
			c2.4,2.4,3.5,5.2,3.5,8.4c0,3.2-1.2,6.1-3.5,8.5c-2.3,2.4-5.1,3.6-8.4,3.6h-0.5C499.5,65,496.7,63.8,494.3,61.4z M513.5,53
			c0-2.9-1-5.4-3.1-7.5c-2.1-2.1-4.5-3.2-7.4-3.2c-2.9,0-5.3,1.1-7.4,3.2c-2.1,2.1-3.1,4.6-3.1,7.5c0,2.9,1,5.3,3.1,7.4
			s4.6,3.1,7.4,3.1c2.9,0,5.3-1,7.4-3.1C512.4,58.4,513.5,55.9,513.5,53z"/>
		<path class="st1" d="M539.3,41.5h1.5l-11.3,23.6l-11.3-23.6h1.8l9.7,20.2L539.3,41.5z"/>
		<path class="st1" d="M568,41.5v23h-1.6v-5.7c-1,1.9-2.4,3.5-4.3,4.6c-1.9,1.1-3.9,1.7-6.1,1.7c-3.3,0-6.2-1.2-8.6-3.5
			c-2.4-2.4-3.6-5.2-3.6-8.5c0-3.3,1.2-6.1,3.6-8.5c2.4-2.4,5.2-3.5,8.6-3.5c2.2,0,4.3,0.6,6.2,1.7c2,1.2,3.4,2.7,4.2,4.6v-5.8H568z
			 M545.4,53c0,2.9,1,5.3,3.1,7.4s4.6,3.1,7.4,3.1c2.9,0,5.3-1,7.4-3.1c2-2.1,3.1-4.6,3.1-7.4c0-2.9-1-5.4-3.1-7.5
			c-2.1-2.1-4.5-3.2-7.4-3.2c-2.9,0-5.3,1.1-7.4,3.2C546.5,47.7,545.4,50.2,545.4,53z"/>
	</g>
</g>
</svg>
