<?xml version="1.0" encoding="utf-8"?>
<!-- Generator: Adobe Illustrator 21.1.0, SVG Export Plug-In . SVG Version: 6.00 Build 0)  -->
<svg version="1.1" id="Layer_1" xmlns="http://www.w3.org/2000/svg" xmlns:xlink="http://www.w3.org/1999/xlink" x="0px" y="0px"
	 viewBox="0 0 400 91.9" style="enable-background:new 0 0 400 91.9;" xml:space="preserve">
<style type="text/css">
	.st0{fill:#80CDF3;}
	.st1{fill:#91BF3B;}
</style>
<g>
	<g>
		<path class="st0" d="M354,4.5c-11.9,0-22.7,5-30.4,13c-2.5-1.2-5.5-1-7.4,1c0,0,0,0,0,0l0,0l-3.4,3.4l-1.4,1.4
			c-2,2.1-1.4,6,1.3,8.7c2.8,2.7,6.7,3.2,8.7,1.2l1.4-1.5l3.3-3.4l0,0c0,0,0,0,0,0c1.9-1.9,2.1-4.9,0.8-7.4l0.7-0.7
			c6.7-6.7,16-10.8,26.2-10.8c20.5,0,37.2,16.6,37.2,37.2c0,20.5-16.6,37.2-37.2,37.2c-10.1,0-19.3-4-26-10.6l0,0l-2.2-2.3
			l-12.4-13.1l-10.6-11.2l0,0l0,0l-3.3-3.5l0,0h0l-16-16.9l0,0l-6.6-7c-7.7-9-19.1-14.6-31.9-14.6c-23.2,0-42,18.8-42,42
			c0,23.2,18.8,42,42,42c12.9,0,24.4-5.8,32.1-14.9l1.8-1.9c2.7,1.2,5.7,0.7,7.5-1.4l3.4-4c-2.1-0.3-4.5-1.4-6.6-3.2
			c-2.1-1.8-3.6-3.9-4.2-6l-3.4,4c-1.7,2-1.8,5-0.4,7.4l-2.1,2.3l-2.2,2.3l0,0c-6.7,6.5-15.9,10.6-26,10.6
			c-20.5,0-37.2-16.6-37.2-37.2c0-20.5,16.6-37.2,37.2-37.2c10.2,0,19.5,4.1,26.2,10.8l1.5,1.6l12.8,13.5l9.5,10l1.1,1.2l3.3,3.5
			l0,0l16.1,17.1l0,0l6.2,6.5c7.7,9.1,19.2,14.9,32.1,14.9c23.2,0,42-18.8,42-42C396,23.4,377.2,4.5,354,4.5z"/>
		<path class="st0" d="M285.8,60.2c-4.2-3.6-5.8-8.7-3.6-11.3l-2.2,2.6c-0.1,0.1-0.1,0.1-0.2,0.2c-2,2.7-0.4,7.6,3.7,11.1
			c4.1,3.5,9.2,4.3,11.6,1.9c0.1-0.1,0.1-0.1,0.2-0.2l2.2-2.6C295.3,64.6,290.1,63.8,285.8,60.2z"/>
		<path class="st0" d="M293.7,50.9c-3.9-3.3-8.8-4-10.9-1.6c-2.1,2.4-0.6,7.1,3.3,10.5c3.9,3.3,8.8,4.1,10.9,1.6
			C299.1,59,297.6,54.3,293.7,50.9z M288.2,53.6c-0.3,0.3-0.9,0.2-1.4-0.2c-0.5-0.4-0.7-1-0.4-1.4c0.3-0.3,0.9-0.2,1.4,0.2
			C288.2,52.7,288.4,53.3,288.2,53.6z M291.4,56.4c0.3-0.3,0.9-0.2,1.4,0.2c0.5,0.4,0.7,1,0.4,1.4c-0.3,0.3-0.9,0.2-1.4-0.2
			C291.3,57.3,291.1,56.7,291.4,56.4z M296.2,60.7c-1,1.1-2.6,1.5-4.4,1.2c1.6,0.2,3-0.2,3.9-1.2c1.8-2.1,0.5-6-2.7-8.8
			c-3.3-2.8-7.4-3.4-9.1-1.3c-0.9,1-1,2.5-0.6,4c-0.6-1.7-0.5-3.4,0.4-4.5c1.8-2.2,6.1-1.5,9.6,1.4C296.7,54.4,298,58.5,296.2,60.7z
			"/>
		<path class="st0" d="M302.9,38.6l3.1-3.2c0.5,0.6,1,1.3,1.6,1.8c0.6,0.6,1.3,1.1,1.9,1.6l-3.1,3.2c-0.3,0.3-0.3,0.8,0,1.1
			c0.3,0.3,0.8,0.3,1.1,0l3.4-3.4c3.2,1.7,6.4,1.9,8.2,0.1l2.4-2.5c-2.4,2.5-7.6,1.3-11.5-2.5c-3.9-3.9-5.2-9-2.8-11.5l-2.4,2.5
			c-1.8,1.8-1.6,5.1,0.2,8.2l-3.4,3.4c-0.3,0.3-0.3,0.8,0,1.1C302,39,302.5,39,302.9,38.6z"/>
		<path class="st0" d="M310.3,34.5c3.6,3.6,8.4,4.6,10.7,2.4c0.9-0.9,1.2-2.1,1.1-3.6c-0.1,0.1-0.2,0.3-0.3,0.4
			c-2.2,2.2-6.4,1.7-9.4-1.3c-3-2.9-3.6-7.1-1.4-9.4c0.1-0.1,0.3-0.2,0.4-0.3c-1.4-0.1-2.7,0.3-3.5,1.2
			C305.5,26.2,306.7,31,310.3,34.5z"/>
	</g>
	<g>
		<path class="st1" d="M48.5,22.5c3.3-2.3,7.4-3.4,12.2-3.4c4.8,0,9,1.7,12.6,5.2c3.6,3.5,5.4,8.1,5.4,14v35.1h-3.8V38.2
			c0-4.6-1.5-8.3-4.5-11.4c-3-3-6.6-4.5-10.8-4.5c-4.2,0-7.9,1.6-11.2,4.7c-3.3,3.1-4.9,6.8-4.9,11v35.4h-3.8V38
			c0-4.2-1.5-7.9-4.5-11c-3-3.1-6.6-4.7-10.8-4.7c-4.2,0-7.9,1.6-11.1,4.7c-3.1,3.1-4.7,6.8-4.7,11v35.4H4.9v-53h3.8v7.4
			c1.6-2.4,3.9-4.4,7-6.1c3.1-1.7,6.3-2.6,9.7-2.6c3.3,0,6.5,1.2,9.6,3.5c3.1,2.3,5.3,5.3,6.7,9C42.9,27.8,45.1,24.7,48.5,22.5z"/>
		<path class="st1" d="M98,66.2c-5.4-5.6-8.1-12.2-8.1-19.6c0-7.5,2.7-13.9,8.2-19.4c5.5-5.5,12.1-8.2,19.9-8.2
			c7.7,0,14.3,2.7,19.8,8.2c5.5,5.5,8.2,11.9,8.2,19.4c0,7.5-2.7,14-8,19.6c-5.3,5.6-11.8,8.4-19.4,8.4h-1.1
			C109.9,74.7,103.4,71.9,98,66.2z M142.2,46.9c0-6.6-2.4-12.4-7.1-17.3c-4.8-4.9-10.4-7.3-17-7.3c-6.6,0-12.3,2.5-17.1,7.4
			c-4.8,4.9-7.2,10.7-7.2,17.3s2.4,12.3,7.2,17.1s10.6,7.2,17.2,7.2c6.6,0,12.3-2.4,17-7.2C139.9,59.3,142.2,53.6,142.2,46.9z"/>
		<path class="st1" d="M201.8,20.3h3.4l-26,54.6l-26.2-54.6h4.1l22.4,46.5L201.8,20.3z"/>
		<path class="st1" d="M268.2,20.3v53h-3.8V60.2c-2.2,4.5-5.5,8-9.9,10.6c-4.4,2.6-9.1,3.9-14.1,3.9c-7.7,0-14.3-2.7-19.8-8.2
			c-5.5-5.5-8.2-12-8.2-19.6c0-7.6,2.7-14.2,8.2-19.6c5.5-5.5,12.1-8.2,19.8-8.2c5,0,9.8,1.3,14.4,4c4.6,2.7,7.8,6.2,9.6,10.6V20.3
			H268.2z M216.1,47c0,6.6,2.4,12.3,7.2,17.1s10.6,7.2,17.2,7.2c6.6,0,12.3-2.4,17-7.2c4.7-4.8,7.1-10.6,7.1-17.2
			c0-6.6-2.4-12.4-7.1-17.3c-4.8-4.9-10.4-7.3-17-7.3c-6.6,0-12.3,2.5-17.1,7.4C218.5,34.6,216.1,40.4,216.1,47z"/>
	</g>
</g>
</svg>
