<?xml version="1.0" encoding="utf-8"?>
<!-- Generator: Adobe Illustrator 21.1.0, SVG Export Plug-In . SVG Version: 6.00 Build 0)  -->
<svg version="1.1" id="Layer_1" xmlns="http://www.w3.org/2000/svg" xmlns:xlink="http://www.w3.org/1999/xlink" x="0px" y="0px"
	 viewBox="0 0 257.1 110" style="enable-background:new 0 0 257.1 110;" xml:space="preserve">
<style type="text/css">
	.st0{fill:#FFFFFF;}
</style>
<g>
	<path class="st0" d="M193.8,1.8c-15.1,0-28.8,6.3-38.5,16.5c-3.2-1.6-7-1.2-9.4,1.2c0,0,0,0,0,0l0,0l-4.3,4.4l-1.7,1.8
		c-2.6,2.6-1.8,7.6,1.7,11c3.5,3.4,8.5,4.1,11,1.5l1.8-1.8l4.2-4.3l0,0c0,0,0,0,0,0c2.4-2.4,2.7-6.2,1.1-9.4l0.8-0.9
		C169.1,13.2,180.8,8,193.8,8c26,0,47.1,21.1,47.1,47.1c0,26-21.1,47.1-47.1,47.1c-12.8,0-24.4-5.1-32.9-13.4l0,0l-2.8-3l-15.7-16.6
		l-13.4-14.2l0,0l0,0l-4.2-4.4l0,0h0l-20.3-21.4l0,0l-8.3-8.8C86.4,9,71.9,1.8,55.8,1.8C26.3,1.8,2.5,25.7,2.5,55.1
		c0,29.4,23.9,53.3,53.3,53.3c16.3,0,30.9-7.3,40.7-18.9l2.3-2.4c3.4,1.5,7.2,0.8,9.5-1.8l4.3-5c-2.7-0.4-5.7-1.8-8.3-4.1
		c-2.7-2.3-4.5-5-5.3-7.6l-4.3,5c-2.2,2.6-2.3,6.3-0.4,9.4l-2.7,2.9l-2.8,3l0,0c-8.5,8.3-20.1,13.4-32.9,13.4
		c-26,0-47.1-21.1-47.1-47.1C8.6,29.1,29.7,8,55.8,8c13,0,24.7,5.3,33.3,13.7l1.9,2l16.2,17.1l12,12.7l1.4,1.5l4.2,4.4l0,0
		l20.4,21.6l0,0l7.8,8.3c9.8,11.6,24.4,18.9,40.7,18.9c29.4,0,53.3-23.9,53.3-53.3C247.1,25.7,223.3,1.8,193.8,1.8z"/>
	<path class="st0" d="M107.5,72.3c-5.4-4.6-7.4-11-4.6-14.4l-2.8,3.3c-0.1,0.1-0.1,0.2-0.2,0.2c-2.6,3.4-0.5,9.6,4.7,14.1
		c5.2,4.5,11.7,5.5,14.7,2.4c0.1-0.1,0.1-0.2,0.2-0.2l2.8-3.3C119.5,77.9,112.8,76.9,107.5,72.3z"/>
	<path class="st0" d="M117.4,60.6c-5-4.2-11.1-5.1-13.8-2c-2.6,3.1-0.8,9,4.2,13.3c5,4.2,11.1,5.1,13.8,2
		C124.3,70.8,122.4,64.8,117.4,60.6z M110.4,64c-0.3,0.4-1.1,0.3-1.8-0.3c-0.6-0.5-0.9-1.3-0.5-1.7c0.3-0.4,1.1-0.3,1.8,0.3
		C110.5,62.9,110.8,63.6,110.4,64z M114.5,67.5c0.3-0.4,1.1-0.3,1.8,0.3c0.6,0.5,0.9,1.3,0.5,1.7c-0.3,0.4-1.1,0.3-1.8-0.3
		C114.4,68.7,114.1,67.9,114.5,67.5z M120.6,73c-1.2,1.4-3.3,1.9-5.6,1.5c2,0.3,3.8-0.2,4.9-1.5c2.2-2.6,0.7-7.6-3.5-11.2
		c-4.2-3.5-9.4-4.3-11.6-1.6c-1.1,1.3-1.3,3.1-0.7,5.1c-0.8-2.2-0.6-4.3,0.6-5.8c2.3-2.7,7.8-1.9,12.2,1.8
		C121.3,65,122.9,70.3,120.6,73z"/>
	<path class="st0" d="M129,45l3.9-4c0.6,0.8,1.3,1.6,2,2.3c0.8,0.8,1.6,1.4,2.4,2l-3.9,4c-0.4,0.4-0.4,1.1,0,1.5
		c0.4,0.4,1.1,0.4,1.5,0l4.3-4.3c4,2.2,8.2,2.4,10.4,0.1l3.1-3.1c-3.1,3.1-9.6,1.7-14.6-3.2c-5-4.9-6.6-11.4-3.5-14.6l-3.1,3.1
		c-2.3,2.3-2,6.5,0.3,10.5l-4.2,4.3c-0.4,0.4-0.4,1.1,0,1.5C128,45.4,128.6,45.4,129,45z"/>
	<path class="st0" d="M138.5,39.8c4.6,4.5,10.7,5.9,13.5,3c1.1-1.1,1.6-2.7,1.4-4.5c-0.1,0.2-0.3,0.3-0.4,0.5
		c-2.8,2.8-8.1,2.1-11.9-1.6c-3.8-3.7-4.6-9-1.8-11.9c0.2-0.2,0.3-0.3,0.5-0.4c-1.8-0.1-3.4,0.4-4.5,1.5
		C132.5,29.3,133.9,35.3,138.5,39.8z"/>
</g>
</svg>
