<?xml version="1.0" encoding="utf-8"?>
<!-- Generator: Adobe Illustrator 21.1.0, SVG Export Plug-In . SVG Version: 6.00 Build 0)  -->
<svg version="1.1" id="Camada_1" xmlns="http://www.w3.org/2000/svg" xmlns:xlink="http://www.w3.org/1999/xlink" x="0px" y="0px"
	 viewBox="0 0 1058.9 243.3" style="enable-background:new 0 0 1058.9 243.3;" xml:space="preserve">
<style type="text/css">
	.st0{fill:#FFFFFF;}
</style>
<g>
	<g>
		<path class="st0" d="M938.1,10.1c-31.8,0-60.5,13.3-80.9,34.6c-6.7-3.3-14.6-2.5-19.7,2.6c0,0,0,0,0,0l0,0l-9,9.2l-3.6,3.7
			c-5.4,5.5-3.8,15.9,3.5,23.1c7.4,7.2,17.8,8.6,23.2,3.1l3.8-3.9l8.8-9l0,0c0,0,0,0,0,0c5-5.1,5.6-13,2.2-19.7l1.8-1.9
			c17.9-17.8,42.6-28.9,69.8-28.9c54.7,0,99,44.3,99,99c0,54.7-44.3,99-99,99c-26.9,0-51.3-10.7-69.1-28.1l0,0l-5.9-6.2l-33-34.9
			L802.1,122l0,0l-0.1-0.1l-8.8-9.3l-0.1-0.1h0l-42.5-45l-0.1,0.1L733,49.1c-20.5-23.9-50.9-39-84.9-39
			c-61.8,0-111.9,50.1-111.9,111.9c0,61.8,50.1,111.9,111.9,111.9c34.3,0,65-15.4,85.5-39.7l4.8-5.1c7.1,3.1,15.2,1.8,19.9-3.8
			l9-10.5c-5.6-0.9-11.9-3.8-17.5-8.5c-5.6-4.8-9.5-10.5-11.2-15.9l-9,10.5c-4.6,5.4-4.7,13.3-0.9,19.7l-5.7,6l-5.9,6.2l0,0
			C699.4,210.3,675,221,648.2,221c-54.7,0-99-44.3-99-99c0-54.7,44.3-99,99-99c27.3,0,51.9,11,69.8,28.9l4,4.3l34,36l25.2,26.7
			l3,3.2l8.8,9.3l0.1,0.1l42.9,45.4l0.1-0.1l16.5,17.4c20.5,24.3,51.2,39.7,85.5,39.7c61.8,0,111.9-50.1,111.9-111.9
			C1050,60.2,999.9,10.1,938.1,10.1z"/>
		<path class="st0" d="M756.8,158.2c-11.3-9.6-15.6-23.1-9.6-30.1l-6,7c-0.1,0.2-0.3,0.3-0.4,0.5c-5.4,7.2-1,20.3,10,29.6
			c11,9.4,24.6,11.6,30.8,5.1c0.2-0.2,0.3-0.3,0.5-0.5l6-7C782,169.9,768,167.8,756.8,158.2z"/>
		<path class="st0" d="M777.6,133.6c-10.4-8.9-23.4-10.8-28.9-4.3c-5.5,6.5-1.6,19,8.8,27.9c10.4,8.9,23.4,10.8,28.9,4.3
			C792,154.9,788,142.5,777.6,133.6z M762.9,140.8c-0.7,0.9-2.4,0.6-3.8-0.5c-1.4-1.1-1.9-2.8-1.1-3.6c0.7-0.9,2.4-0.6,3.8,0.5
			C763.1,138.3,763.6,140,762.9,140.8z M771.4,148c0.7-0.9,2.4-0.6,3.8,0.5c1.3,1.1,1.9,2.8,1.1,3.6c-0.7,0.9-2.4,0.6-3.8-0.5
			C771.2,150.5,770.7,148.9,771.4,148z M784.3,159.6c-2.6,3-6.9,4-11.7,3.1c4.3,0.5,8-0.5,10.3-3.2c4.7-5.5,1.4-16.1-7.3-23.5
			c-8.7-7.4-19.6-9-24.4-3.5c-2.3,2.7-2.7,6.6-1.5,10.7c-1.6-4.7-1.4-9.1,1.2-12.1c4.9-5.8,16.3-4.1,25.6,3.8
			C785.7,142.8,789.2,153.9,784.3,159.6z"/>
		<path class="st0" d="M802.1,100.9l8.3-8.4c1.3,1.7,2.7,3.3,4.3,4.9c1.6,1.6,3.3,3,5.1,4.3l-8.3,8.4c-0.8,0.9-0.8,2.2,0,3
			c0.8,0.8,2.2,0.8,3,0l8.9-9.1c8.4,4.6,17.1,5,21.9,0.2l6.4-6.5c-6.4,6.6-20.2,3.5-30.7-6.8c-10.5-10.3-13.8-24-7.4-30.6l-6.4,6.5
			c-4.8,4.8-4.2,13.6,0.6,22l-8.9,9.1c-0.8,0.9-0.8,2.2,0,3C799.9,101.7,801.2,101.7,802.1,100.9z"/>
		<path class="st0" d="M822,90c9.7,9.5,22.4,12.3,28.4,6.3c2.3-2.4,3.3-5.7,3-9.5c-0.3,0.4-0.6,0.7-0.9,1.1c-5.9,6-17.1,4.5-25-3.3
			c-8-7.8-9.7-19-3.8-25c0.3-0.3,0.7-0.6,1-0.9c-3.8-0.2-7.1,0.8-9.4,3.2C809.2,67.8,812.2,80.4,822,90z"/>
	</g>
	<g>
		<path class="st0" d="M124.8,57.8c8.9-6.1,19.7-9.1,32.5-9.1c12.8,0,23.9,4.6,33.6,13.8c9.6,9.2,14.4,21.6,14.4,37.3v93.5h-10V99.8
			c0-12.1-4-22.2-11.9-30.3c-8-8-17.5-12.1-28.7-12.1c-11.2,0-21.1,4.2-29.8,12.5c-8.7,8.4-13,18.1-13,29.2v94.1h-10V99.2
			c0-11.3-4-21.1-11.9-29.3c-8-8.3-17.6-12.4-28.9-12.4c-11.3,0-21.1,4.2-29.5,12.5C23.1,78.4,19,88.1,19,99.2v94.1h-10V52.1h10
			v19.8c4.2-6.3,10.4-11.7,18.7-16.3c8.3-4.6,16.8-6.9,25.7-6.9c8.9,0,17.4,3.1,25.6,9.3c8.2,6.2,14.1,14.2,17.9,24
			C109.9,71.9,115.9,63.9,124.8,57.8z"/>
		<path class="st0" d="M256.7,174.3c-14.4-15-21.6-32.4-21.6-52.2c0-19.9,7.3-37.1,22-51.6c14.6-14.5,32.3-21.8,52.9-21.8
			c20.6,0,38.2,7.3,52.7,21.8c14.5,14.5,21.8,31.8,21.8,51.8c0,20-7.1,37.4-21.3,52.2c-14.2,14.9-31.5,22.3-51.8,22.3h-2.8
			C288.4,196.8,271.2,189.3,256.7,174.3z M374.4,122.9c0-17.7-6.3-33-19-46c-12.7-13-27.8-19.5-45.3-19.5
			c-17.6,0-32.8,6.5-45.6,19.6c-12.9,13.1-19.3,28.4-19.3,46s6.4,32.8,19.3,45.6c12.9,12.9,28.1,19.3,45.8,19.3
			c17.7,0,32.8-6.4,45.3-19.3C368.1,155.8,374.4,140.6,374.4,122.9z"/>
		<path class="st0" d="M533.1,52.1h9.1l-69.3,145.2L403.2,52.1h11l59.6,123.9L533.1,52.1z"/>
		<path class="st0" d="M709.7,52.1v141.2h-10v-35.1c-5.9,11.9-14.6,21.3-26.4,28.2c-11.7,6.9-24.3,10.4-37.6,10.4
			c-20.5,0-38.1-7.3-52.7-21.8c-14.6-14.5-22-31.9-22-52.2c0-20.3,7.3-37.7,22-52.2c14.6-14.5,32.2-21.8,52.7-21.8
			c13.4,0,26.2,3.6,38.4,10.7c12.2,7.1,20.8,16.5,25.6,28.2V52.1H709.7z M571.1,123c0,17.6,6.4,32.8,19.3,45.6
			c12.9,12.9,28.1,19.3,45.8,19.3c17.7,0,32.8-6.4,45.3-19.3c12.5-12.9,18.8-28.1,18.8-45.8c0-17.7-6.3-33-19-46
			c-12.7-13-27.8-19.5-45.3-19.5s-32.8,6.5-45.6,19.6C577.5,90.2,571.1,105.5,571.1,123z"/>
	</g>
</g>
</svg>
