<?xml version="1.0" encoding="utf-8"?>
<!-- Generator: Adobe Illustrator 21.0.2, SVG Export Plug-In . SVG Version: 6.00 Build 0)  -->
<svg version="1.1" id="Layer_1" xmlns="http://www.w3.org/2000/svg" xmlns:xlink="http://www.w3.org/1999/xlink" x="0px" y="0px"
	 viewBox="0 0 60 60" style="enable-background:new 0 0 60 60;" xml:space="preserve">
<style type="text/css">
	.st0{fill:#FFFFFF;}
</style>
<g>
	<path class="st0" d="M30,59.5C13.7,59.5,0.5,46.3,0.5,30S13.7,0.5,30,0.5S59.5,13.7,59.5,30S46.3,59.5,30,59.5z M30,1.3
		C14.2,1.3,1.3,14.2,1.3,30S14.2,58.7,30,58.7S58.7,45.8,58.7,30S45.8,1.3,30,1.3z"/>
	<path class="st0" d="M35.7,41.8c0-0.1-0.1-0.3-0.2-0.4L24.6,30.6l0,0L24,30l11.5-11.5c0.2-0.2,0.2-0.4,0.2-0.6
		c0-0.2-0.1-0.4-0.2-0.6l-1.1-1.1c-0.2-0.2-0.5-0.3-0.8-0.2c-0.1,0-0.3,0.1-0.4,0.2L22.3,27.1l0,0l-1.8,1.8l-0.5,0.5
		c-0.1,0.1-0.2,0.2-0.2,0.4c0,0.1,0,0.2,0,0.2c0,0,0,0,0,0c0,0.2,0.1,0.4,0.2,0.6l0.5,0.5l12.6,12.6c0.2,0.2,0.4,0.2,0.6,0.2
		c0.2,0,0.4-0.1,0.6-0.2l1.1-1.1C35.7,42.4,35.8,42.1,35.7,41.8z"/>
</g>
</svg>
