<?xml version="1.0" encoding="utf-8"?>
<!-- Generator: Adobe Illustrator 21.1.0, SVG Export Plug-In . SVG Version: 6.00 Build 0)  -->
<svg version="1.1" id="Camada_1" xmlns="http://www.w3.org/2000/svg" xmlns:xlink="http://www.w3.org/1999/xlink" x="0px" y="0px"
	 viewBox="0 0 1101.1 445.5" style="enable-background:new 0 0 1101.1 445.5;" xml:space="preserve">
<style type="text/css">
	.st0{fill:#FFFFFF;}
	.st1{fill:#242424;}
</style>
<rect x="4" y="4" class="st0" width="1093" height="437.5"/>
<g>
	<g>
		<g>
			<path class="st1" d="M663.5,445.5H0V0h663.5V445.5z M8,437.5h647.5V8H8V437.5z"/>
		</g>
		<g>
			<path class="st1" d="M1101.1,445.5H655.5V0H1101L1101.1,445.5L1101.1,445.5z M663.5,437.5H1093V8H663.5V437.5z"/>
		</g>
		<g>
			<g>
				<g>
					<path class="st1" d="M132.6,374.3h-14.1l-18.4-21.1H88.7v21.1H76.8v-63.2c10,0,20,0.1,30,0.1c14.9,0.1,22.7,10,22.7,20.9
						c0,8.7-4,17.4-16,19.8l19.1,21.5V374.3z M88.7,322.3v20.2h18.1c7.6,0,10.8-5,10.8-10.1s-3.3-10.1-10.8-10.1H88.7z"/>
					<path class="st1" d="M184.6,374.3h-47.2c0-21,0-42.1,0-63.1h47.2v11.5h-35.4v14.5h34.2v11.1h-34.2v14.2h35.4V374.3z"/>
					<path class="st1" d="M235.3,311.1h11.9v63.2h-7.4v0.1l-33.2-42.6v42.5h-11.9v-63.1h9.6l30.9,39.1L235.3,311.1L235.3,311.1z"/>
					<path class="st1" d="M319.2,343.1c-0.2,16.3-10.2,32.6-32.4,32.6c-22.2,0-32.4-16-32.4-32.5s10.6-33.3,32.4-33.3
						C308.5,309.9,319.4,326.6,319.2,343.1z M266.1,343.4c0.3,10.4,5.9,21.4,20.7,21.4c14.9,0,20.5-11.2,20.6-21.5
						c0.2-10.6-5.8-22.5-20.6-22.5C272,320.7,265.8,332.7,266.1,343.4z"/>
					<path class="st1" d="M355.7,374.5h-12.3l-26.2-63.4h13.3l19,49.1l19.1-49.1h13.3L355.7,374.5z"/>
					<path class="st1" d="M417.8,362.4h-33l-5.4,11.9h-12.9l28.3-63.1h13l28.3,63.1h-13L417.8,362.4z M413,351.3l-11.7-26.9
						l-11.7,26.9H413z M416,291.9h-13l-6.7,12.3v0.5h9.7l9.9-12.3v-0.5H416z"/>
					<path class="st1" d="M461.7,374.5h-12.3l-26.2-63.4h13.3l19,49.1l19.1-49.1H488L461.7,374.5z"/>
					<path class="st1" d="M538.7,374.3h-47.2c0-21,0-42.1,0-63.1h47.2v11.5h-35.4v14.5h34.2v11.1h-34.2v14.2h35.4V374.3z"/>
					<path class="st1" d="M558,311.2v52.1h32.4v11h-44.3v-63.1H558z"/>
				</g>
				<g>
					<path class="st1" d="M108.3,112.3H77c0-13.9,0-27.9,0-41.8h31.3v7.6H84.8v9.6h22.6V95H84.8v9.4h23.5V112.3z"/>
					<path class="st1" d="M150.8,82l-13.6,18.2h-1.6L122.3,82v30.4h-7.9V70.6h9.1l13.1,18l13.1-18h9v41.8h-7.9L150.8,82L150.8,82z"
						/>
					<path class="st1" d="M185.8,100H174v12.3h-7.9V70.5c6.6,0,13.1-0.1,19.7-0.1C206.2,70.4,206.3,100,185.8,100z M174,92.8h11.8
						c10.1,0,10-14.8,0-14.8H174V92.8z"/>
					<path class="st1" d="M243.5,112.3h-9.4l-12.2-14h-7.6v14h-7.9V70.4c6.6,0,13.3,0.1,19.9,0.1c9.9,0.1,15,6.6,15,13.9
						c0,5.7-2.6,11.5-10.6,13.1l12.7,14.3v0.5H243.5z M214.4,77.8v13.4h12c5,0,7.2-3.3,7.2-6.7s-2.2-6.7-7.2-6.7
						C226.4,77.8,214.4,77.8,214.4,77.8z"/>
					<path class="st1" d="M277.9,112.3h-31.3c0-13.9,0-27.9,0-41.8h31.3v7.6h-23.5v9.6H277V95h-22.6v9.4h23.5V112.3z"/>
					<path class="st1" d="M311.1,80.6c-1.4-2.4-5.4-4.7-9.9-4.7c-5.9,0-8.7,2.4-8.7,5.6c0,3.6,4.3,4.7,9.3,5.3
						c8.7,1.1,16.8,3.3,16.8,13.3c0,9.3-8.2,13.3-17.6,13.3c-8.5,0-15.1-2.6-18.2-10.3l6.6-3.4c1.9,4.6,6.7,6.6,11.8,6.6
						c5,0,9.6-1.7,9.6-6.3c0-3.9-4.1-5.6-9.7-6.1c-8.5-1-16.4-3.3-16.4-12.7c0-8.6,8.5-12.1,16.2-12.2c6.5,0,13.3,1.9,16.4,8.3
						L311.1,80.6z"/>
					<path class="st1" d="M354.4,104.4h-21.9l-3.6,7.9h-8.5l18.7-41.8h8.6l18.7,41.8h-8.6L354.4,104.4z M343.5,79.3l-7.8,17.8h15.5
						L343.5,79.3z"/>
					<path class="st1" d="M113.5,144.5l-13.6,18.2h-1.6L85,144.5v30.4h-7.9V133h9.1l13.1,18l13.1-18h9v41.8h-7.9
						C113.5,174.8,113.5,144.5,113.5,144.5z"/>
					<path class="st1" d="M169.9,154.1c-0.1,10.8-6.7,21.6-21.4,21.6S127,165.1,127,154.2s7-22,21.5-22
						C162.9,132.1,170,143.2,169.9,154.1z M134.7,154.3c0.2,6.9,3.9,14.2,13.7,14.2c9.9,0,13.6-7.4,13.7-14.3
						c0.1-7-3.8-14.9-13.7-14.9C138.6,139.3,134.6,147.2,134.7,154.3z"/>
					<path class="st1" d="M196.5,174.9h-8.2l-17.4-42h8.8l12.6,32.5L205,133h8.8L196.5,174.9z"/>
					<path class="st1" d="M218.7,174.8V133h7.8v41.8H218.7z"/>
					<path class="st1" d="M270.8,153.5c0.2,10.6-6.3,21.3-20.9,21.3c-5.1,0-11.3,0-16.4,0V133c5.1,0,11.3,0,16.4,0
						C264.2,133,270.6,143.2,270.8,153.5z M241.3,167.2h8.6c9.5,0,13.3-6.9,13.1-13.7c-0.2-6.5-4-13-13.1-13h-8.6L241.3,167.2
						L241.3,167.2z"/>
					<path class="st1" d="M305.6,166.9h-21.9l-3.6,7.9h-8.5l18.7-41.8h8.6l18.7,41.8H309L305.6,166.9z M294.7,141.7l-7.8,17.8h15.5
						L294.7,141.7z"/>
					<path class="st1" d="M106.8,229.4H84.9l-3.6,7.9h-8.5l18.7-41.8h8.6l18.7,41.8h-8.6L106.8,229.4z M95.9,204.2L88.1,222h15.5
						L95.9,204.2z"/>
					<path class="st1" d="M165.1,237.2h-31.3c0-13.9,0-27.9,0-41.8h31.3v7.6h-23.5v9.6h22.6v7.3h-22.6v9.4h23.5V237.2z"/>
					<path class="st1" d="M199.9,195.4h7.9v41.9h-4.9v0.1l-22-28.2v28.2H173v-41.8h6.4l20.5,25.9V195.4z"/>
					<path class="st1" d="M246.2,237.2h-31.3c0-13.9,0-27.9,0-41.8h31.3v7.6h-23.5v9.6h22.6v7.3h-22.6v9.4h23.5V237.2z"/>
					<path class="st1" d="M289.3,237.2h-9.4l-12.2-14h-7.6v14h-7.9v-41.9c6.6,0,13.3,0.1,19.9,0.1c9.9,0.1,15,6.6,15,13.9
						c0,5.7-2.6,11.5-10.6,13.1l12.7,14.3v0.5H289.3z M260.2,202.8v13.4h12c5,0,7.2-3.3,7.2-6.7c0-3.3-2.2-6.7-7.2-6.7H260.2z"/>
					<path class="st1" d="M323.6,205.6c-2.8-2.7-7-4.2-10.6-4.2c-9,0-14.4,6.8-14.4,15.4c0,6.9,4,14,14.4,14c3.3,0,6.1-0.7,9.4-3.3
						v-7.4h-10.7v-7h17.9v17.6c-4.1,4.7-9.3,7.5-16.7,7.5c-15.7,0-22.1-10.3-22.1-21.3c0-11.8,7.3-22.6,22.1-22.6
						c5.6,0,11.2,2.1,15.5,6.4L323.6,205.6z"/>
					<path class="st1" d="M336.1,237.2v-41.8h7.8v41.8H336.1z"/>
					<path class="st1" d="M381,229.4h-21.9l-3.6,7.9H347l18.7-41.8h8.6l18.7,41.8h-8.6L381,229.4z M370.1,204.2l-7.8,17.8h15.5
						L370.1,204.2z"/>
				</g>
			</g>
			<g>
				<rect x="75.8" y="267.3" class="st1" width="318.6" height="11.1"/>
			</g>
		</g>
	</g>
	<g>
		<g>
			<g>
				<g>
					<g>
						<path class="st1" d="M907.1,233h17.4c2.4,0,4.3,1.9,4.3,4.3c0,2.4-1.9,4.3-4.3,4.3h-17.4c-2.4,0-4.3-1.9-4.3-4.3
							C902.9,234.9,904.8,233,907.1,233z"/>
					</g>
				</g>
				<g>
					<g>
						<path class="st1" d="M907.1,203.6h17.4c2.4,0,4.3,1.9,4.3,4.3s-1.9,4.3-4.3,4.3h-17.4c-2.4,0-4.3-1.9-4.3-4.3
							S904.8,203.6,907.1,203.6z"/>
					</g>
				</g>
				<g>
					<path class="st1" d="M898.5,254.5c0.8-0.8,1.3-1.9,1.3-3.1v-57.3c0-1.2-0.5-2.3-1.3-3.1s-1.9-1.2-3-1.2h-0.1l-26.3,0.7
						c-2.3,0.1-4.1,1.9-4.2,4.2c0,0-0.1,3-1.8,5.9c-2.1,3.6-5.7,5.5-10.8,5.8h-7.9c-2.4,0-4.3,1.9-4.3,4.3V235
						c0,2.4,1.9,4.3,4.3,4.3h7.9c5.2,0.3,8.7,2.2,10.8,5.8c1.7,2.9,1.8,5.8,1.8,5.8c0,2.3,1.9,4.1,4.2,4.2l26.3,0.7
						C896.6,255.8,897.7,255.3,898.5,254.5z M884.7,239.7v-33.3c0-1.4,1.2-2.6,2.6-2.6c1.4,0,2.6,1.2,2.6,2.6v33.3
						c0,1.4-1.2,2.6-2.6,2.6C885.8,242.3,884.7,241.1,884.7,239.7z"/>
				</g>
			</g>
		</g>
	</g>
	<g>
		<g>
			<path class="st1" d="M911.7,106l-0.3-2.2c-0.1-0.7-0.7-1.2-1.4-1.1l-29.4,4l-18.2-23.5c-0.2-0.3-0.5-0.4-0.8-0.5
				c-0.3,0-0.7,0-0.9,0.2l-1.7,1.3c-0.4,0.3-0.5,0.7-0.5,1.2c0,0.2,0.1,0.4,0.2,0.6l18.2,23.5L865.6,137c-0.1,0.2-0.1,0.4-0.1,0.6
				c0,0.1,0,0.2,0.1,0.3c0.1,0.3,0.4,0.5,0.7,0.7l2,0.8c0.6,0.3,1.4,0,1.6-0.7l11.3-27.5l29.4-4C911.3,107.3,911.8,106.6,911.7,106z
				 M880.3,110.2l-11.5,28.1l-2-0.8l2,0.8L880.3,110.2l30.1-4.1l-0.3-2.2l0,0l0.3,2.2L880.3,110.2z"/>
		</g>
		<g>
			<path class="st1" d="M879.6,151.6c-16,0-30.4-8.8-37.7-23c-5.2-10.1-6.2-21.6-2.7-32.3s10.9-19.6,21-24.8
				c6.1-3.1,12.6-4.7,19.4-4.7c16,0,30.4,8.8,37.7,23c5.2,10.1,6.2,21.6,2.7,32.3c-3.4,10.8-10.9,19.6-21,24.8
				C892.9,150,886.4,151.6,879.6,151.6z M879.5,67.9c-6.6,0-13,1.5-18.9,4.6c-9.8,5-17,13.6-20.4,24.1c-3.3,10.5-2.4,21.7,2.6,31.4
				c7.1,13.8,21.2,22.3,36.7,22.3c6.6,0,13-1.5,18.9-4.6c9.8-5,17-13.6,20.4-24.1c3.3-10.5,2.4-21.7-2.6-31.4
				C909.1,76.5,895.1,67.9,879.5,67.9z"/>
			<path class="st1" d="M879.6,153.1c-16.5,0-31.5-9.1-39.1-23.8c-5.4-10.4-6.4-22.3-2.8-33.5c3.6-11.2,11.3-20.3,21.7-25.7
				c6.3-3.2,13.1-4.9,20.1-4.9c16.5,0,31.5,9.1,39.1,23.8c5.4,10.4,6.4,22.3,2.8,33.5c-3.6,11.2-11.3,20.3-21.7,25.7
				C893.4,151.4,886.6,153.1,879.6,153.1z M879.5,69.4c-6.4,0-12.5,1.5-18.2,4.4c-9.4,4.9-16.4,13.1-19.6,23.2
				c-3.2,10.1-2.3,20.9,2.5,30.3c6.8,13.3,20.4,21.5,35.3,21.5c6.4,0,12.5-1.5,18.2-4.4c9.4-4.9,16.4-13.1,19.6-23.2
				c3.2-10.1,2.3-20.9-2.5-30.3C908,77.7,894.5,69.4,879.5,69.4z"/>
		</g>
	</g>
	<g>
		<g>
			<path class="st1" d="M879.6,379.5c-23.5,0-42.7-19.1-42.7-42.7s19.1-42.7,42.7-42.7c23.5,0,42.7,19.1,42.7,42.7
				S903.1,379.5,879.6,379.5z M879.6,295.4c-22.9,0-41.5,18.6-41.5,41.5s18.6,41.5,41.5,41.5s41.5-18.6,41.5-41.5
				S902.4,295.4,879.6,295.4z"/>
			<path class="st1" d="M879.6,381c-24.4,0-44.2-19.8-44.2-44.2c0-24.4,19.8-44.2,44.2-44.2s44.2,19.8,44.2,44.2
				C923.7,361.2,903.9,381,879.6,381z M879.6,296.9c-22,0-40,17.9-40,40s17.9,40,40,40s40-17.9,40-40S901.6,296.9,879.6,296.9z"/>
		</g>
		<g>
			<g>
				<path class="st1" d="M919.7,324.1c-2.2,0.3-4,2.3-4,4.6v12.1c0,1.2-1,2.2-2.2,2.2s-2.2-1-2.2-2.2v-5.2c0-2.6-2.1-4.7-4.7-4.7
					c-2.6,0-4.7,2.1-4.7,4.7v20.7c0,1.2-1,2.2-2.2,2.2s-2.2-1-2.2-2.2v-13.8c0-2.6-2.1-4.7-4.7-4.7l0,0l0,0c-2.6,0-4.7,2.1-4.7,4.7
					v7.8c0,1.2-1,2.2-2.2,2.2s-2.2-1-2.2-2.2v-28.5c0-2.6-2.1-4.7-4.7-4.7c-2.6,0-4.7,2.1-4.7,4.7v16.7c0,1.2-1,2.2-2.2,2.2
					s-2.2-1-2.2-2.2v-23.6c0-2.6-2.1-4.7-4.7-4.7c-2.6,0-4.7,2.1-4.7,4.7v30.5c0,1.2-1,2.2-2.2,2.2s-2.2-1-2.2-2.2v-9.8
					c0-2.6-2.1-4.7-4.7-4.7c-2.6,0-4.7,2.1-4.7,4.7v22.3c0,1.2-1,2.2-2.2,2.2c0.2,0.2,1.5,2.2,1.5,2.2c1.8-0.6,3.2-2.4,3.2-4.4
					v-22.3c0-1.2,1-2.2,2.2-2.2s2.2,1,2.2,2.2v9.8c0,2.6,2.1,4.7,4.7,4.7c2.6,0,4.7-2.1,4.7-4.7v-30.5c0-1.2,1-2.2,2.2-2.2
					s2.2,1,2.2,2.2v23.6c0,2.6,2.1,4.7,4.7,4.7c2.6,0,4.7-2.1,4.7-4.7v-16.7c0-1.2,1-2.2,2.2-2.2s2.2,1,2.2,2.2v28.5
					c0,2.6,2.1,4.7,4.7,4.7c2.6,0,4.7-2.1,4.7-4.7v-7.8c0-1.2,1-2.2,2.2-2.2s2.2,1,2.2,2.2v13.8c0,2.6,2.1,4.7,4.7,4.7
					c2.6,0,4.7-2.1,4.7-4.7v-20.7c0-1.2,1-2.2,2.2-2.2s2.2,1,2.2,2.2v5.2c0,2.6,2.1,4.7,4.7,4.7c2.6,0,4.7-2.1,4.7-4.7v-12.1
					c0-1.2,1-2.2,2.2-2.2C920.4,326.5,919.9,324,919.7,324.1z"/>
			</g>
		</g>
	</g>
	<g>
		<g>
			<path class="st1" d="M766,265.7c-23.5,0-42.6-19.1-42.6-42.6s19.1-42.6,42.6-42.6s42.6,19.1,42.6,42.6S789.5,265.7,766,265.7z
				 M766,181.8c-22.8,0-41.4,18.6-41.4,41.4s18.6,41.4,41.4,41.4c22.8,0,41.4-18.6,41.4-41.4S788.8,181.8,766,181.8z"/>
			<path class="st1" d="M766,267.2c-24.3,0-44.1-19.8-44.1-44.1S741.7,179,766,179s44.1,19.8,44.1,44.1
				C810.1,247.5,790.3,267.2,766,267.2z M766,183.3c-22,0-39.9,17.9-39.9,39.9s17.9,39.9,39.9,39.9s39.9-17.9,39.9-39.9
				S788,183.3,766,183.3z"/>
		</g>
		<g>
			<path class="st1" d="M774.7,226.5c-1,1.3-2.8,2.7-5.8,2.2c0,0-3.2-3.1-4.1-8.3c8.2-12.7-7.5-19.9-7.5-19.9
				c-5.9,15.4,2.8,19.2,6.1,20.1c0.4,1.7,1.7,5.8,4.3,9c0,0-2.6-3-6.4-3.5c-9.3-12-21.4,0.5-21.4,0.5s9.3,9.9,17.7,4.1
				c1.5-1,2.6-2.2,3.2-3.2c2.4,0.6,5.3,1.9,7.7,5c0,0,3.6,7.7,10.5,11.7c0,0,1.1,1.2,1.8-0.9c0,0-10.2-7-10.7-12.8
				c0,0,4-0.4,6.2-3.2c14.3-3,8.9-19,8.9-19C767,215.4,774.7,226.5,774.7,226.5z"/>
		</g>
	</g>
	<g>
		<g>
			<path class="st1" d="M994.1,265.4c-23.4,0-42.5-19.1-42.5-42.5s19.1-42.5,42.5-42.5s42.5,19.1,42.5,42.5
				S1017.5,265.4,994.1,265.4z M994.1,181.7c-22.8,0-41.3,18.5-41.3,41.3s18.5,41.3,41.3,41.3s41.3-18.5,41.3-41.3
				S1016.8,181.7,994.1,181.7z"/>
			<path class="st1" d="M994.1,266.9c-24.2,0-44-19.7-44-44s19.7-44,44-44s44,19.7,44,44S1018.3,266.9,994.1,266.9z M994.1,183.2
				c-21.9,0-39.8,17.8-39.8,39.8c0,21.9,17.8,39.8,39.8,39.8s39.8-17.8,39.8-39.8C1033.8,201,1016,183.2,994.1,183.2z"/>
		</g>
		<g>
			<g>
				
					<ellipse transform="matrix(0.6088 -0.7933 0.7933 0.6088 214.9366 861.8567)" class="st1" cx="981.4" cy="213" rx="0.9" ry="0.9"/>
			</g>
			<g>
				<ellipse transform="matrix(0.7934 -0.6087 0.6087 0.7934 74.2265 644.4872)" class="st1" cx="986.5" cy="212.9" rx="1" ry="1"/>
			</g>
			<g>
				<ellipse transform="matrix(0.5 -0.866 0.866 0.5 304.1576 961.5966)" class="st1" cx="984.9" cy="217.4" rx="1" ry="1"/>
			</g>
			<g>
				<ellipse transform="matrix(0.707 -0.7072 0.7072 0.707 137.874 758.1786)" class="st1" cx="984" cy="212.7" rx="0.9" ry="0.9"/>
			</g>
			<g>
				
					<ellipse transform="matrix(0.5001 -0.866 0.866 0.5001 304.0922 958.0073)" class="st1" cx="981.8" cy="215.6" rx="0.9" ry="0.9"/>
			</g>
			<g>
				<ellipse transform="matrix(0.3826 -0.9239 0.9239 0.3826 405.1906 1042.3475)" class="st1" cx="982.5" cy="218" rx="1" ry="1"/>
			</g>
			<g>
				
					<ellipse transform="matrix(0.6088 -0.7933 0.7933 0.6088 214.3355 864.8801)" class="st1" cx="984.1" cy="215.1" rx="1" ry="1"/>
			</g>
			<g>
				<ellipse transform="matrix(0.866 -0.5 0.5 0.866 26.9869 521.7062)" class="st1" cx="987" cy="210.5" rx="0.9" ry="0.9"/>
			</g>
			<g>
				
					<ellipse transform="matrix(0.2589 -0.9659 0.9659 0.2589 509.6403 1130.0626)" class="st1" cx="991.2" cy="232.9" rx="1" ry="1"/>
			</g>
			<g>
				<ellipse transform="matrix(0.1306 -0.9914 0.9914 0.1306 629.712 1188.1885)" class="st1" cx="992.3" cy="235" rx="1" ry="1"/>
			</g>
			<g>
				
					<ellipse transform="matrix(0.9659 -0.2589 0.2589 0.9659 -21.2051 263.8919)" class="st1" cx="991.3" cy="212.5" rx="1" ry="1"/>
			</g>
			<g>
				
					<ellipse transform="matrix(0.9659 -0.2588 0.2588 0.9659 -20.3574 263.4382)" class="st1" cx="990.4" cy="209" rx="0.9" ry="0.9"/>
			</g>
			<g>
				<ellipse transform="matrix(0.9239 -0.3827 0.3827 0.9239 -5.5029 394.6725)" class="st1" cx="989.3" cy="211.2" rx="1" ry="1"/>
			</g>
			<g>
				
					<ellipse transform="matrix(0.9238 -0.3828 0.3828 0.9238 -4.3749 394.0153)" class="st1" cx="987.9" cy="208" rx="0.9" ry="0.9"/>
			</g>
			<g>
				<ellipse transform="matrix(0.866 -0.5001 0.5001 0.866 18.0168 523.0902)" class="st1" cx="984.9" cy="227.9" rx="1" ry="1"/>
			</g>
			<g>
				<ellipse transform="matrix(0.7933 -0.6088 0.6088 0.7933 63.2147 646.7866)" class="st1" cx="984.2" cy="230.3" rx="1" ry="1"/>
			</g>
			<g>
				
					<ellipse transform="matrix(0.9659 -0.2588 0.2588 0.9659 -24.8507 262.2948)" class="st1" cx="983.8" cy="225.5" rx="1" ry="1"/>
			</g>
			<g>
				<ellipse transform="matrix(0.2588 -0.9659 0.9659 0.2588 516.6938 1113.3428)" class="st1" cx="983.8" cy="220" rx="1" ry="1"/>
			</g>
			<g>
				<ellipse transform="matrix(0.5 -0.866 0.866 0.5 290.0177 972.1821)" class="st1" cx="987" cy="234.9" rx="0.9" ry="0.9"/>
			</g>
			<g>
				
					<ellipse transform="matrix(0.2589 -0.9659 0.9659 0.2589 515.0142 1109.3621)" class="st1" cx="980.4" cy="219.1" rx="0.9" ry="0.9"/>
			</g>
			<g>
				
					<ellipse transform="matrix(0.7071 -0.7071 0.7071 0.7071 136.7522 760.5793)" class="st1" cx="986.5" cy="215.2" rx="1" ry="1"/>
			</g>
			<g>
				
					<ellipse transform="matrix(0.6088 -0.7933 0.7933 0.6088 201.4121 873.5714)" class="st1" cx="986.5" cy="232.6" rx="1" ry="1"/>
			</g>
			<g>
				<ellipse transform="matrix(0.5 -0.866 0.866 0.5 304.0671 954.5687)" class="st1" cx="978.7" cy="214" rx="0.8" ry="0.8"/>
			</g>
			<g>
				
					<ellipse transform="matrix(0.3827 -0.9239 0.9239 0.3827 404.4443 1038.4417)" class="st1" cx="979.3" cy="216.6" rx="0.9" ry="0.9"/>
			</g>
			<g>
				<circle class="st1" cx="979.9" cy="222.7" r="0.9"/>
			</g>
			<g>
				
					<ellipse transform="matrix(0.1306 -0.9914 0.9914 0.1306 634.2515 1165.5277)" class="st1" cx="981.7" cy="221.1" rx="1" ry="1"/>
			</g>
			<g>
				
					<ellipse transform="matrix(0.9914 -0.1305 0.1305 0.9914 -20.8734 130.0295)" class="st1" cx="981.7" cy="224.3" rx="1" ry="1"/>
			</g>
			<g>
				<circle class="st1" cx="983.4" cy="222.7" r="1"/>
			</g>
			<g>
				<ellipse transform="matrix(0.5 -0.866 0.866 0.5 304.1288 989.7661)" class="st1" cx="1009.2" cy="231.5" rx="0.8" ry="0.8"/>
			</g>
			<g>
				
					<ellipse transform="matrix(0.2589 -0.9659 0.9659 0.2589 529.812 1144.993)" class="st1" cx="1011.1" cy="227.2" rx="0.8" ry="0.8"/>
			</g>
			<g>
				
					<ellipse transform="matrix(0.7071 -0.7072 0.7072 0.7071 126.5065 785.6862)" class="st1" cx="1011.6" cy="240.2" rx="0.7" ry="0.7"/>
			</g>
			<g>
				<circle class="st1" cx="994" cy="243.9" r="0.8"/>
			</g>
			<g>
				<circle class="st1" cx="994" cy="247.4" r="0.7"/>
			</g>
			<g>
				<circle class="st1" cx="994" cy="240.3" r="0.8"/>
			</g>
			<g>
				
					<ellipse transform="matrix(0.3827 -0.9239 0.9239 0.3827 412.1119 1077.066)" class="st1" cx="1012" cy="230.1" rx="0.8" ry="0.8"/>
			</g>
			<g>
				
					<ellipse transform="matrix(0.9659 -0.2588 0.2588 0.9659 -28.5312 271.309)" class="st1" cx="1016.2" cy="244" rx="0.7" ry="0.7"/>
			</g>
			<g>
				
					<ellipse transform="matrix(0.966 -0.2587 0.2587 0.966 -29.4183 270.2888)" class="st1" cx="1012.2" cy="246.9" rx="0.7" ry="0.7"/>
			</g>
			<g>
				
					<ellipse transform="matrix(0.6088 -0.7933 0.7933 0.6088 208.22 895.6157)" class="st1" cx="1012.2" cy="236.7" rx="0.8" ry="0.8"/>
			</g>
			<g>
				
					<ellipse transform="matrix(0.9659 -0.2588 0.2588 0.9659 -26.8235 271.2402)" class="st1" cx="1016.8" cy="237.5" rx="0.7" ry="0.7"/>
			</g>
			<g>
				
					<ellipse transform="matrix(0.5001 -0.866 0.866 0.5001 304.0433 993.3479)" class="st1" cx="1012.4" cy="233.3" rx="0.8" ry="0.8"/>
			</g>
			<g>
				
					<ellipse transform="matrix(0.7071 -0.7071 0.7071 0.7071 126.1581 764.9714)" class="st1" cx="986.5" cy="230.2" rx="1" ry="1"/>
			</g>
			<g>
				<ellipse transform="matrix(0.866 -0.5 0.5 0.866 14.0724 519.1108)" class="st1" cx="975.7" cy="233.3" rx="0.8" ry="0.8"/>
			</g>
			<g>
				
					<ellipse transform="matrix(0.4999 -0.8661 0.8661 0.4999 304.2224 947.5966)" class="st1" cx="972.6" cy="210.4" rx="0.7" ry="0.7"/>
			</g>
			<g>
				
					<ellipse transform="matrix(0.1306 -0.9914 0.9914 0.1306 626.5013 1153.9758)" class="st1" cx="971.2" cy="219.8" rx="0.8" ry="0.8"/>
			</g>
			<g>
				
					<ellipse transform="matrix(0.7071 -0.7071 0.7071 0.7071 140.1079 746.3446)" class="st1" cx="971" cy="204" rx="0.8" ry="0.8"/>
			</g>
			<g>
				
					<ellipse transform="matrix(0.2588 -0.9659 0.9659 0.2588 510.1246 1097.3771)" class="st1" cx="970.1" cy="216.3" rx="0.7" ry="0.7"/>
			</g>
			<g>
				
					<ellipse transform="matrix(0.9659 -0.2588 0.2588 0.9659 -25.8973 259.7442)" class="st1" cx="973.6" cy="228.2" rx="0.8" ry="0.8"/>
			</g>
			<g>
				<circle class="st1" cx="972.8" cy="222.7" r="0.8"/>
			</g>
			<g>
				
					<ellipse transform="matrix(0.2589 -0.9659 0.9659 0.2589 511.7048 1101.3129)" class="st1" cx="973.5" cy="217.2" rx="0.8" ry="0.8"/>
			</g>
			<g>
				<ellipse transform="matrix(0.866 -0.5 0.5 0.866 24.4926 512.4022)" class="st1" cx="968.4" cy="210.5" rx="0.7" ry="0.7"/>
			</g>
			<g>
				
					<ellipse transform="matrix(0.1304 -0.9915 0.9915 0.1304 629.3656 1157.8197)" class="st1" cx="974.7" cy="220.1" rx="0.8" ry="0.8"/>
			</g>
			<g>
				
					<ellipse transform="matrix(0.9238 -0.3828 0.3828 0.9238 -13.7941 391.1591)" class="st1" cx="976" cy="230.2" rx="0.8" ry="0.8"/>
			</g>
			<g>
				
					<ellipse transform="matrix(0.7933 -0.6088 0.6088 0.7933 57.5701 642.9829)" class="st1" cx="975.8" cy="236.7" rx="0.8" ry="0.8"/>
			</g>
			<g>
				<circle class="st1" cx="976.4" cy="222.7" r="0.8"/>
			</g>
			<g>
				<circle class="st1" cx="969.3" cy="222.7" r="0.7"/>
			</g>
			<g>
				
					<ellipse transform="matrix(0.9659 -0.2588 0.2588 0.9659 -26.2409 258.8932)" class="st1" cx="970.2" cy="229.1" rx="0.7" ry="0.7"/>
			</g>
			<g>
				
					<ellipse transform="matrix(0.9914 -0.1305 0.1305 0.9914 -21.1544 128.6713)" class="st1" cx="971.1" cy="225.7" rx="0.8" ry="0.8"/>
			</g>
			<g>
				<circle class="st1" cx="970.6" cy="238.9" r="0.7"/>
			</g>
			<g>
				
					<ellipse transform="matrix(0.9914 -0.1305 0.1305 0.9914 -22.5051 128.4333)" class="st1" cx="968.7" cy="235.9" rx="0.8" ry="0.8"/>
			</g>
			<g>
				
					<ellipse transform="matrix(0.9659 -0.2588 0.2588 0.9659 -27.1272 258.9066)" class="st1" cx="969.8" cy="232.5" rx="0.7" ry="0.7"/>
			</g>
			<g>
				<ellipse transform="matrix(0.866 -0.5 0.5 0.866 16.3415 513.9955)" class="st1" cx="967.3" cy="226.5" rx="0.7" ry="0.7"/>
			</g>
			<g>
				
					<ellipse transform="matrix(0.9239 -0.3827 0.3827 0.9239 -14.4207 387.6666)" class="st1" cx="967.2" cy="230.1" rx="0.8" ry="0.8"/>
			</g>
			<g>
				
					<ellipse transform="matrix(0.1304 -0.9915 0.9915 0.1304 622.2919 1193.3749)" class="st1" cx="991.4" cy="241.9" rx="0.8" ry="0.8"/>
			</g>
			<g>
				
					<ellipse transform="matrix(0.1306 -0.9914 0.9914 0.1306 625.8111 1190.8256)" class="st1" cx="991.9" cy="238.6" rx="0.9" ry="0.9"/>
			</g>
			<g>
				
					<ellipse transform="matrix(0.2588 -0.9659 0.9659 0.2588 505.7921 1131.8975)" class="st1" cx="990.4" cy="236.4" rx="0.9" ry="0.9"/>
			</g>
			<g>
				
					<ellipse transform="matrix(0.3827 -0.9239 0.9239 0.3827 390.4837 1059.2334)" class="st1" cx="987.9" cy="237.4" rx="0.9" ry="0.9"/>
			</g>
			<g>
				<ellipse transform="matrix(0.866 -0.5 0.5 0.866 25.6942 522.9528)" class="st1" cx="988.7" cy="213.5" rx="1" ry="1"/>
			</g>
			<g>
				
					<ellipse transform="matrix(0.3827 -0.9239 0.9239 0.3827 394.3936 1058.5593)" class="st1" cx="989.3" cy="234.2" rx="1" ry="1"/>
			</g>
			<g>
				
					<ellipse transform="matrix(0.2588 -0.9659 0.9659 0.2588 501.7093 1133.4846)" class="st1" cx="989.4" cy="239.8" rx="0.8" ry="0.8"/>
			</g>
			<g>
				
					<ellipse transform="matrix(0.2589 -0.9659 0.9659 0.2589 497.7045 1135.0999)" class="st1" cx="988.6" cy="243.2" rx="0.8" ry="0.8"/>
			</g>
			<g>
				
					<ellipse transform="matrix(0.1306 -0.9914 0.9914 0.1306 618.1201 1196.0299)" class="st1" cx="991" cy="245.6" rx="0.8" ry="0.8"/>
			</g>
			<g>
				<ellipse transform="matrix(0.5001 -0.866 0.866 0.5001 293.4676 972.1844)" class="st1" cx="988.8" cy="231.9" rx="1" ry="1"/>
			</g>
			<g>
				
					<ellipse transform="matrix(0.3828 -0.9238 0.9238 0.3828 403.4774 1034.6195)" class="st1" cx="976.1" cy="215.3" rx="0.8" ry="0.8"/>
			</g>
			<g>
				<ellipse transform="matrix(0.5 -0.866 0.866 0.5 304.126 950.9865)" class="st1" cx="975.7" cy="212.1" rx="0.8" ry="0.8"/>
			</g>
			<g>
				
					<ellipse transform="matrix(0.9239 -0.3827 0.3827 0.9239 -14.526 389.907)" class="st1" cx="972.8" cy="231.5" rx="0.8" ry="0.8"/>
			</g>
			<g>
				
					<ellipse transform="matrix(0.6087 -0.7934 0.7934 0.6087 220.1207 852.4325)" class="st1" cx="974.3" cy="203.1" rx="0.8" ry="0.8"/>
			</g>
			<g>
				
					<ellipse transform="matrix(0.7071 -0.7071 0.7071 0.7071 139.028 748.9166)" class="st1" cx="973.5" cy="206.6" rx="0.7" ry="0.7"/>
			</g>
			<g>
				
					<ellipse transform="matrix(0.7071 -0.7071 0.7071 0.7071 140.8841 750.5655)" class="st1" cx="976.5" cy="205.2" rx="0.7" ry="0.7"/>
			</g>
			<g>
				
					<ellipse transform="matrix(0.3827 -0.9239 0.9239 0.3827 402.9348 1030.6957)" class="st1" cx="972.7" cy="213.8" rx="0.8" ry="0.8"/>
			</g>
			<g>
				
					<ellipse transform="matrix(0.2587 -0.966 0.966 0.2587 494.0004 1136.8422)" class="st1" cx="987.7" cy="246.6" rx="0.7" ry="0.7"/>
			</g>
			<g>
				
					<ellipse transform="matrix(0.3827 -0.9239 0.9239 0.3827 386.7046 1059.9971)" class="st1" cx="986.6" cy="240.6" rx="0.8" ry="0.8"/>
			</g>
			<g>
				
					<ellipse transform="matrix(0.7934 -0.6087 0.6087 0.7934 61.3009 645.3753)" class="st1" cx="981.4" cy="232.4" rx="0.9" ry="0.9"/>
			</g>
			<g>
				
					<ellipse transform="matrix(0.9659 -0.2588 0.2588 0.9659 -25.1764 261.4407)" class="st1" cx="980.4" cy="226.3" rx="0.9" ry="0.9"/>
			</g>
			<g>
				
					<ellipse transform="matrix(0.2588 -0.9659 0.9659 0.2588 513.3871 1105.3104)" class="st1" cx="976.9" cy="218.1" rx="0.8" ry="0.8"/>
			</g>
			<g>
				
					<ellipse transform="matrix(0.1306 -0.9914 0.9914 0.1306 631.6385 1161.6271)" class="st1" cx="978.2" cy="220.7" rx="0.9" ry="0.9"/>
			</g>
			<g>
				<circle class="st1" cx="1008.1" cy="222.7" r="0.9"/>
			</g>
			<g>
				<ellipse transform="matrix(0.5 -0.866 0.866 0.5 318.2475 972.2062)" class="st1" cx="1001.1" cy="210.5" rx="0.9" ry="0.9"/>
			</g>
			<g>
				<circle class="st1" cx="994" cy="233.3" r="1"/>
			</g>
			<g>
				
					<ellipse transform="matrix(0.3827 -0.9239 0.9239 0.3827 425.2517 1052.3678)" class="st1" cx="1000.1" cy="208" rx="0.9" ry="0.9"/>
			</g>
			<g>
				
					<ellipse transform="matrix(0.3827 -0.9239 0.9239 0.3827 421.4494 1053.069)" class="st1" cx="998.7" cy="211.2" rx="1" ry="1"/>
			</g>
			<g>
				
					<ellipse transform="matrix(0.2588 -0.9659 0.9659 0.2588 533.5656 1120.2736)" class="st1" cx="996.8" cy="212.5" rx="1" ry="1"/>
			</g>
			<g>
				<circle class="st1" cx="994" cy="212.1" r="1"/>
			</g>
			<g>
				<ellipse transform="matrix(0.9914 -0.1306 0.1306 0.9914 -22.16 132.0379)" class="st1" cx="995.6" cy="235" rx="1" ry="1"/>
			</g>
			<g>
				
					<ellipse transform="matrix(0.2589 -0.9659 0.9659 0.2589 537.4724 1118.6306)" class="st1" cx="997.7" cy="209.1" rx="0.9" ry="0.9"/>
			</g>
			<g>
				<ellipse transform="matrix(0.9239 -0.3827 0.3827 0.9239 -6.8659 401.3998)" class="st1" cx="1005.5" cy="218" rx="1" ry="1"/>
			</g>
			<g>
				
					<ellipse transform="matrix(0.7071 -0.7071 0.7071 0.7071 143.6625 772.1957)" class="st1" cx="1004" cy="212.7" rx="0.9" ry="0.9"/>
			</g>
			<g>
				
					<ellipse transform="matrix(0.6088 -0.7933 0.7933 0.6088 222.9362 877.8769)" class="st1" cx="1001.6" cy="212.9" rx="1" ry="1"/>
			</g>
			<g>
				<ellipse transform="matrix(0.866 -0.5 0.5 0.866 26.9936 531.978)" class="st1" cx="1006.2" cy="215.6" rx="0.9" ry="0.9"/>
			</g>
			<g>
				
					<ellipse transform="matrix(0.6088 -0.7933 0.7933 0.6088 225.9483 878.4928)" class="st1" cx="1003.7" cy="210.1" rx="0.9" ry="0.9"/>
			</g>
			<g>
				<ellipse transform="matrix(0.5 -0.866 0.866 0.5 321.7188 972.1231)" class="st1" cx="1002.8" cy="207.4" rx="0.8" ry="0.8"/>
			</g>
			<g>
				
					<ellipse transform="matrix(0.9659 -0.2588 0.2588 0.9659 -31.0221 265.7361)" class="st1" cx="993.8" cy="250.7" rx="0.7" ry="0.7"/>
			</g>
			<g>
				<circle class="st1" cx="994" cy="236.8" r="0.9"/>
			</g>
			<g>
				
					<ellipse transform="matrix(0.7934 -0.6087 0.6087 0.7934 78.329 656.7879)" class="st1" cx="1006.7" cy="213" rx="0.9" ry="0.9"/>
			</g>
			<g>
				<circle class="st1" cx="1015.2" cy="222.7" r="0.8"/>
			</g>
			<g>
				
					<ellipse transform="matrix(0.7934 -0.6088 0.6088 0.7934 80.2811 658.1572)" class="st1" cx="1009.6" cy="210.8" rx="0.8" ry="0.8"/>
			</g>
			<g>
				
					<ellipse transform="matrix(0.8661 -0.4999 0.4999 0.8661 28.2332 533.199)" class="st1" cx="1009.3" cy="213.9" rx="0.8" ry="0.8"/>
			</g>
			<g>
				
					<ellipse transform="matrix(0.9659 -0.2589 0.2589 0.9659 -22.0025 269.2086)" class="st1" cx="1011.1" cy="218.1" rx="0.8" ry="0.8"/>
			</g>
			<g>
				<circle class="st1" cx="1011.7" cy="222.7" r="0.8"/>
			</g>
			<g>
				
					<ellipse transform="matrix(0.9659 -0.2588 0.2588 0.9659 -22.3719 268.26)" class="st1" cx="1007.7" cy="219.1" rx="0.9" ry="0.9"/>
			</g>
			<g>
				
					<ellipse transform="matrix(0.9239 -0.3827 0.3827 0.9239 -6.1133 402.5204)" class="st1" cx="1008.7" cy="216.6" rx="0.9" ry="0.9"/>
			</g>
			<g>
				
					<ellipse transform="matrix(0.3827 -0.9239 0.9239 0.3827 412.9109 1080.8438)" class="st1" cx="1015.3" cy="231.4" rx="0.8" ry="0.8"/>
			</g>
			<g>
				
					<ellipse transform="matrix(0.5001 -0.866 0.866 0.5001 304.1014 996.7559)" class="st1" cx="1015.4" cy="235" rx="0.7" ry="0.7"/>
			</g>
			<g>
				
					<ellipse transform="matrix(0.2588 -0.9659 0.9659 0.2588 533.1324 1152.9849)" class="st1" cx="1017.9" cy="229.1" rx="0.7" ry="0.7"/>
			</g>
			<g>
				
					<ellipse transform="matrix(0.1306 -0.9914 0.9914 0.1306 657.6309 1200.5912)" class="st1" cx="1013.4" cy="225.3" rx="0.8" ry="0.8"/>
			</g>
			<g>
				
					<ellipse transform="matrix(0.2587 -0.966 0.966 0.2587 531.6982 1149.0408)" class="st1" cx="1014.5" cy="228.1" rx="0.8" ry="0.8"/>
			</g>
			<g>
				
					<ellipse transform="matrix(0.7071 -0.7071 0.7071 0.7071 146.1556 773.2363)" class="st1" cx="1006.5" cy="210.2" rx="0.8" ry="0.8"/>
			</g>
			<g>
				
					<ellipse transform="matrix(0.7072 -0.707 0.707 0.7072 127.3629 782.9841)" class="st1" cx="1009" cy="237.7" rx="0.8" ry="0.8"/>
			</g>
			<g>
				
					<ellipse transform="matrix(0.7933 -0.6088 0.6088 0.7933 62.9234 661.6061)" class="st1" cx="1005.9" cy="238.1" rx="0.8" ry="0.8"/>
			</g>
			<g>
				<ellipse transform="matrix(0.5 -0.866 0.866 0.5 304.0736 986.3468)" class="st1" cx="1006.3" cy="229.8" rx="0.9" ry="0.9"/>
			</g>
			<g>
				<ellipse transform="matrix(0.866 -0.5 0.5 0.866 14.106 534.5642)" class="st1" cx="1004.5" cy="241" rx="0.8" ry="0.8"/>
			</g>
			<g>
				
					<ellipse transform="matrix(0.7071 -0.7071 0.7071 0.7071 128.4867 780.5864)" class="st1" cx="1006.5" cy="235.2" rx="0.8" ry="0.8"/>
			</g>
			<g>
				
					<ellipse transform="matrix(0.1305 -0.9914 0.9914 0.1305 652.4755 1192.8085)" class="st1" cx="1006.3" cy="224.4" rx="1" ry="1"/>
			</g>
			<g>
				
					<ellipse transform="matrix(0.6087 -0.7934 0.7934 0.6087 209.5479 889.5984)" class="st1" cx="1006.6" cy="232.4" rx="0.9" ry="0.9"/>
			</g>
			<g>
				<ellipse transform="matrix(0.866 -0.5 0.5 0.866 12.776 535.9071)" class="st1" cx="1006.4" cy="244.1" rx="0.7" ry="0.7"/>
			</g>
			<g>
				
					<ellipse transform="matrix(0.9914 -0.1305 0.1305 0.9914 -23.0551 132.1255)" class="st1" cx="996.7" cy="242" rx="0.8" ry="0.8"/>
			</g>
			<g>
				
					<ellipse transform="matrix(0.9914 -0.1305 0.1305 0.9914 -23.5169 132.2075)" class="st1" cx="996.9" cy="245.5" rx="0.8" ry="0.8"/>
			</g>
			<g>
				
					<ellipse transform="matrix(0.9239 -0.3826 0.3826 0.9239 -17.0701 402.2479)" class="st1" cx="1002.8" cy="244" rx="0.8" ry="0.8"/>
			</g>
			<g>
				
					<ellipse transform="matrix(0.9239 -0.3827 0.3827 0.9239 -15.8813 401.5991)" class="st1" cx="1001.5" cy="240.7" rx="0.8" ry="0.8"/>
			</g>
			<g>
				
					<ellipse transform="matrix(0.3826 -0.9239 0.9239 0.3826 410.6336 1069.4916)" class="st1" cx="1005.5" cy="227.5" rx="1" ry="1"/>
			</g>
			<g>
				
					<ellipse transform="matrix(0.6087 -0.7934 0.7934 0.6087 210.1557 886.5592)" class="st1" cx="1003.9" cy="230.2" rx="1" ry="1"/>
			</g>
			<g>
				
					<ellipse transform="matrix(0.7071 -0.7071 0.7071 0.7071 129.5325 778.0652)" class="st1" cx="1004" cy="232.7" rx="0.9" ry="0.9"/>
			</g>
			<g>
				
					<ellipse transform="matrix(0.2589 -0.9659 0.9659 0.2589 528.1921 1141.0909)" class="st1" cx="1007.7" cy="226.3" rx="0.9" ry="0.9"/>
			</g>
			<g>
				
					<ellipse transform="matrix(0.6088 -0.7933 0.7933 0.6088 208.7937 892.6526)" class="st1" cx="1009.5" cy="234.6" rx="0.8" ry="0.8"/>
			</g>
			<g>
				
					<ellipse transform="matrix(0.1306 -0.9914 0.9914 0.1306 655.0107 1196.6722)" class="st1" cx="1009.8" cy="224.9" rx="0.9" ry="0.9"/>
			</g>
			<g>
				
					<ellipse transform="matrix(0.3827 -0.9239 0.9239 0.3827 411.2891 1073.2527)" class="st1" cx="1008.8" cy="228.9" rx="0.9" ry="0.9"/>
			</g>
			<g>
				
					<ellipse transform="matrix(0.4999 -0.8661 0.8661 0.4999 304.2796 982.836)" class="st1" cx="1003.2" cy="227.9" rx="1" ry="1"/>
			</g>
			<g>
				
					<ellipse transform="matrix(0.2588 -0.9659 0.9659 0.2588 526.4998 1137.194)" class="st1" cx="1004.3" cy="225.5" rx="1" ry="1"/>
			</g>
			<g>
				
					<ellipse transform="matrix(0.7071 -0.7071 0.7071 0.7071 130.5202 775.6254)" class="st1" cx="1001.5" cy="230.3" rx="1" ry="1"/>
			</g>
			<g>
				
					<ellipse transform="matrix(0.7933 -0.6088 0.6088 0.7933 65.4126 657.8577)" class="st1" cx="1001.6" cy="232.6" rx="1" ry="1"/>
			</g>
			<g>
				<ellipse transform="matrix(0.866 -0.5 0.5 0.866 15.3358 533.2969)" class="st1" cx="1002.8" cy="238" rx="0.8" ry="0.8"/>
			</g>
			<g>
				
					<ellipse transform="matrix(0.7934 -0.6088 0.6088 0.7934 64.1393 659.7065)" class="st1" cx="1003.8" cy="235.4" rx="0.9" ry="0.9"/>
			</g>
			<g>
				<ellipse transform="matrix(0.7934 -0.6087 0.6087 0.7934 76.4549 655.507)" class="st1" cx="1003.9" cy="215.1" rx="1" ry="1"/>
			</g>
			<g>
				<ellipse transform="matrix(0.9659 -0.2588 0.2588 0.9659 -22.7163 267.3831)" class="st1" cx="1004.2" cy="220" rx="1" ry="1"/>
			</g>
			<g>
				<circle class="st1" cx="1004.6" cy="222.7" r="1"/>
			</g>
			<g>
				
					<ellipse transform="matrix(0.9914 -0.1305 0.1305 0.9914 -20.2466 133.2132)" class="st1" cx="1006.4" cy="221.1" rx="1" ry="1"/>
			</g>
			<g>
				<ellipse transform="matrix(0.866 -0.5 0.5 0.866 16.6652 532.0135)" class="st1" cx="1001.1" cy="234.9" rx="0.9" ry="0.9"/>
			</g>
			<g>
				
					<ellipse transform="matrix(0.7071 -0.7071 0.7071 0.7071 141.1546 771.1766)" class="st1" cx="1001.5" cy="215.2" rx="1" ry="1"/>
			</g>
			<g>
				<ellipse transform="matrix(0.8661 -0.4999 0.4999 0.8661 25.66 530.6141)" class="st1" cx="1003.2" cy="217.4" rx="1" ry="1"/>
			</g>
			<g>
				<ellipse transform="matrix(0.5 -0.866 0.866 0.5 314.6887 972.1293)" class="st1" cx="999.2" cy="213.5" rx="1" ry="1"/>
			</g>
			<g>
				
					<ellipse transform="matrix(0.7933 -0.6088 0.6088 0.7933 61.6053 663.5057)" class="st1" cx="1008" cy="241" rx="0.8" ry="0.8"/>
			</g>
			<g>
				
					<ellipse transform="matrix(0.9914 -0.1305 0.1305 0.9914 -20.1487 133.665)" class="st1" cx="1009.9" cy="220.6" rx="0.9" ry="0.9"/>
			</g>
			<g>
				
					<ellipse transform="matrix(0.9239 -0.3827 0.3827 0.9239 -14.7217 400.8044)" class="st1" cx="1000.1" cy="237.4" rx="0.9" ry="0.9"/>
			</g>
			<g>
				
					<ellipse transform="matrix(0.9659 -0.2589 0.2589 0.9659 -29.7226 267.4117)" class="st1" cx="1000.4" cy="246.6" rx="0.7" ry="0.7"/>
			</g>
			<g>
				
					<ellipse transform="matrix(0.9659 -0.2588 0.2588 0.9659 -28.044 266.6112)" class="st1" cx="998.6" cy="239.8" rx="0.8" ry="0.8"/>
			</g>
			<g>
				
					<ellipse transform="matrix(0.9659 -0.2589 0.2589 0.9659 -28.8876 267.0654)" class="st1" cx="999.5" cy="243.2" rx="0.8" ry="0.8"/>
			</g>
			<g>
				<ellipse transform="matrix(0.866 -0.5 0.5 0.866 17.9231 530.7291)" class="st1" cx="999.3" cy="231.9" rx="1" ry="1"/>
			</g>
			<g>
				
					<ellipse transform="matrix(0.9659 -0.2589 0.2589 0.9659 -26.3133 266.0096)" class="st1" cx="996.8" cy="232.9" rx="1" ry="1"/>
			</g>
			<g>
				
					<ellipse transform="matrix(0.9659 -0.2589 0.2589 0.9659 -27.1789 266.3668)" class="st1" cx="997.7" cy="236.4" rx="0.9" ry="0.9"/>
			</g>
			<g>
				
					<ellipse transform="matrix(0.9239 -0.3827 0.3827 0.9239 -13.5949 400.0721)" class="st1" cx="998.8" cy="234.2" rx="1" ry="1"/>
			</g>
			<g>
				
					<ellipse transform="matrix(0.9914 -0.1306 0.1306 0.9914 -22.6158 132.133)" class="st1" cx="996.1" cy="238.5" rx="0.9" ry="0.9"/>
			</g>
			<g>
				
					<ellipse transform="matrix(0.1306 -0.9914 0.9914 0.1306 660.1885 1204.4281)" class="st1" cx="1016.8" cy="225.8" rx="0.8" ry="0.8"/>
			</g>
			<g>
				<circle class="st1" cx="994" cy="208.6" r="0.9"/>
			</g>
			<g>
				<ellipse transform="matrix(0.866 -0.5 0.5 0.866 29.544 519.0975)" class="st1" cx="983.4" cy="204.4" rx="0.8" ry="0.8"/>
			</g>
			<g>
				<circle class="st1" cx="994" cy="201.5" r="0.8"/>
			</g>
			<g>
				<circle class="st1" cx="994" cy="205.1" r="0.8"/>
			</g>
			<g>
				
					<ellipse transform="matrix(0.9239 -0.3827 0.3827 0.9239 -5.3544 403.6883)" class="st1" cx="1012" cy="215.3" rx="0.8" ry="0.8"/>
			</g>
			<g>
				
					<ellipse transform="matrix(0.7934 -0.6087 0.6087 0.7934 82.1028 659.3058)" class="st1" cx="1012.3" cy="208.7" rx="0.8" ry="0.8"/>
			</g>
			<g>
				
					<ellipse transform="matrix(0.9659 -0.2588 0.2588 0.9659 -24.6282 272.1097)" class="st1" cx="1021.2" cy="229.6" rx="0.7" ry="0.7"/>
			</g>
			<g>
				
					<ellipse transform="matrix(0.8661 -0.4999 0.4999 0.8661 29.5147 534.4582)" class="st1" cx="1012.3" cy="212.1" rx="0.8" ry="0.8"/>
			</g>
			<g>
				
					<ellipse transform="matrix(0.9659 -0.2588 0.2588 0.9659 -20.2318 271.6329)" class="st1" cx="1021.6" cy="212.7" rx="0.7" ry="0.7"/>
			</g>
			<g>
				
					<ellipse transform="matrix(0.9659 -0.2588 0.2588 0.9659 -27.4632 258.0544)" class="st1" cx="966.4" cy="233.3" rx="0.8" ry="0.8"/>
			</g>
			<g>
				
					<ellipse transform="matrix(0.2589 -0.9659 0.9659 0.2589 505.396 1093.3907)" class="st1" cx="965.2" cy="217.3" rx="0.7" ry="0.7"/>
			</g>
			<g>
				
					<ellipse transform="matrix(0.707 -0.7072 0.7072 0.707 126.9581 747.9503)" class="st1" cx="966.2" cy="220.8" rx="0.7" ry="0.7"/>
			</g>
			<g>
				
					<ellipse transform="matrix(0.7933 -0.6088 0.6088 0.7933 62.3769 633.4977)" class="st1" cx="964.2" cy="224.9" rx="0.8" ry="0.8"/>
			</g>
			<g>
				<circle class="st1" cx="994" cy="198" r="0.7"/>
			</g>
			<g>
				<ellipse transform="matrix(0.5 -0.866 0.866 0.5 282.895 972.2548)" class="st1" cx="983.5" cy="241.1" rx="0.8" ry="0.8"/>
			</g>
			<g>
				<ellipse transform="matrix(0.5 -0.866 0.866 0.5 279.4354 972.184)" class="st1" cx="981.7" cy="244.1" rx="0.7" ry="0.7"/>
			</g>
			<g>
				
					<ellipse transform="matrix(0.6088 -0.7933 0.7933 0.6088 195.2641 872.4058)" class="st1" cx="982.2" cy="238.2" rx="0.8" ry="0.8"/>
			</g>
			<g>
				
					<ellipse transform="matrix(0.7071 -0.7071 0.7071 0.7071 118.6628 761.8735)" class="st1" cx="979" cy="237.7" rx="0.8" ry="0.8"/>
			</g>
			<g>
				
					<ellipse transform="matrix(0.7934 -0.6087 0.6087 0.7934 59.3986 644.1409)" class="st1" cx="978.6" cy="234.6" rx="0.8" ry="0.8"/>
			</g>
			<g>
				
					<ellipse transform="matrix(0.9914 -0.1305 0.1305 0.9914 -20.9697 129.5777)" class="st1" cx="978.2" cy="224.8" rx="0.9" ry="0.9"/>
			</g>
			<g>
				
					<ellipse transform="matrix(0.9659 -0.2588 0.2588 0.9659 -25.5373 260.5926)" class="st1" cx="977" cy="227.3" rx="0.8" ry="0.8"/>
			</g>
			<g>
				
					<ellipse transform="matrix(0.7072 -0.7071 0.7071 0.7072 116.1562 760.8331)" class="st1" cx="976.6" cy="240.2" rx="0.7" ry="0.7"/>
			</g>
			<g>
				
					<ellipse transform="matrix(0.8661 -0.4999 0.4999 0.8661 15.3278 520.2529)" class="st1" cx="978.7" cy="231.5" rx="0.8" ry="0.8"/>
			</g>
			<g>
				
					<ellipse transform="matrix(0.8661 -0.4999 0.4999 0.8661 12.7555 517.6673)" class="st1" cx="972.6" cy="235" rx="0.7" ry="0.7"/>
			</g>
			<g>
				
					<ellipse transform="matrix(0.9238 -0.3828 0.3828 0.9238 -12.9799 392.2972)" class="st1" cx="979.3" cy="228.8" rx="0.9" ry="0.9"/>
			</g>
			<g>
				
					<ellipse transform="matrix(0.9914 -0.1306 0.1306 0.9914 -21.0748 129.2263)" class="st1" cx="974.7" cy="225.3" rx="0.8" ry="0.8"/>
			</g>
			<g>
				
					<ellipse transform="matrix(0.2588 -0.9659 0.9659 0.2588 487.5453 1124.8375)" class="st1" cx="976.7" cy="244.7" rx="0.7" ry="0.7"/>
			</g>
			<g>
				
					<ellipse transform="matrix(0.6088 -0.7934 0.7934 0.6088 192.2796 871.8265)" class="st1" cx="980.1" cy="241" rx="0.8" ry="0.8"/>
			</g>
			<g>
				
					<ellipse transform="matrix(0.7933 -0.6088 0.6088 0.7933 74.2349 633.4022)" class="st1" cx="970" cy="207.4" rx="0.8" ry="0.8"/>
			</g>
			<g>
				
					<ellipse transform="matrix(0.6087 -0.7934 0.7934 0.6087 216.28 855.7927)" class="st1" cx="975.7" cy="208.6" rx="0.8" ry="0.8"/>
			</g>
			<g>
				
					<ellipse transform="matrix(0.7071 -0.7072 0.7072 0.7071 121.2289 763.0182)" class="st1" cx="981.6" cy="235.2" rx="0.8" ry="0.8"/>
			</g>
			<g>
				<ellipse transform="matrix(0.9239 -0.3827 0.3827 0.9239 -12.2886 393.335)" class="st1" cx="982.6" cy="227.6" rx="1" ry="1"/>
			</g>
			<g>
				
					<ellipse transform="matrix(0.5001 -0.866 0.866 0.5001 314.2044 947.0356)" class="st1" cx="977.4" cy="201.4" rx="0.7" ry="0.7"/>
			</g>
			<g>
				<ellipse transform="matrix(0.866 -0.5 0.5 0.866 16.6546 521.6912)" class="st1" cx="981.8" cy="229.8" rx="0.9" ry="0.9"/>
			</g>
			<g>
				<ellipse transform="matrix(0.5 -0.866 0.866 0.5 286.4628 972.1915)" class="st1" cx="985.2" cy="238" rx="0.8" ry="0.8"/>
			</g>
			<g>
				
					<ellipse transform="matrix(0.6088 -0.7933 0.7933 0.6088 198.2836 873.0045)" class="st1" cx="984.4" cy="235.4" rx="0.9" ry="0.9"/>
			</g>
			<g>
				
					<ellipse transform="matrix(0.3827 -0.9239 0.9239 0.3827 382.8122 1060.8817)" class="st1" cx="985.3" cy="244" rx="0.8" ry="0.8"/>
			</g>
			<g>
				
					<ellipse transform="matrix(0.7071 -0.7072 0.7072 0.7071 123.7298 764.0482)" class="st1" cx="984.1" cy="232.7" rx="0.9" ry="0.9"/>
			</g>
			<g>
				
					<ellipse transform="matrix(0.6087 -0.7934 0.7934 0.6087 215.6269 858.9847)" class="st1" cx="978.7" cy="210.9" rx="0.8" ry="0.8"/>
			</g>
			<g>
				
					<ellipse transform="matrix(0.1306 -0.9914 0.9914 0.1306 660.8383 1167.4742)" class="st1" cx="996.1" cy="206.9" rx="0.9" ry="0.9"/>
			</g>
			<g>
				
					<ellipse transform="matrix(0.1305 -0.9914 0.9914 0.1305 657.1443 1170.0844)" class="st1" cx="995.7" cy="210.4" rx="1" ry="1"/>
			</g>
			<g>
				
					<ellipse transform="matrix(0.1306 -0.9914 0.9914 0.1306 664.759 1164.8875)" class="st1" cx="996.6" cy="203.4" rx="0.8" ry="0.8"/>
			</g>
			<g>
				
					<ellipse transform="matrix(0.9914 -0.1305 0.1305 0.9914 -18.9735 131.3075)" class="st1" cx="992.4" cy="210.4" rx="1" ry="1"/>
			</g>
			<g>
				
					<ellipse transform="matrix(0.9914 -0.1305 0.1305 0.9914 -18.0665 131.1301)" class="st1" cx="991.4" cy="203.4" rx="0.8" ry="0.8"/>
			</g>
			<g>
				
					<ellipse transform="matrix(0.1305 -0.9914 0.9914 0.1305 668.5982 1162.2891)" class="st1" cx="997" cy="200" rx="0.8" ry="0.8"/>
			</g>
			<g>
				
					<ellipse transform="matrix(0.9914 -0.1305 0.1305 0.9914 -18.5194 131.2124)" class="st1" cx="991.9" cy="206.9" rx="0.9" ry="0.9"/>
			</g>
			<g>
				
					<ellipse transform="matrix(0.2588 -0.9659 0.9659 0.2588 541.4809 1117.0306)" class="st1" cx="998.6" cy="205.7" rx="0.8" ry="0.8"/>
			</g>
			<g>
				
					<ellipse transform="matrix(0.9914 -0.1306 0.1306 0.9914 -17.6129 131.1367)" class="st1" cx="991" cy="199.8" rx="0.8" ry="0.8"/>
			</g>
			<g>
				
					<ellipse transform="matrix(0.3827 -0.9239 0.9239 0.3827 429.141 1051.5696)" class="st1" cx="1001.5" cy="204.7" rx="0.8" ry="0.8"/>
			</g>
			<g>
				
					<ellipse transform="matrix(0.2588 -0.9659 0.9659 0.2588 555.5081 1113.2319)" class="st1" cx="1003.1" cy="194.6" rx="0.7" ry="0.7"/>
			</g>
			<g>
				<ellipse transform="matrix(0.5 -0.866 0.866 0.5 325.2769 972.2039)" class="st1" cx="1004.6" cy="204.4" rx="0.8" ry="0.8"/>
			</g>
			<g>
				
					<ellipse transform="matrix(0.2589 -0.9659 0.9659 0.2589 545.3821 1115.3591)" class="st1" cx="999.5" cy="202.3" rx="0.8" ry="0.8"/>
			</g>
			<g>
				
					<ellipse transform="matrix(0.2588 -0.9659 0.9659 0.2588 549.3907 1113.7581)" class="st1" cx="1000.4" cy="198.9" rx="0.7" ry="0.7"/>
			</g>
			<g>
				
					<ellipse transform="matrix(0.3827 -0.9239 0.9239 0.3827 432.9433 1050.8898)" class="st1" cx="1002.9" cy="201.5" rx="0.8" ry="0.8"/>
			</g>
			<g>
				<ellipse transform="matrix(0.866 -0.5 0.5 0.866 30.8785 517.8108)" class="st1" cx="981.7" cy="201.3" rx="0.7" ry="0.7"/>
			</g>
			<g>
				
					<ellipse transform="matrix(0.707 -0.7072 0.7072 0.707 138.9011 755.6833)" class="st1" cx="981.5" cy="210.2" rx="0.8" ry="0.8"/>
			</g>
			<g>
				
					<ellipse transform="matrix(0.7934 -0.6087 0.6087 0.7934 76.7718 640.6863)" class="st1" cx="982.2" cy="207.2" rx="0.8" ry="0.8"/>
			</g>
			<g>
				
					<ellipse transform="matrix(0.7072 -0.7071 0.7071 0.7072 139.8457 753.0571)" class="st1" cx="979" cy="207.7" rx="0.8" ry="0.8"/>
			</g>
			<g>
				
					<ellipse transform="matrix(0.7933 -0.6088 0.6088 0.7933 75.5398 642.6732)" class="st1" cx="984.3" cy="210.1" rx="0.9" ry="0.9"/>
			</g>
			<g>
				
					<ellipse transform="matrix(0.7934 -0.6087 0.6087 0.7934 77.9825 638.8024)" class="st1" cx="980" cy="204.5" rx="0.8" ry="0.8"/>
			</g>
			<g>
				
					<ellipse transform="matrix(0.9659 -0.2588 0.2588 0.9659 -19.536 263.0691)" class="st1" cx="989.4" cy="205.7" rx="0.8" ry="0.8"/>
			</g>
			<g>
				
					<ellipse transform="matrix(0.9659 -0.2589 0.2589 0.9659 -18.6639 262.8217)" class="st1" cx="988.5" cy="202.3" rx="0.8" ry="0.8"/>
			</g>
			<g>
				<ellipse transform="matrix(0.866 -0.5 0.5 0.866 28.2908 520.379)" class="st1" cx="985.2" cy="207.4" rx="0.8" ry="0.8"/>
			</g>
			<g>
				
					<ellipse transform="matrix(0.9659 -0.2588 0.2588 0.9659 -17.8352 262.372)" class="st1" cx="987.6" cy="198.9" rx="0.7" ry="0.7"/>
			</g>
			<g>
				<circle class="st1" cx="989.5" cy="195.5" r="0.7"/>
			</g>
			<g>
				
					<ellipse transform="matrix(0.9239 -0.3826 0.3826 0.9239 -2.1183 392.2692)" class="st1" cx="985.2" cy="201.5" rx="0.8" ry="0.8"/>
			</g>
			<g>
				
					<ellipse transform="matrix(0.9239 -0.3827 0.3827 0.9239 -3.2413 393.1554)" class="st1" cx="986.6" cy="204.7" rx="0.8" ry="0.8"/>
			</g>
			<g>
				<ellipse transform="matrix(0.5 -0.866 0.866 0.5 328.8354 972.1838)" class="st1" cx="1006.4" cy="201.3" rx="0.7" ry="0.7"/>
			</g>
			<g>
				
					<ellipse transform="matrix(0.6088 -0.7934 0.7934 0.6088 229.1692 879.1667)" class="st1" cx="1006" cy="207.2" rx="0.8" ry="0.8"/>
			</g>
			<g>
				
					<ellipse transform="matrix(0.9914 -0.1306 0.1306 0.9914 -19.9778 134.6758)" class="st1" cx="1016.8" cy="219.6" rx="0.8" ry="0.8"/>
			</g>
			<g>
				<circle class="st1" cx="1018.7" cy="222.7" r="0.7"/>
			</g>
			<g>
				
					<ellipse transform="matrix(0.9659 -0.2588 0.2588 0.9659 -21.2639 271.952)" class="st1" cx="1022.3" cy="216.7" rx="0.7" ry="0.7"/>
			</g>
			<g>
				
					<ellipse transform="matrix(0.966 -0.2587 0.2587 0.966 -25.5657 272.5987)" class="st1" cx="1022.9" cy="233.4" rx="0.7" ry="0.7"/>
			</g>
			<g>
				
					<ellipse transform="matrix(0.9659 -0.2588 0.2588 0.9659 -21.301 270.8005)" class="st1" cx="1017.9" cy="216.3" rx="0.7" ry="0.7"/>
			</g>
			<g>
				<circle class="st1" cx="1010.8" cy="200.3" r="0.7"/>
			</g>
			<g>
				
					<ellipse transform="matrix(0.6087 -0.7934 0.7934 0.6087 232.2104 879.7603)" class="st1" cx="1008" cy="204.5" rx="0.8" ry="0.8"/>
			</g>
			<g>
				
					<ellipse transform="matrix(0.7071 -0.7071 0.7071 0.7071 148.6243 774.313)" class="st1" cx="1009" cy="207.8" rx="0.8" ry="0.8"/>
			</g>
			<g>
				
					<ellipse transform="matrix(0.966 -0.2587 0.2587 0.966 -21.6628 269.8446)" class="st1" cx="1014.4" cy="217.2" rx="0.8" ry="0.8"/>
			</g>
			<g>
				
					<ellipse transform="matrix(0.7071 -0.7071 0.7071 0.7071 151.1482 775.3083)" class="st1" cx="1011.5" cy="205.2" rx="0.7" ry="0.7"/>
			</g>
			<g>
				<ellipse transform="matrix(0.866 -0.5 0.5 0.866 30.8299 535.9087)" class="st1" cx="1015.4" cy="210.4" rx="0.7" ry="0.7"/>
			</g>
			<g>
				
					<ellipse transform="matrix(0.9239 -0.3827 0.3827 0.9239 -4.5588 404.8329)" class="st1" cx="1015.3" cy="213.9" rx="0.8" ry="0.8"/>
			</g>
			<g>
				
					<ellipse transform="matrix(0.9914 -0.1305 0.1305 0.9914 -20.0683 134.1193)" class="st1" cx="1013.4" cy="220.2" rx="0.8" ry="0.8"/>
			</g>
		</g>
	</g>
	<g>
		<path class="st1" d="M987.2,182.2c-11.7-30.3-35.7-54.5-66-66.3l1.8-4.7c31.6,12.3,56.7,37.5,68.9,69.1L987.2,182.2z"/>
	</g>
	<g>
		<path class="st1" d="M771.5,181.9l-4.7-1.8c12.4-32.1,38-57.4,70.2-69.4l1.8,4.7C808,126.9,783.4,151.2,771.5,181.9z"/>
	</g>
	<g>
		<path class="st1" d="M835.9,336.1C803.4,323.6,778,297.7,766,265l4.7-1.7c11.4,31.3,35.9,56.2,67,68.2L835.9,336.1z"/>
	</g>
	<g>
		<path class="st1" d="M923,335.9l-1.8-4.7c30.9-12.1,55.2-36.9,66.6-68l4.7,1.7C980.7,297.5,955.3,323.4,923,335.9z"/>
	</g>
</g>
<g>
	<g>
		<g>
			<path class="st1" d="M453.9,22.8h8.3l-5.7,16.7h5.4v2.2h-8.7l5.7-16.7h-5.1v-2.2H453.9z"/>
		</g>
		<g>
			<path class="st1" d="M464.8,23.6c0.4,0,0.8,0.2,1.1,0.5c0.3,0.3,0.5,0.7,0.5,1.1s-0.2,0.8-0.5,1.1c-0.3,0.3-0.7,0.5-1.1,0.5
				s-0.8-0.2-1.1-0.5c-0.3-0.3-0.5-0.7-0.5-1.1s0.2-0.8,0.5-1.1C464,23.8,464.4,23.6,464.8,23.6z M463.7,29h2.3v12.7h-2.3V29z"/>
		</g>
		<g>
			<path class="st1" d="M473,23.6c0.4,0,0.8,0.2,1.1,0.5c0.3,0.3,0.5,0.7,0.5,1.1s-0.2,0.8-0.5,1.1c-0.3,0.3-0.7,0.5-1.1,0.5
				s-0.8-0.2-1.1-0.5c-0.3-0.3-0.5-0.7-0.5-1.1s0.2-0.8,0.5-1.1C472.1,23.8,472.5,23.6,473,23.6z M471.9,29h2.3v12.7h-2.3V29z"/>
		</g>
		<g>
			<path class="st1" d="M477.1,25.5h2.3V29h1.3v1.9h-1.3v10.8h-2.3V30.9h-1.3V29h1.3V25.5z"/>
		</g>
		<g>
			<g>
				<g>
					<g>
						<path class="st1" d="M470.5,25.5h0.6c0.1,0,0.1,0.1,0.1,0.1c0,0.1-0.1,0.1-0.1,0.1h-0.6c-0.1,0-0.1-0.1-0.1-0.1
							C470.3,25.6,470.4,25.5,470.5,25.5z"/>
					</g>
				</g>
				<g>
					<g>
						<path class="st1" d="M470.5,24.6h0.6c0.1,0,0.1,0.1,0.1,0.1c0,0.1-0.1,0.1-0.1,0.1h-0.6c-0.1,0-0.1-0.1-0.1-0.1
							C470.3,24.6,470.4,24.6,470.5,24.6z"/>
					</g>
				</g>
				<g>
					<path class="st1" d="M470.2,26.2v-0.1v-1.9v-0.1h-0.1l0,0h-0.9c-0.1,0-0.1,0.1-0.1,0.1s0,0.1-0.1,0.2s-0.2,0.2-0.4,0.2h-0.3
						c-0.1,0-0.1,0.1-0.1,0.1v0.8c0,0.1,0.1,0.1,0.1,0.1h0.3c0.2,0,0.3,0.1,0.4,0.2s0.1,0.2,0.1,0.2c0,0.1,0.1,0.1,0.1,0.1h0.9
						C470.1,26.3,470.2,26.3,470.2,26.2z M469.7,25.8v-1.1c0,0,0-0.1,0.1-0.1s0.1,0,0.1,0.1v1.1C469.9,25.8,469.9,25.8,469.7,25.8
						C469.8,25.8,469.7,25.8,469.7,25.8z"/>
				</g>
			</g>
			<g>
				<rect x="465" y="25" class="st1" width="3.1" height="0.5"/>
			</g>
		</g>
	</g>
	<g>
		<g>
			<path class="st1" d="M506.2,43.4c0,1.9-0.9,3.8-3.3,4.8c2.9,0.9,4,4,4,5.6c0,5.6-4.2,7.4-9.4,7.4c-4,0-7.9,0-11.9,0v-25
				c3.9,0,7.9,0,11.9,0C502.5,36.1,506.2,38.3,506.2,43.4z M490.4,46.2h7.2c3,0,3.9-1.3,3.9-2.7c0-1.1-0.9-3.1-3.9-3.1h-7.2V46.2z
				 M490.4,56.7h7.2c1.9,0,4.7-0.6,4.7-3c0-2.3-2.8-3.4-4.7-3.4h-7.2V56.7z"/>
		</g>
		<g>
			<path class="st1" d="M513,43.5v9.2c0,2.7,1.5,4.7,4.3,4.7c2.7,0,4.5-2.3,4.5-4.9v-9h4.3v17.6h-3.9l-0.3-2.4
				c-1.8,1.8-3.5,2.6-6,2.6c-4.2,0-7.3-3.2-7.3-8.6v-9.3h4.4V43.5z"/>
		</g>
		<g>
			<path class="st1" d="M540,48.2c-1.3-1.2-2.7-1.6-4.4-1.6c-2.1,0-3.2,0.6-3.2,1.8c0,1.1,1,1.8,3.3,1.9c3.3,0.2,7.5,1,7.5,5.6
				c0,3.1-2.5,5.8-7.6,5.8c-2.8,0-5.6-0.5-8.1-3.1l2.1-3.1c1.3,1.4,4.1,2.4,6.1,2.5c1.6,0,3.2-0.8,3.2-2.1c0-1.2-1-1.7-3.5-1.9
				c-3.3-0.2-7.3-1.5-7.3-5.5c0-4.1,4.2-5.5,7.4-5.5c2.8,0,4.8,0.5,6.9,2.3L540,48.2z"/>
		</g>
		<g>
			<path class="st1" d="M550,38.6c0,3.4-5.1,3.4-5.1,0C544.9,35.2,550,35.2,550,38.6z M545.3,43.5v17.7h4.4V43.5H545.3z"/>
		</g>
		<g>
			<path class="st1" d="M565.8,61.1v-9.2c0-2.7-1.5-4.7-4.3-4.7c-2.7,0-4.5,2.3-4.5,4.9v9h-4.3V43.5h3.9l0.3,2.4
				c1.8-1.8,3.6-2.6,5.8-2.6c4.1,0,7.5,3.1,7.5,8.6v9.3h-4.4V61.1z"/>
		</g>
		<g>
			<path class="st1" d="M576.2,53.9c0.3,2.2,2.2,3.8,5.3,3.8c1.6,0,3.7-0.6,4.7-1.6l2.8,2.8c-1.9,1.9-4.9,2.9-7.6,2.9
				c-6.1,0-9.7-3.8-9.7-9.4c0-5.4,3.6-9.2,9.4-9.2c5.9,0,9.6,3.6,8.9,10.9h-13.8V53.9z M585.8,50.3c-0.3-2.3-2.1-3.4-4.6-3.4
				c-2.4,0-4.3,1.1-4.9,3.4H585.8z"/>
		</g>
		<g>
			<path class="st1" d="M603.4,48.2c-1.3-1.2-2.7-1.6-4.4-1.6c-2.1,0-3.2,0.6-3.2,1.8c0,1.1,1,1.8,3.3,1.9c3.3,0.2,7.5,1,7.5,5.6
				c0,3.1-2.5,5.8-7.6,5.8c-2.8,0-5.6-0.5-8.1-3.1l2.1-3.1c1.3,1.4,4.1,2.4,6.1,2.5c1.6,0,3.2-0.8,3.2-2.1c0-1.2-1-1.7-3.5-1.9
				c-3.3-0.2-7.3-1.5-7.3-5.5c0-4.1,4.2-5.5,7.4-5.5c2.8,0,4.8,0.5,6.9,2.3L603.4,48.2z"/>
		</g>
		<g>
			<path class="st1" d="M619.5,48.2c-1.3-1.2-2.7-1.6-4.4-1.6c-2.1,0-3.2,0.6-3.2,1.8c0,1.1,1,1.8,3.3,1.9c3.3,0.2,7.5,1,7.5,5.6
				c0,3.1-2.5,5.8-7.6,5.8c-2.8,0-5.6-0.5-8.1-3.1l2.1-3.1c1.3,1.4,4.1,2.4,6.1,2.5c1.6,0,3.2-0.8,3.2-2.1c0-1.2-1-1.7-3.5-1.9
				c-3.3-0.2-7.3-1.5-7.3-5.5c0-4.1,4.2-5.5,7.4-5.5c2.8,0,4.8,0.5,6.9,2.3L619.5,48.2z"/>
		</g>
	</g>
</g>
</svg>
