<?xml version="1.0" encoding="utf-8"?>
<!-- Generator: Adobe Illustrator 21.0.2, SVG Export Plug-In . SVG Version: 6.00 Build 0)  -->
<svg version="1.1" id="Layer_1" xmlns="http://www.w3.org/2000/svg" xmlns:xlink="http://www.w3.org/1999/xlink" x="0px" y="0px"
	 viewBox="0 0 406 99" style="enable-background:new 0 0 406 99;" xml:space="preserve">
<style type="text/css">
	.st0{fill:#FFFFFF;}
</style>
<g>
	<path class="st0" d="M152.4,0.5c-27,0-49,22-49,49s22,49,49,49c27,0,49-22,49-49S179.4,0.5,152.4,0.5z M152.4,97.1
		c-26.3,0-47.6-21.4-47.6-47.6s21.4-47.6,47.6-47.6c26.3,0,47.6,21.4,47.6,47.6S178.7,97.1,152.4,97.1z"/>
	<path class="st0" d="M162.5,53.8c-1.1,1.5-3.2,3.1-6.6,2.6c0,0-3.7-3.6-4.7-9.5c9.4-14.6-8.7-22.9-8.7-22.9
		c-6.7,17.7,3.2,22.1,7,23.1c0.5,2,1.9,6.6,4.9,10.3c0,0-3-3.5-7.4-4c-10.7-13.8-24.6,0.6-24.6,0.6s10.7,11.4,20.3,4.7
		c1.8-1.1,3-2.6,3.7-3.6c2.8,0.7,6.1,2.2,8.9,5.7c0,0,4.2,8.8,12.1,13.5c0,0,1.2,1.4,2-1c0,0-11.7-8-12.4-14.8c0,0,4.6-0.5,7.2-3.7
		c16.4-3.4,10.2-21.9,10.2-21.9C153.5,41,162.5,53.8,162.5,53.8z"/>
</g>
<g>
	<path class="st0" d="M355,0.5c-27,0-49,22-49,49s22,49,49,49c27,0,49-22,49-49S382,0.5,355,0.5z M355,97.1
		c-26.3,0-47.6-21.4-47.6-47.6S328.7,1.9,355,1.9c26.3,0,47.6,21.4,47.6,47.6S381.3,97.1,355,97.1z"/>
	<ellipse transform="matrix(0.6088 -0.7933 0.7933 0.6088 102.8217 284.9761)" class="st0" cx="340.4" cy="38.2" rx="1" ry="1"/>
	<ellipse transform="matrix(0.7933 -0.6088 0.6088 0.7933 48.3837 218.6559)" class="st0" cx="346.2" cy="38.1" rx="1.1" ry="1.1"/>
	<ellipse transform="matrix(0.5 -0.866 0.866 0.5 134.6722 319.9027)" class="st0" cx="344.4" cy="43.3" rx="1.1" ry="1.1"/>
	<ellipse transform="matrix(0.707 -0.7072 0.7072 0.707 73.8009 253.9785)" class="st0" cx="343.4" cy="37.9" rx="1" ry="1"/>
	<ellipse transform="matrix(0.5001 -0.866 0.866 0.5001 134.6458 315.8147)" class="st0" cx="340.9" cy="41.3" rx="1" ry="1"/>
	<ellipse transform="matrix(0.3826 -0.9239 0.9239 0.3826 170.3508 342.8442)" class="st0" cx="341.7" cy="44" rx="1.1" ry="1.1"/>
	
		<ellipse transform="matrix(0.6088 -0.7933 0.7933 0.6088 102.1073 288.4936)" class="st0" cx="343.6" cy="40.7" rx="1.1" ry="1.1"/>
	<ellipse transform="matrix(0.866 -0.5001 0.5001 0.866 28.8116 178.1672)" class="st0" cx="346.8" cy="35.3" rx="1" ry="1"/>
	
		<ellipse transform="matrix(0.2589 -0.9659 0.9659 0.2589 201.5669 385.1749)" class="st0" cx="351.8" cy="61.2" rx="1.1" ry="1.1"/>
	
		<ellipse transform="matrix(0.1306 -0.9914 0.9914 0.1306 243.8583 405.3727)" class="st0" cx="353.1" cy="63.6" rx="1.1" ry="1.1"/>
	<ellipse transform="matrix(0.9659 -0.2589 0.2589 0.9659 2.249 92.3479)" class="st0" cx="351.8" cy="37.6" rx="1.1" ry="1.1"/>
	<ellipse transform="matrix(0.9659 -0.2588 0.2588 0.9659 3.2277 91.9258)" class="st0" cx="350.7" cy="33.7" rx="1" ry="1"/>
	<ellipse transform="matrix(0.9239 -0.3826 0.3826 0.9239 12.7418 136.4675)" class="st0" cx="349.5" cy="36.2" rx="1.1" ry="1.1"/>
	<ellipse transform="matrix(0.9239 -0.3828 0.3828 0.9239 14.076 135.6327)" class="st0" cx="347.9" cy="32.4" rx="1" ry="1"/>
	<ellipse transform="matrix(0.866 -0.5 0.5 0.866 18.3766 179.6325)" class="st0" cx="344.4" cy="55.5" rx="1.1" ry="1.1"/>
	<ellipse transform="matrix(0.7933 -0.6088 0.6088 0.7933 35.6059 221.2)" class="st0" cx="343.6" cy="58.2" rx="1.1" ry="1.1"/>
	<ellipse transform="matrix(0.9659 -0.2589 0.2589 0.9659 -1.9171 90.6349)" class="st0" cx="343.1" cy="52.6" rx="1.1" ry="1.1"/>
	<ellipse transform="matrix(0.2589 -0.9659 0.9659 0.2589 209.6163 365.743)" class="st0" cx="343.1" cy="46.3" rx="1.1" ry="1.1"/>
	<ellipse transform="matrix(0.5 -0.8661 0.8661 0.5 118.3882 332.1237)" class="st0" cx="346.8" cy="63.5" rx="1" ry="1"/>
	<ellipse transform="matrix(0.2588 -0.9659 0.9659 0.2588 207.7353 361.1729)" class="st0" cx="339.2" cy="45.2" rx="1" ry="1"/>
	<ellipse transform="matrix(0.7072 -0.707 0.707 0.7072 72.5628 256.7968)" class="st0" cx="346.3" cy="40.8" rx="1.1" ry="1.1"/>
	<ellipse transform="matrix(0.6087 -0.7934 0.7934 0.6087 87.23 298.479)" class="st0" cx="346.2" cy="60.8" rx="1.1" ry="1.1"/>
	<ellipse transform="matrix(0.5 -0.866 0.866 0.5 134.6849 311.7758)" class="st0" cx="337.3" cy="39.3" rx="1" ry="1"/>
	<ellipse transform="matrix(0.3826 -0.9239 0.9239 0.3826 169.4699 338.4112)" class="st0" cx="338" cy="42.4" rx="1" ry="1"/>
	<circle class="st0" cx="338.7" cy="49.4" r="1"/>
	<ellipse transform="matrix(0.1306 -0.9914 0.9914 0.1306 249.0734 379.175)" class="st0" cx="340.7" cy="47.6" rx="1.1" ry="1.1"/>
	<ellipse transform="matrix(0.9915 -0.1305 0.1305 0.9915 -3.7813 44.899)" class="st0" cx="340.7" cy="51.3" rx="1.1" ry="1.1"/>
	<circle class="st0" cx="342.7" cy="49.4" r="1.1"/>
	<ellipse transform="matrix(0.5 -0.866 0.866 0.5 134.6612 352.4394)" class="st0" cx="372.6" cy="59.6" rx="1" ry="1"/>
	<ellipse transform="matrix(0.259 -0.9659 0.9659 0.259 224.7323 402.3517)" class="st0" cx="374.6" cy="54.7" rx="1" ry="1"/>
	<ellipse transform="matrix(0.7071 -0.7071 0.7071 0.7071 60.6584 285.6097)" class="st0" cx="375.1" cy="69.6" rx="0.8" ry="0.8"/>
	<circle class="st0" cx="355" cy="73.8" r="0.9"/>
	<circle class="st0" cx="355" cy="77.9" r="0.8"/>
	<circle class="st0" cx="355" cy="69.8" r="1"/>
	<ellipse transform="matrix(0.3828 -0.9238 0.9238 0.3828 178.2678 382.8947)" class="st0" cx="375.7" cy="58" rx="1" ry="1"/>
	<ellipse transform="matrix(0.9659 -0.2588 0.2588 0.9659 -6.172 101.0146)" class="st0" cx="380.6" cy="73.9" rx="0.8" ry="0.8"/>
	<ellipse transform="matrix(0.9659 -0.2588 0.2588 0.9659 -7.2008 99.9497)" class="st0" cx="376" cy="77.3" rx="0.8" ry="0.8"/>
	<ellipse transform="matrix(0.6087 -0.7934 0.7934 0.6087 95.0731 323.9627)" class="st0" cx="376" cy="65.6" rx="0.9" ry="0.9"/>
	<ellipse transform="matrix(0.9659 -0.2588 0.2588 0.9659 -4.2173 100.9216)" class="st0" cx="381.3" cy="66.5" rx="0.8" ry="0.8"/>
	<ellipse transform="matrix(0.4999 -0.8661 0.8661 0.4999 134.7006 356.54)" class="st0" cx="376.1" cy="61.6" rx="0.9" ry="0.9"/>
	<ellipse transform="matrix(0.7071 -0.7071 0.7071 0.7071 60.3647 261.8872)" class="st0" cx="346.3" cy="58.1" rx="1.1" ry="1.1"/>
	<ellipse transform="matrix(0.866 -0.5 0.5 0.866 13.9058 175.1555)" class="st0" cx="333.8" cy="61.6" rx="0.9" ry="0.9"/>
	<ellipse transform="matrix(0.5 -0.866 0.866 0.5 134.6751 303.632)" class="st0" cx="330.3" cy="35.2" rx="0.8" ry="0.8"/>
	<ellipse transform="matrix(0.1305 -0.9914 0.9914 0.1305 240.1762 365.8055)" class="st0" cx="328.6" cy="46" rx="0.9" ry="0.9"/>
	<ellipse transform="matrix(0.7071 -0.7071 0.7071 0.7071 76.4221 240.3951)" class="st0" cx="328.4" cy="27.9" rx="0.9" ry="0.9"/>
	
		<ellipse transform="matrix(0.2588 -0.9659 0.9659 0.2588 202.0497 347.4449)" class="st0" cx="327.4" cy="42.1" rx="0.8" ry="0.8"/>
	<ellipse transform="matrix(0.9659 -0.2589 0.2589 0.9659 -3.1363 87.6961)" class="st0" cx="331.4" cy="55.8" rx="0.9" ry="0.9"/>
	<circle class="st0" cx="330.5" cy="49.4" r="0.9"/>
	
		<ellipse transform="matrix(0.2588 -0.9659 0.9659 0.2588 203.9386 352.0183)" class="st0" cx="331.4" cy="43.1" rx="0.9" ry="0.9"/>
	<ellipse transform="matrix(0.866 -0.5 0.5 0.866 25.9161 167.4211)" class="st0" cx="325.4" cy="35.4" rx="0.8" ry="0.8"/>
	<ellipse transform="matrix(0.1305 -0.9914 0.9914 0.1305 243.1449 370.2628)" class="st0" cx="332.7" cy="46.5" rx="1" ry="1"/>
	<ellipse transform="matrix(0.9238 -0.3828 0.3828 0.9238 3.2434 132.3551)" class="st0" cx="334.2" cy="58" rx="1" ry="1"/>
	<ellipse transform="matrix(0.7934 -0.6087 0.6087 0.7934 29.0502 216.778)" class="st0" cx="333.9" cy="65.6" rx="0.9" ry="0.9"/>
	<circle class="st0" cx="334.6" cy="49.4" r="1"/>
	<circle class="st0" cx="326.5" cy="49.4" r="0.8"/>
	<ellipse transform="matrix(0.9659 -0.2588 0.2588 0.9659 -3.546 86.6805)" class="st0" cx="327.4" cy="56.8" rx="0.8" ry="0.8"/>
	<ellipse transform="matrix(0.9915 -0.1305 0.1305 0.9915 -4.0925 43.3296)" class="st0" cx="328.6" cy="52.9" rx="0.9" ry="0.9"/>
	<circle class="st0" cx="328" cy="68.1" r="0.8"/>
	<ellipse transform="matrix(0.9915 -0.1304 0.1304 0.9915 -5.6435 43.0467)" class="st0" cx="325.8" cy="64.6" rx="0.9" ry="0.9"/>
	<ellipse transform="matrix(0.9659 -0.2588 0.2588 0.9659 -4.5666 86.6986)" class="st0" cx="327" cy="60.7" rx="0.8" ry="0.8"/>
	<ellipse transform="matrix(0.866 -0.5 0.5 0.866 16.5185 169.274)" class="st0" cx="324.1" cy="53.8" rx="0.8" ry="0.8"/>
	<ellipse transform="matrix(0.9239 -0.3827 0.3827 0.9239 2.5022 128.4076)" class="st0" cx="324" cy="57.9" rx="0.9" ry="0.9"/>
	<ellipse transform="matrix(0.1304 -0.9915 0.9915 0.1304 235.0273 411.3639)" class="st0" cx="352" cy="71.7" rx="1" ry="1"/>
	<ellipse transform="matrix(0.1306 -0.9914 0.9914 0.1306 239.4133 408.358)" class="st0" cx="352.5" cy="67.7" rx="1" ry="1"/>
	<ellipse transform="matrix(0.2588 -0.9659 0.9659 0.2588 197.0182 387.0833)" class="st0" cx="350.7" cy="65.2" rx="1" ry="1"/>
	<ellipse transform="matrix(0.3828 -0.9239 0.9239 0.3828 153.3721 362.4171)" class="st0" cx="347.9" cy="66.4" rx="1" ry="1"/>
	<ellipse transform="matrix(0.8661 -0.4999 0.4999 0.8661 27.2908 179.5849)" class="st0" cx="348.8" cy="38.9" rx="1.1" ry="1.1"/>
	
		<ellipse transform="matrix(0.3826 -0.9239 0.9239 0.3826 157.8474 361.5621)" class="st0" cx="349.5" cy="62.7" rx="1.1" ry="1.1"/>
	<ellipse transform="matrix(0.2589 -0.9659 0.9659 0.2589 192.4074 388.9618)" class="st0" cx="349.7" cy="69.1" rx="1" ry="1"/>
	<ellipse transform="matrix(0.2589 -0.9659 0.9659 0.2589 187.8212 390.8519)" class="st0" cx="348.6" cy="73" rx="0.9" ry="0.9"/>
	
		<ellipse transform="matrix(0.1305 -0.9914 0.9914 0.1305 230.5224 414.3294)" class="st0" cx="351.5" cy="75.7" rx="0.9" ry="0.9"/>
	<ellipse transform="matrix(0.5 -0.866 0.866 0.5 122.44 332.1097)" class="st0" cx="348.8" cy="60" rx="1.1" ry="1.1"/>
	<ellipse transform="matrix(0.3829 -0.9238 0.9238 0.3829 168.5059 333.9313)" class="st0" cx="334.2" cy="40.8" rx="1" ry="1"/>
	<ellipse transform="matrix(0.5001 -0.866 0.866 0.5001 134.6558 307.6858)" class="st0" cx="333.8" cy="37.2" rx="0.9" ry="0.9"/>
	<ellipse transform="matrix(0.9239 -0.3827 0.3827 0.9239 2.3499 130.9835)" class="st0" cx="330.4" cy="59.6" rx="0.9" ry="0.9"/>
	
		<ellipse transform="matrix(0.6087 -0.7934 0.7934 0.6087 108.6782 274.0322)" class="st0" cx="332.2" cy="26.8" rx="0.9" ry="0.9"/>
	<ellipse transform="matrix(0.7071 -0.7071 0.7071 0.7071 75.2306 243.2717)" class="st0" cx="331.3" cy="30.8" rx="0.8" ry="0.8"/>
	<ellipse transform="matrix(0.7072 -0.707 0.707 0.7072 77.3213 245.2825)" class="st0" cx="334.8" cy="29.3" rx="0.8" ry="0.8"/>
	
		<ellipse transform="matrix(0.3827 -0.9239 0.9239 0.3827 167.6888 329.5345)" class="st0" cx="330.4" cy="39.3" rx="0.9" ry="0.9"/>
	<ellipse transform="matrix(0.2587 -0.966 0.966 0.2587 183.3222 392.7869)" class="st0" cx="347.6" cy="77" rx="0.8" ry="0.8"/>
	<ellipse transform="matrix(0.3828 -0.9238 0.9238 0.3828 148.9182 363.2847)" class="st0" cx="346.3" cy="70.2" rx="1" ry="1"/>
	<ellipse transform="matrix(0.7934 -0.6087 0.6087 0.7934 33.4034 219.6935)" class="st0" cx="340.4" cy="60.6" rx="1" ry="1"/>
	<ellipse transform="matrix(0.9659 -0.2588 0.2588 0.9659 -2.3266 89.6252)" class="st0" cx="339.2" cy="53.6" rx="1" ry="1"/>
	<ellipse transform="matrix(0.2588 -0.9659 0.9659 0.2588 205.832 356.5936)" class="st0" cx="335.3" cy="44.2" rx="1" ry="1"/>
	<ellipse transform="matrix(0.1306 -0.9914 0.9914 0.1306 246.1083 374.7187)" class="st0" cx="336.7" cy="47" rx="1" ry="1"/>
	<circle class="st0" cx="371.2" cy="49.4" r="1"/>
	<ellipse transform="matrix(0.5 -0.8661 0.8661 0.5 150.9632 332.1202)" class="st0" cx="363.1" cy="35.3" rx="1" ry="1"/>
	<circle class="st0" cx="355" cy="61.6" r="1.1"/>
	<ellipse transform="matrix(0.3826 -0.9239 0.9239 0.3826 193.5106 354.4695)" class="st0" cx="362" cy="32.4" rx="1" ry="1"/>
	
		<ellipse transform="matrix(0.3827 -0.9239 0.9239 0.3827 189.0321 355.3277)" class="st0" cx="360.4" cy="36.2" rx="1.1" ry="1.1"/>
	
		<ellipse transform="matrix(0.2589 -0.9659 0.9659 0.2589 229.0556 373.7955)" class="st0" cx="358.1" cy="37.6" rx="1.1" ry="1.1"/>
	<circle class="st0" cx="355" cy="37.2" r="1.1"/>
	<ellipse transform="matrix(0.9915 -0.1305 0.1305 0.9915 -5.2531 47.1023)" class="st0" cx="356.8" cy="63.6" rx="1.1" ry="1.1"/>
	<ellipse transform="matrix(0.259 -0.9659 0.9659 0.259 233.5955 371.8869)" class="st0" cx="359.2" cy="33.7" rx="1" ry="1"/>
	<ellipse transform="matrix(0.9239 -0.3826 0.3826 0.9239 11.1982 144.2207)" class="st0" cx="368.2" cy="44" rx="1.1" ry="1.1"/>
	<ellipse transform="matrix(0.7071 -0.7071 0.7071 0.7071 80.522 270.2326)" class="st0" cx="366.5" cy="37.9" rx="1" ry="1"/>
	
		<ellipse transform="matrix(0.6088 -0.7933 0.7933 0.6088 112.0599 303.3932)" class="st0" cx="363.7" cy="38.1" rx="1.1" ry="1.1"/>
	<ellipse transform="matrix(0.866 -0.5 0.5 0.866 28.8029 190.062)" class="st0" cx="369" cy="41.3" rx="1" ry="1"/>
	<ellipse transform="matrix(0.6088 -0.7933 0.7933 0.6088 115.6023 304.1076)" class="st0" cx="366.1" cy="34.8" rx="1" ry="1"/>
	<ellipse transform="matrix(0.5 -0.866 0.866 0.5 155.0019 332.0994)" class="st0" cx="365.1" cy="31.8" rx="1" ry="1"/>
	<ellipse transform="matrix(0.9659 -0.2588 0.2588 0.9659 -9.0662 94.5855)" class="st0" cx="354.8" cy="81.7" rx="0.8" ry="0.8"/>
	<circle class="st0" cx="355" cy="65.7" r="1"/>
	<ellipse transform="matrix(0.7934 -0.6087 0.6087 0.7934 53.0675 232.8278)" class="st0" cx="369.5" cy="38.2" rx="1" ry="1"/>
	<circle class="st0" cx="379.4" cy="49.4" r="0.9"/>
	<ellipse transform="matrix(0.7934 -0.6087 0.6087 0.7934 55.249 234.2923)" class="st0" cx="372.8" cy="35.8" rx="1" ry="1"/>
	<ellipse transform="matrix(0.8661 -0.4999 0.4999 0.8661 30.2729 191.5081)" class="st0" cx="372.6" cy="39.3" rx="1" ry="1"/>
	<ellipse transform="matrix(0.9659 -0.259 0.259 0.9659 1.343 98.5329)" class="st0" cx="374.6" cy="44.2" rx="1" ry="1"/>
	<circle class="st0" cx="375.3" cy="49.4" r="1"/>
	<ellipse transform="matrix(0.9659 -0.2588 0.2588 0.9659 0.9264 97.4818)" class="st0" cx="370.7" cy="45.2" rx="1" ry="1"/>
	<ellipse transform="matrix(0.9239 -0.3826 0.3826 0.9239 12.0794 145.5387)" class="st0" cx="371.9" cy="42.4" rx="1" ry="1"/>
	<ellipse transform="matrix(0.3827 -0.9239 0.9239 0.3827 179.2006 387.359)" class="st0" cx="379.5" cy="59.6" rx="0.9" ry="0.9"/>
	<ellipse transform="matrix(0.5002 -0.8659 0.8659 0.5002 134.595 360.5211)" class="st0" cx="379.6" cy="63.7" rx="0.8" ry="0.8"/>
	
		<ellipse transform="matrix(0.2588 -0.9659 0.9659 0.2588 228.6044 411.5389)" class="st0" cx="382.5" cy="56.8" rx="0.8" ry="0.8"/>
	<ellipse transform="matrix(0.1304 -0.9915 0.9915 0.1304 276.1219 419.5385)" class="st0" cx="377.2" cy="52.4" rx="1" ry="1"/>
	
		<ellipse transform="matrix(0.2589 -0.9659 0.9659 0.2589 226.6729 406.9472)" class="st0" cx="378.5" cy="55.8" rx="0.9" ry="0.9"/>
	<ellipse transform="matrix(0.7071 -0.7071 0.7071 0.7071 83.3986 271.4242)" class="st0" cx="369.3" cy="35" rx="1" ry="1"/>
	<ellipse transform="matrix(0.7072 -0.707 0.707 0.7072 61.8222 282.6931)" class="st0" cx="372.2" cy="66.7" rx="0.9" ry="0.9"/>
	<ellipse transform="matrix(0.7933 -0.6088 0.6088 0.7933 35.2418 238.3224)" class="st0" cx="368.6" cy="67.3" rx="1" ry="1"/>
	<ellipse transform="matrix(0.5 -0.866 0.866 0.5 134.667 348.3759)" class="st0" cx="369" cy="57.6" rx="1" ry="1"/>
	<ellipse transform="matrix(0.866 -0.5 0.5 0.866 13.894 193.028)" class="st0" cx="367.2" cy="70.6" rx="0.9" ry="0.9"/>
	<ellipse transform="matrix(0.7071 -0.7071 0.7071 0.7071 63.0415 279.8563)" class="st0" cx="369.3" cy="63.8" rx="1" ry="1"/>
	
		<ellipse transform="matrix(0.1306 -0.9914 0.9914 0.1306 270.0644 410.5908)" class="st0" cx="369.2" cy="51.3" rx="1.1" ry="1.1"/>
	<ellipse transform="matrix(0.6087 -0.7934 0.7934 0.6087 96.4974 316.9252)" class="st0" cx="369.5" cy="60.6" rx="1" ry="1"/>
	<ellipse transform="matrix(0.866 -0.5 0.5 0.866 12.4074 194.5239)" class="st0" cx="369.2" cy="74.1" rx="0.8" ry="0.8"/>
	<ellipse transform="matrix(0.9914 -0.1307 0.1307 0.9914 -6.3019 47.3882)" class="st0" cx="357.9" cy="71.7" rx="1" ry="1"/>
	<ellipse transform="matrix(0.9914 -0.1305 0.1305 0.9914 -6.8187 47.4177)" class="st0" cx="358.4" cy="75.7" rx="0.9" ry="0.9"/>
	<ellipse transform="matrix(0.9239 -0.3827 0.3827 0.9239 -0.5076 145.3427)" class="st0" cx="365.1" cy="73.9" rx="0.9" ry="0.9"/>
	<ellipse transform="matrix(0.9238 -0.3828 0.3828 0.9238 0.8238 144.5177)" class="st0" cx="363.5" cy="70.2" rx="1" ry="1"/>
	<ellipse transform="matrix(0.3827 -0.9239 0.9239 0.3827 176.554 374.058)" class="st0" cx="368.2" cy="54.9" rx="1.1" ry="1.1"/>
	<ellipse transform="matrix(0.6087 -0.7934 0.7934 0.6087 97.1847 313.3797)" class="st0" cx="366.3" cy="58.2" rx="1.1" ry="1.1"/>
	<ellipse transform="matrix(0.7071 -0.7071 0.7071 0.7071 64.233 276.9797)" class="st0" cx="366.5" cy="61" rx="1" ry="1"/>
	<ellipse transform="matrix(0.259 -0.9659 0.9659 0.259 222.8646 397.7875)" class="st0" cx="370.7" cy="53.6" rx="1" ry="1"/>
	<ellipse transform="matrix(0.6086 -0.7935 0.7935 0.6086 95.8125 320.4734)" class="st0" cx="372.8" cy="63.1" rx="1" ry="1"/>
	<ellipse transform="matrix(0.1306 -0.9914 0.9914 0.1306 273.0535 415.0537)" class="st0" cx="373.2" cy="51.8" rx="1" ry="1"/>
	<ellipse transform="matrix(0.3828 -0.9238 0.9238 0.3828 177.3896 378.4635)" class="st0" cx="371.9" cy="56.5" rx="1" ry="1"/>
	
		<ellipse transform="matrix(0.4999 -0.8661 0.8661 0.4999 134.7089 344.3414)" class="st0" cx="365.5" cy="55.5" rx="1.1" ry="1.1"/>
	
		<ellipse transform="matrix(0.2589 -0.9659 0.9659 0.2589 220.9932 393.2218)" class="st0" cx="366.7" cy="52.6" rx="1.1" ry="1.1"/>
	<ellipse transform="matrix(0.7071 -0.7071 0.7071 0.7071 65.4246 274.1029)" class="st0" cx="363.6" cy="58.1" rx="1.1" ry="1.1"/>
	<ellipse transform="matrix(0.7933 -0.6088 0.6088 0.7933 38.1486 233.9738)" class="st0" cx="363.7" cy="60.8" rx="1.1" ry="1.1"/>
	<ellipse transform="matrix(0.866 -0.5 0.5 0.866 15.3915 191.5625)" class="st0" cx="365.1" cy="67.1" rx="1" ry="1"/>
	<ellipse transform="matrix(0.7933 -0.6088 0.6088 0.7933 36.687 236.1323)" class="st0" cx="366.1" cy="64" rx="1" ry="1"/>
	<ellipse transform="matrix(0.7934 -0.6087 0.6087 0.7934 50.8872 231.3648)" class="st0" cx="366.3" cy="40.7" rx="1.1" ry="1.1"/>
	<ellipse transform="matrix(0.9659 -0.2587 0.2587 0.9659 0.5151 96.465)" class="st0" cx="366.7" cy="46.3" rx="1.1" ry="1.1"/>
	<circle class="st0" cx="367.2" cy="49.4" r="1.1"/>
	<ellipse transform="matrix(0.9914 -0.1306 0.1306 0.9914 -3.0504 48.628)" class="st0" cx="369.2" cy="47.6" rx="1.1" ry="1.1"/>
	<ellipse transform="matrix(0.8661 -0.4999 0.4999 0.8661 16.8609 190.0195)" class="st0" cx="363.1" cy="63.5" rx="1" ry="1"/>
	<ellipse transform="matrix(0.7071 -0.7071 0.7071 0.7071 77.6452 269.041)" class="st0" cx="363.6" cy="40.8" rx="1.1" ry="1.1"/>
	<ellipse transform="matrix(0.8661 -0.4999 0.4999 0.8661 27.2927 188.5241)" class="st0" cx="365.5" cy="43.3" rx="1.1" ry="1.1"/>
	<ellipse transform="matrix(0.5 -0.866 0.866 0.5 146.8768 332.1073)" class="st0" cx="361.1" cy="38.9" rx="1.1" ry="1.1"/>
	<ellipse transform="matrix(0.7933 -0.6088 0.6088 0.7933 33.7789 240.4778)" class="st0" cx="371.1" cy="70.5" rx="0.9" ry="0.9"/>
	<ellipse transform="matrix(0.9914 -0.1306 0.1306 0.9914 -2.9466 49.1332)" class="st0" cx="373.2" cy="47" rx="1" ry="1"/>
	<ellipse transform="matrix(0.9239 -0.3826 0.3826 0.9239 2.1275 143.558)" class="st0" cx="362" cy="66.4" rx="1" ry="1"/>
	<ellipse transform="matrix(0.9659 -0.2588 0.2588 0.9659 -7.5716 96.3993)" class="st0" cx="362.3" cy="77" rx="0.8" ry="0.8"/>
	<ellipse transform="matrix(0.9659 -0.2588 0.2588 0.9659 -5.6085 95.5965)" class="st0" cx="360.2" cy="69.1" rx="1" ry="1"/>
	<ellipse transform="matrix(0.9659 -0.2588 0.2588 0.9659 -6.5921 95.9659)" class="st0" cx="361.3" cy="73" rx="0.9" ry="0.9"/>
	<ellipse transform="matrix(0.8661 -0.4999 0.4999 0.8661 18.3487 188.5277)" class="st0" cx="361.1" cy="60" rx="1.1" ry="1.1"/>
	<ellipse transform="matrix(0.9659 -0.259 0.259 0.9659 -3.6392 94.8559)" class="st0" cx="358.1" cy="61.2" rx="1.1" ry="1.1"/>
	<ellipse transform="matrix(0.9659 -0.2588 0.2588 0.9659 -4.6292 95.1663)" class="st0" cx="359.2" cy="65.2" rx="1" ry="1"/>
	<ellipse transform="matrix(0.9239 -0.3827 0.3827 0.9239 3.4584 142.7264)" class="st0" cx="360.4" cy="62.7" rx="1.1" ry="1.1"/>
	<ellipse transform="matrix(0.9914 -0.1306 0.1306 0.9914 -5.7769 47.2425)" class="st0" cx="357.4" cy="67.7" rx="1" ry="1"/>
	
		<ellipse transform="matrix(0.1306 -0.9914 0.9914 0.1306 278.9963 423.9699)" class="st0" cx="381.3" cy="52.9" rx="0.9" ry="0.9"/>
	<circle class="st0" cx="355" cy="33.2" r="1"/>
	<ellipse transform="matrix(0.866 -0.5 0.5 0.866 31.7716 175.1491)" class="st0" cx="342.7" cy="28.3" rx="0.9" ry="0.9"/>
	<circle class="st0" cx="355" cy="25" r="0.9"/>
	<circle class="st0" cx="355" cy="29.1" r="1"/>
	<ellipse transform="matrix(0.9239 -0.3826 0.3826 0.9239 12.9606 146.8564)" class="st0" cx="375.7" cy="40.8" rx="1" ry="1"/>
	<ellipse transform="matrix(0.7934 -0.6087 0.6087 0.7934 57.4095 235.7234)" class="st0" cx="376" cy="33.3" rx="0.9" ry="0.9"/>
	<ellipse transform="matrix(0.9659 -0.2588 0.2588 0.9659 -1.6838 101.9487)" class="st0" cx="386.3" cy="57.4" rx="0.8" ry="0.8"/>
	<ellipse transform="matrix(0.8661 -0.4998 0.4998 0.8661 31.7492 192.9696)" class="st0" cx="376.1" cy="37.2" rx="0.9" ry="0.9"/>
	<ellipse transform="matrix(0.9659 -0.2588 0.2588 0.9659 3.364 101.3872)" class="st0" cx="386.7" cy="37.9" rx="0.8" ry="0.8"/>
	<ellipse transform="matrix(0.9659 -0.2589 0.2589 0.9659 -4.9705 85.7512)" class="st0" cx="323.1" cy="61.7" rx="0.9" ry="0.9"/>
	
		<ellipse transform="matrix(0.2591 -0.9659 0.9659 0.2591 196.6548 342.7647)" class="st0" cx="321.7" cy="43.2" rx="0.8" ry="0.8"/>
	<ellipse transform="matrix(0.7072 -0.707 0.707 0.7072 61.1334 242.0955)" class="st0" cx="322.9" cy="47.2" rx="0.8" ry="0.8"/>
	<ellipse transform="matrix(0.7933 -0.6089 0.6089 0.7933 34.6548 205.884)" class="st0" cx="320.5" cy="51.9" rx="0.9" ry="0.9"/>
	<circle class="st0" cx="355" cy="20.9" r="0.8"/>
	<ellipse transform="matrix(0.5 -0.866 0.866 0.5 110.2433 332.1167)" class="st0" cx="342.7" cy="70.6" rx="0.9" ry="0.9"/>
	<ellipse transform="matrix(0.5 -0.866 0.866 0.5 106.1701 332.1122)" class="st0" cx="340.7" cy="74.1" rx="0.8" ry="0.8"/>
	<ellipse transform="matrix(0.6088 -0.7933 0.7933 0.6088 80.1447 297.0454)" class="st0" cx="341.3" cy="67.3" rx="1" ry="1"/>
	<ellipse transform="matrix(0.7071 -0.7071 0.7071 0.7071 51.7347 258.3125)" class="st0" cx="337.7" cy="66.7" rx="0.9" ry="0.9"/>
	<ellipse transform="matrix(0.7934 -0.6087 0.6087 0.7934 31.2397 218.2613)" class="st0" cx="337.1" cy="63.1" rx="1" ry="1"/>
	<ellipse transform="matrix(0.9914 -0.1306 0.1306 0.9914 -3.8858 44.4113)" class="st0" cx="336.7" cy="51.8" rx="1" ry="1"/>
	<ellipse transform="matrix(0.9659 -0.2588 0.2588 0.9659 -2.7322 88.6522)" class="st0" cx="335.3" cy="54.7" rx="1" ry="1"/>
	<ellipse transform="matrix(0.7072 -0.707 0.707 0.7072 48.8317 257.0809)" class="st0" cx="334.8" cy="69.6" rx="0.8" ry="0.8"/>
	<ellipse transform="matrix(0.866 -0.5 0.5 0.866 15.4028 176.6664)" class="st0" cx="337.3" cy="59.6" rx="1" ry="1"/>
	<ellipse transform="matrix(0.866 -0.5001 0.5001 0.866 12.4299 173.7043)" class="st0" cx="330.3" cy="63.7" rx="0.8" ry="0.8"/>
	<ellipse transform="matrix(0.9239 -0.3827 0.3827 0.9239 4.1137 133.6236)" class="st0" cx="338" cy="56.5" rx="1" ry="1"/>
	<ellipse transform="matrix(0.9914 -0.1306 0.1306 0.9914 -3.9894 43.8791)" class="st0" cx="332.7" cy="52.4" rx="1" ry="1"/>
	<ellipse transform="matrix(0.2588 -0.9659 0.9659 0.2588 176.0653 379.0031)" class="st0" cx="335" cy="74.8" rx="0.8" ry="0.8"/>
	<ellipse transform="matrix(0.6087 -0.7934 0.7934 0.6087 76.6361 296.3672)" class="st0" cx="338.8" cy="70.5" rx="0.9" ry="0.9"/>
	<ellipse transform="matrix(0.7933 -0.6088 0.6088 0.7933 48.3186 205.7917)" class="st0" cx="327.3" cy="31.7" rx="0.9" ry="0.9"/>
	<ellipse transform="matrix(0.6087 -0.7934 0.7934 0.6087 104.264 277.9531)" class="st0" cx="333.9" cy="33.3" rx="0.9" ry="0.9"/>
	<ellipse transform="matrix(0.7071 -0.7071 0.7071 0.7071 54.6113 259.5041)" class="st0" cx="340.6" cy="63.8" rx="1" ry="1"/>
	<ellipse transform="matrix(0.9239 -0.3827 0.3827 0.9239 5.002 134.9704)" class="st0" cx="341.7" cy="54.9" rx="1.1" ry="1.1"/>
	<ellipse transform="matrix(0.5 -0.866 0.866 0.5 146.3313 303.2579)" class="st0" cx="335.8" cy="24.9" rx="0.8" ry="0.8"/>
	<ellipse transform="matrix(0.8661 -0.4999 0.4999 0.8661 16.8732 178.1051)" class="st0" cx="340.9" cy="57.6" rx="1" ry="1"/>
	<ellipse transform="matrix(0.4999 -0.8661 0.8661 0.4999 114.3324 332.1347)" class="st0" cx="344.8" cy="67.1" rx="1" ry="1"/>
	<ellipse transform="matrix(0.6088 -0.7933 0.7933 0.6088 83.6847 297.7596)" class="st0" cx="343.7" cy="64" rx="1" ry="1"/>
	
		<ellipse transform="matrix(0.3827 -0.9239 0.9239 0.3827 144.5306 364.1976)" class="st0" cx="344.8" cy="73.9" rx="0.9" ry="0.9"/>
	<ellipse transform="matrix(0.707 -0.7072 0.7072 0.707 57.5102 260.7274)" class="st0" cx="343.4" cy="61" rx="1" ry="1"/>
	<ellipse transform="matrix(0.6087 -0.7934 0.7934 0.6087 103.5453 281.4671)" class="st0" cx="337.1" cy="35.8" rx="1" ry="1"/>
	<ellipse transform="matrix(0.1306 -0.9914 0.9914 0.1306 279.7559 381.4165)" class="st0" cx="357.4" cy="31.2" rx="1" ry="1"/>
	
		<ellipse transform="matrix(0.1305 -0.9915 0.9915 0.1305 275.3304 384.4051)" class="st0" cx="356.8" cy="35.2" rx="1.1" ry="1.1"/>
	<ellipse transform="matrix(0.1307 -0.9914 0.9914 0.1307 284.1684 378.4261)" class="st0" cx="357.9" cy="27.2" rx="1" ry="1"/>
	<ellipse transform="matrix(0.9914 -0.1306 0.1306 0.9914 -1.5771 46.4221)" class="st0" cx="353.1" cy="35.2" rx="1.1" ry="1.1"/>
	<ellipse transform="matrix(0.9914 -0.1306 0.1306 0.9914 -0.5339 46.1876)" class="st0" cx="352" cy="27.2" rx="1" ry="1"/>
	
		<ellipse transform="matrix(0.1305 -0.9914 0.9914 0.1305 288.7084 375.4622)" class="st0" cx="358.4" cy="23.1" rx="0.9" ry="0.9"/>
	<ellipse transform="matrix(0.9914 -0.1306 0.1306 0.9914 -1.0551 46.3093)" class="st0" cx="352.5" cy="31.2" rx="1" ry="1"/>
	<ellipse transform="matrix(0.2588 -0.9659 0.9659 0.2588 238.2148 370.0075)" class="st0" cx="360.2" cy="29.8" rx="1" ry="1"/>
	
		<ellipse transform="matrix(0.9914 -0.1305 0.1305 0.9914 -1.321531e-02 46.0631)" class="st0" cx="351.5" cy="23.1" rx="0.9" ry="0.9"/>
	<ellipse transform="matrix(0.3827 -0.9239 0.9239 0.3827 197.925 353.5777)" class="st0" cx="363.5" cy="28.7" rx="1" ry="1"/>
	<ellipse transform="matrix(0.2588 -0.9659 0.9659 0.2588 254.4616 365.7208)" class="st0" cx="365.5" cy="17" rx="0.8" ry="0.8"/>
	<ellipse transform="matrix(0.5 -0.866 0.866 0.5 159.0905 332.1137)" class="st0" cx="367.2" cy="28.3" rx="0.9" ry="0.9"/>
	
		<ellipse transform="matrix(0.2589 -0.9659 0.9659 0.2589 242.7649 368.1032)" class="st0" cx="361.3" cy="25.8" rx="0.9" ry="0.9"/>
	
		<ellipse transform="matrix(0.2588 -0.9659 0.9659 0.2588 247.3764 366.2199)" class="st0" cx="362.3" cy="21.9" rx="0.8" ry="0.8"/>
	
		<ellipse transform="matrix(0.3827 -0.9239 0.9239 0.3827 202.3588 352.6958)" class="st0" cx="365.1" cy="24.9" rx="0.9" ry="0.9"/>
	<ellipse transform="matrix(0.866 -0.5 0.5 0.866 33.2635 173.666)" class="st0" cx="340.7" cy="24.8" rx="0.8" ry="0.8"/>
	<ellipse transform="matrix(0.7071 -0.7071 0.7071 0.7071 74.9684 251.0719)" class="st0" cx="340.6" cy="35" rx="1" ry="1"/>
	<ellipse transform="matrix(0.7933 -0.6088 0.6088 0.7933 51.2893 214.3052)" class="st0" cx="341.3" cy="31.6" rx="1" ry="1"/>
	<ellipse transform="matrix(0.7071 -0.7071 0.7071 0.7071 76.16 248.1952)" class="st0" cx="337.7" cy="32.2" rx="0.9" ry="0.9"/>
	<ellipse transform="matrix(0.7933 -0.6089 0.6089 0.7933 49.8453 216.4946)" class="st0" cx="343.7" cy="34.8" rx="1" ry="1"/>
	<ellipse transform="matrix(0.7934 -0.6087 0.6087 0.7934 52.7053 212.0724)" class="st0" cx="338.8" cy="28.4" rx="0.9" ry="0.9"/>
	<ellipse transform="matrix(0.9659 -0.2589 0.2589 0.9659 4.2131 91.5429)" class="st0" cx="349.7" cy="29.8" rx="1" ry="1"/>
	<ellipse transform="matrix(0.9659 -0.259 0.259 0.9659 5.1997 91.1634)" class="st0" cx="348.6" cy="25.8" rx="0.9" ry="0.9"/>
	<ellipse transform="matrix(0.866 -0.5 0.5 0.866 30.2924 176.6593)" class="st0" cx="344.8" cy="31.8" rx="1" ry="1"/>
	<ellipse transform="matrix(0.9659 -0.2588 0.2588 0.9659 6.1711 90.7055)" class="st0" cx="347.6" cy="21.9" rx="0.8" ry="0.8"/>
	<circle class="st0" cx="349.7" cy="18" r="0.8"/>
	<ellipse transform="matrix(0.9239 -0.3825 0.3825 0.9239 16.6883 133.7848)" class="st0" cx="344.8" cy="24.9" rx="0.9" ry="0.9"/>
	<ellipse transform="matrix(0.9239 -0.3827 0.3827 0.9239 15.3937 134.7436)" class="st0" cx="346.3" cy="28.7" rx="1" ry="1"/>
	<ellipse transform="matrix(0.5 -0.866 0.866 0.5 163.1529 332.1095)" class="st0" cx="369.2" cy="24.8" rx="0.8" ry="0.8"/>
	<ellipse transform="matrix(0.6087 -0.7934 0.7934 0.6087 119.1559 304.8317)" class="st0" cx="368.6" cy="31.6" rx="1" ry="1"/>
	<ellipse transform="matrix(0.9914 -0.1305 0.1305 0.9914 -2.7392 50.1433)" class="st0" cx="381.3" cy="46" rx="0.9" ry="0.9"/>
	<circle class="st0" cx="383.4" cy="49.4" r="0.8"/>
	<ellipse transform="matrix(0.9659 -0.2588 0.2588 0.9659 2.1641 101.761)" class="st0" cx="387.6" cy="42.7" rx="0.8" ry="0.8"/>
	<ellipse transform="matrix(0.966 -0.2586 0.2586 0.966 -2.7551 102.5484)" class="st0" cx="388.4" cy="61.7" rx="0.8" ry="0.8"/>
	<ellipse transform="matrix(0.9659 -0.2588 0.2588 0.9659 2.1455 100.4242)" class="st0" cx="382.5" cy="42.1" rx="0.8" ry="0.8"/>
	<circle class="st0" cx="374.3" cy="23.6" r="0.8"/>
	
		<ellipse transform="matrix(0.6087 -0.7934 0.7934 0.6087 122.7047 305.5506)" class="st0" cx="371.1" cy="28.4" rx="0.9" ry="0.9"/>
	<ellipse transform="matrix(0.7071 -0.7071 0.7071 0.7071 86.2753 272.6158)" class="st0" cx="372.2" cy="32.2" rx="0.9" ry="0.9"/>
	<ellipse transform="matrix(0.9659 -0.2588 0.2588 0.9659 1.7349 99.4154)" class="st0" cx="378.5" cy="43.1" rx="0.9" ry="0.9"/>
	<ellipse transform="matrix(0.7071 -0.7071 0.7071 0.7071 89.152 273.8073)" class="st0" cx="375.1" cy="29.3" rx="0.8" ry="0.8"/>
	<ellipse transform="matrix(0.866 -0.5 0.5 0.866 33.2659 194.5197)" class="st0" cx="379.6" cy="35.2" rx="0.8" ry="0.8"/>
	<ellipse transform="matrix(0.9239 -0.3827 0.3827 0.9239 13.8491 148.1993)" class="st0" cx="379.5" cy="39.3" rx="0.9" ry="0.9"/>
	<ellipse transform="matrix(0.9914 -0.1305 0.1305 0.9914 -2.8429 49.6355)" class="st0" cx="377.2" cy="46.5" rx="1" ry="1"/>
</g>
<g>
	<path class="st0" d="M87.8,43.3c-0.1-0.8-0.8-1.3-1.6-1.2l-34,4.6l-21-27.1c-0.2-0.3-0.6-0.5-1-0.5c-0.4,0-0.8,0.1-1.1,0.3l-2,1.5
		c-0.4,0.3-0.6,0.8-0.5,1.3c0,0.2,0.1,0.5,0.3,0.7l21,27.1l-13,31.7c-0.1,0.2-0.1,0.5-0.1,0.7c0,0.1,0,0.2,0.1,0.4
		c0.1,0.4,0.4,0.6,0.8,0.8l2.3,1c0.7,0.3,1.6-0.1,1.9-0.8l13-31.7l34-4.6c0.8-0.1,1.3-0.8,1.2-1.6L87.8,43.3z"/>
	<path class="st0" d="M94.6,27C86.2,10.7,69.5,0.5,51,0.5c-7.9,0-15.4,1.8-22.4,5.5C17,12,8.4,22.1,4.4,34.6
		C0.4,47.1,1.5,60.3,7.5,72C16,88.3,32.7,98.5,51.1,98.5c7.9,0,15.4-1.8,22.4-5.5c11.6-6,20.2-16.2,24.2-28.6
		C101.7,51.9,100.6,38.7,94.6,27z M96.4,64c-3.9,12.1-12.2,22-23.5,27.8c-6.8,3.5-14.2,5.3-21.8,5.3c-17.9,0-34.2-9.9-42.4-25.8
		C2.9,60,1.8,47.1,5.7,35C9.6,22.9,17.9,13,29.2,7.2C36.1,3.7,43.4,1.9,51,1.9c17.9,0,34.1,9.9,42.4,25.8
		C99.2,39,100.3,51.9,96.4,64z"/>
</g>
<g>
	<path class="st0" d="M253.7,98.5c-27,0-49-22-49-49c0-27,22-49,49-49c27,0,49,22,49,49C302.7,76.5,280.7,98.5,253.7,98.5z
		 M253.7,1.9c-26.3,0-47.6,21.4-47.6,47.6s21.4,47.6,47.6,47.6s47.6-21.4,47.6-47.6S280,1.9,253.7,1.9z"/>
	<path class="st0" d="M299.8,34.8c-2.6,0.4-4.6,2.6-4.6,5.3v13.9c0,1.4-1.1,2.6-2.6,2.6c-1.4,0-2.6-1.1-2.6-2.6V48
		c0-3-2.4-5.4-5.4-5.4c-3,0-5.4,2.4-5.4,5.4v23.8c0,1.4-1.1,2.6-2.6,2.6c-1.4,0-2.6-1.1-2.6-2.6V55.9c0-3-2.4-5.4-5.4-5.4
		c-3,0-5.4,2.4-5.4,5.4v8.9c0,1.4-1.1,2.6-2.6,2.6s-2.6-1.1-2.6-2.6V32.2c0-3-2.4-5.4-5.4-5.4c-3,0-5.4,2.4-5.4,5.4v19.2
		c0,1.4-1.1,2.6-2.6,2.6c-1.4,0-2.6-1.1-2.6-2.6V24.2c0-3-2.4-5.4-5.4-5.4c-3,0-5.4,2.4-5.4,5.4v35c0,1.4-1.1,2.6-2.6,2.6
		c-1.4,0-2.6-1.1-2.6-2.6V48c0-3-2.4-5.4-5.4-5.4c-3,0-5.4,2.4-5.4,5.4v25.6c0,1.4-1.1,2.6-2.6,2.6c0.2,0.3,1.7,2.5,1.7,2.5
		c2.1-0.7,3.7-2.7,3.7-5.1V48c0-1.4,1.2-2.6,2.6-2.6c1.4,0,2.6,1.1,2.6,2.6v11.2c0,3,2.4,5.4,5.4,5.4s5.4-2.4,5.4-5.4v-35
		c0-1.4,1.1-2.6,2.6-2.6c1.4,0,2.6,1.1,2.6,2.6v27.1c0,3,2.4,5.4,5.4,5.4c3,0,5.4-2.4,5.4-5.4V32.2c0-1.4,1.1-2.6,2.6-2.6
		c1.4,0,2.6,1.1,2.6,2.6v32.7c0,3,2.4,5.4,5.4,5.4s5.4-2.4,5.4-5.4v-8.9c0-1.4,1.1-2.6,2.6-2.6c1.4,0,2.6,1.1,2.6,2.6v15.8
		c0,3,2.4,5.4,5.4,5.4s5.4-2.4,5.4-5.4V48c0-1.4,1.1-2.6,2.6-2.6c1.4,0,2.6,1.1,2.6,2.6v5.9c0,3,2.4,5.4,5.4,5.4
		c3,0,5.4-2.4,5.4-5.4V40.1c0-1.4,1.1-2.6,2.6-2.6C300.6,37.5,300,34.7,299.8,34.8z"/>
</g>
</svg>
