<?xml version="1.0" encoding="utf-8"?>
<!-- Generator: Adobe Illustrator 21.0.2, SVG Export Plug-In . SVG Version: 6.00 Build 0)  -->
<svg version="1.1" id="Layer_1" xmlns="http://www.w3.org/2000/svg" xmlns:xlink="http://www.w3.org/1999/xlink" x="0px" y="0px"
	 viewBox="0 0 223 55" style="enable-background:new 0 0 223 55;" xml:space="preserve">
<style type="text/css">
	.st0{fill:#6A829B;}
	.st1{fill:#FFFFFF;}
</style>
<g>
	<g>
		<circle class="st0" cx="83.5" cy="27.5" r="27.5"/>
		<g>
			<path class="st1" d="M83.5,2.5c-13.8,0-25,11.2-25,25s11.2,25,25,25s25-11.2,25-25S97.3,2.5,83.5,2.5z M83.5,51.8
				c-13.4,0-24.3-10.9-24.3-24.3S70.1,3.2,83.5,3.2c13.4,0,24.3,10.9,24.3,24.3S96.9,51.8,83.5,51.8z"/>
			<path class="st1" d="M88.7,29.7c-0.6,0.8-1.6,1.6-3.4,1.3c0,0-1.9-1.8-2.4-4.8c4.8-7.4-4.4-11.7-4.4-11.7
				c-3.4,9,1.6,11.3,3.6,11.8c0.3,1,1,3.4,2.5,5.3c0,0-1.5-1.8-3.8-2c-5.5-7-12.6,0.3-12.6,0.3s5.5,5.8,10.4,2.4
				c0.9-0.6,1.5-1.3,1.9-1.8c1.4,0.4,3.1,1.1,4.5,2.9c0,0,2.1,4.5,6.2,6.9c0,0,0.6,0.7,1-0.5c0,0-6-4.1-6.3-7.6c0,0,2.3-0.3,3.7-1.9
				c8.4-1.7,5.2-11.2,5.2-11.2C84.1,23.2,88.7,29.7,88.7,29.7z"/>
		</g>
	</g>
	<g>
		<circle class="st0" cx="139.5" cy="27.5" r="27.5"/>
		<g>
			<path class="st1" d="M139.5,52.5c-13.8,0-25-11.2-25-25s11.2-25,25-25s25,11.2,25,25S153.3,52.5,139.5,52.5z M139.5,3.2
				c-13.4,0-24.3,10.9-24.3,24.3s10.9,24.3,24.3,24.3s24.3-10.9,24.3-24.3S152.9,3.2,139.5,3.2z"/>
			<path class="st1" d="M163,20c-1.3,0.2-2.3,1.3-2.3,2.7v7.1c0,0.7-0.6,1.3-1.3,1.3c-0.7,0-1.3-0.6-1.3-1.3v-3.1
				c0-1.5-1.2-2.8-2.8-2.8s-2.8,1.2-2.8,2.8v12.1c0,0.7-0.6,1.3-1.3,1.3c-0.7,0-1.3-0.6-1.3-1.3v-8.1c0-1.5-1.2-2.8-2.8-2.8
				c-1.5,0-2.8,1.2-2.8,2.8v4.5c0,0.7-0.6,1.3-1.3,1.3c-0.8,0-1.3-0.6-1.3-1.3V18.7c0-1.5-1.2-2.8-2.8-2.8c-1.5,0-2.8,1.2-2.8,2.8
				v9.8c0,0.7-0.6,1.3-1.3,1.3c-0.7,0-1.3-0.6-1.3-1.3V14.6c0-1.5-1.2-2.8-2.8-2.8s-2.8,1.2-2.8,2.8v17.9c0,0.7-0.6,1.3-1.3,1.3
				c-0.7,0-1.3-0.6-1.3-1.3v-5.7c0-1.5-1.2-2.8-2.8-2.8c-1.5,0-2.8,1.2-2.8,2.8v13.1c0,0.7-0.6,1.3-1.3,1.3c0.1,0.2,0.9,1.3,0.9,1.3
				c1.1-0.4,1.9-1.4,1.9-2.6V26.7c0-0.7,0.6-1.3,1.3-1.3s1.3,0.6,1.3,1.3v5.7c0,1.5,1.2,2.8,2.8,2.8s2.8-1.2,2.8-2.8V14.6
				c0-0.7,0.6-1.3,1.3-1.3c0.7,0,1.3,0.6,1.3,1.3v13.8c0,1.5,1.2,2.8,2.8,2.8s2.8-1.2,2.8-2.8v-9.7c0-0.7,0.6-1.3,1.3-1.3
				c0.7,0,1.3,0.6,1.3,1.3v16.7c0,1.5,1.2,2.8,2.8,2.8c1.5,0,2.8-1.2,2.8-2.8v-4.5c0-0.7,0.6-1.3,1.3-1.3c0.7,0,1.3,0.6,1.3,1.3v8.1
				c0,1.5,1.2,2.8,2.8,2.8s2.8-1.2,2.8-2.8V26.7c0-0.7,0.6-1.3,1.3-1.3c0.7,0,1.3,0.6,1.3,1.3v3c0,1.5,1.2,2.8,2.8,2.8
				s2.8-1.2,2.8-2.8v-7c0-0.7,0.6-1.3,1.3-1.3C163.4,21.4,163.1,19.9,163,20z"/>
		</g>
	</g>
	<g>
		<circle class="st0" cx="195.5" cy="27.5" r="27.5"/>
		<g>
			<path class="st1" d="M195.5,2.5c-13.8,0-25,11.2-25,25s11.2,25,25,25s25-11.2,25-25S209.3,2.5,195.5,2.5z M195.5,51.8
				c-13.4,0-24.3-10.9-24.3-24.3s10.9-24.3,24.3-24.3s24.3,10.9,24.3,24.3S208.9,51.8,195.5,51.8z"/>
			<ellipse transform="matrix(0.6088 -0.7933 0.7933 0.6088 56.3161 157.669)" class="st1" cx="188" cy="21.7" rx="0.5" ry="0.5"/>
			<ellipse transform="matrix(0.7933 -0.6088 0.6088 0.7933 26.2754 120.7784)" class="st1" cx="191" cy="21.7" rx="0.6" ry="0.6"/>
			<ellipse transform="matrix(0.5 -0.866 0.866 0.5 73.9591 176.7786)" class="st1" cx="190.1" cy="24.3" rx="0.6" ry="0.6"/>
			<ellipse transform="matrix(0.707 -0.7072 0.7072 0.707 40.2739 140.3954)" class="st1" cx="189.6" cy="21.6" rx="0.5" ry="0.5"/>
			<ellipse transform="matrix(0.5001 -0.866 0.866 0.5001 73.9667 174.7099)" class="st1" cx="188.3" cy="23.3" rx="0.5" ry="0.5"/>
			
				<ellipse transform="matrix(0.3826 -0.9239 0.9239 0.3826 93.7164 189.6129)" class="st1" cx="188.7" cy="24.7" rx="0.6" ry="0.6"/>
			<ellipse transform="matrix(0.6088 -0.7933 0.7933 0.6088 55.9459 159.4702)" class="st1" cx="189.7" cy="23" rx="0.6" ry="0.6"/>
			<ellipse transform="matrix(0.866 -0.5001 0.5001 0.866 15.5107 98.3879)" class="st1" cx="191.3" cy="20.3" rx="0.5" ry="0.5"/>
			
				<ellipse transform="matrix(0.2589 -0.9659 0.9659 0.2589 111.3241 212.0482)" class="st1" cx="193.8" cy="33.5" rx="0.6" ry="0.6"/>
			
				<ellipse transform="matrix(0.1306 -0.9914 0.9914 0.1306 134.6867 222.9966)" class="st1" cx="194.5" cy="34.7" rx="0.6" ry="0.6"/>
			<ellipse transform="matrix(0.9659 -0.2589 0.2589 0.9659 1.064 50.9211)" class="st1" cx="193.9" cy="21.4" rx="0.6" ry="0.6"/>
			<ellipse transform="matrix(0.9659 -0.2588 0.2588 0.9659 1.553 50.6904)" class="st1" cx="193.3" cy="19.4" rx="0.5" ry="0.5"/>
			<ellipse transform="matrix(0.9239 -0.3826 0.3826 0.9239 6.7373 75.3005)" class="st1" cx="192.7" cy="20.7" rx="0.6" ry="0.6"/>
			<ellipse transform="matrix(0.9238 -0.3828 0.3828 0.9238 7.4282 74.8763)" class="st1" cx="191.9" cy="18.8" rx="0.5" ry="0.5"/>
			<ellipse transform="matrix(0.866 -0.5 0.5 0.866 10.1873 99.1365)" class="st1" cx="190.1" cy="30.6" rx="0.6" ry="0.6"/>
			
				<ellipse transform="matrix(0.7933 -0.6088 0.6088 0.7933 19.766 122.0864)" class="st1" cx="189.7" cy="31.9" rx="0.6" ry="0.6"/>
			
				<ellipse transform="matrix(0.9659 -0.2589 0.2589 0.9659 -1.0721 50.0352)" class="st1" cx="189.4" cy="29.1" rx="0.6" ry="0.6"/>
			
				<ellipse transform="matrix(0.2589 -0.9659 0.9659 0.2589 115.4102 202.1839)" class="st1" cx="189.5" cy="25.9" rx="0.6" ry="0.6"/>
			<ellipse transform="matrix(0.5 -0.866 0.866 0.5 65.6539 183.0071)" class="st1" cx="191.3" cy="34.6" rx="0.5" ry="0.5"/>
			
				<ellipse transform="matrix(0.2588 -0.9659 0.9659 0.2588 114.4579 199.813)" class="st1" cx="187.4" cy="25.3" rx="0.5" ry="0.5"/>
			<ellipse transform="matrix(0.7072 -0.707 0.707 0.7072 39.6328 141.8405)" class="st1" cx="191.1" cy="23.1" rx="0.6" ry="0.6"/>
			<ellipse transform="matrix(0.6087 -0.7934 0.7934 0.6087 48.3445 164.5671)" class="st1" cx="191" cy="33.3" rx="0.6" ry="0.6"/>
			<ellipse transform="matrix(0.5 -0.866 0.866 0.5 73.9309 172.6702)" class="st1" cx="186.5" cy="22.3" rx="0.5" ry="0.5"/>
			
				<ellipse transform="matrix(0.3826 -0.9239 0.9239 0.3826 93.2942 187.3212)" class="st1" cx="186.8" cy="23.9" rx="0.5" ry="0.5"/>
			<circle class="st1" cx="187.2" cy="27.4" r="0.5"/>
			
				<ellipse transform="matrix(0.1306 -0.9914 0.9914 0.1306 137.3359 209.6973)" class="st1" cx="188.2" cy="26.5" rx="0.6" ry="0.6"/>
			
				<ellipse transform="matrix(0.9914 -0.1305 0.1305 0.9914 -2.0991 24.8035)" class="st1" cx="188.2" cy="28.4" rx="0.6" ry="0.6"/>
			<circle class="st1" cx="189.2" cy="27.4" r="0.6"/>
			<ellipse transform="matrix(0.5 -0.866 0.866 0.5 73.9672 193.39)" class="st1" cx="204.5" cy="32.6" rx="0.5" ry="0.5"/>
			
				<ellipse transform="matrix(0.259 -0.9659 0.9659 0.259 123.1516 220.8233)" class="st1" cx="205.5" cy="30.1" rx="0.5" ry="0.5"/>
			
				<ellipse transform="matrix(0.7071 -0.7071 0.7071 0.7071 33.5716 156.5497)" class="st1" cx="205.8" cy="37.8" rx="0.4" ry="0.4"/>
			<circle class="st1" cx="195.5" cy="39.9" r="0.5"/>
			<circle class="st1" cx="195.5" cy="42" r="0.4"/>
			<circle class="st1" cx="195.5" cy="37.9" r="0.5"/>
			<ellipse transform="matrix(0.3828 -0.9238 0.9238 0.3828 97.7444 210.0062)" class="st1" cx="206" cy="31.8" rx="0.5" ry="0.5"/>
			<ellipse transform="matrix(0.9659 -0.2588 0.2588 0.9659 -3.233 55.335)" class="st1" cx="208.5" cy="39.9" rx="0.4" ry="0.4"/>
			
				<ellipse transform="matrix(0.9659 -0.2588 0.2588 0.9659 -3.7631 54.7879)" class="st1" cx="206.2" cy="41.7" rx="0.4" ry="0.4"/>
			
				<ellipse transform="matrix(0.6087 -0.7934 0.7934 0.6087 52.3643 177.577)" class="st1" cx="206.2" cy="35.7" rx="0.5" ry="0.5"/>
			
				<ellipse transform="matrix(0.9659 -0.2588 0.2588 0.9659 -2.2406 55.3005)" class="st1" cx="208.9" cy="36.2" rx="0.4" ry="0.4"/>
			
				<ellipse transform="matrix(0.4999 -0.8661 0.8661 0.4999 73.9844 195.4669)" class="st1" cx="206.2" cy="33.7" rx="0.5" ry="0.5"/>
			
				<ellipse transform="matrix(0.7071 -0.7071 0.7071 0.7071 33.4145 144.4463)" class="st1" cx="191.1" cy="31.9" rx="0.6" ry="0.6"/>
			<ellipse transform="matrix(0.866 -0.5 0.5 0.866 7.9051 96.8496)" class="st1" cx="184.7" cy="33.7" rx="0.5" ry="0.5"/>
			<ellipse transform="matrix(0.5 -0.866 0.866 0.5 73.9554 168.4966)" class="st1" cx="182.9" cy="20.2" rx="0.4" ry="0.4"/>
			
				<ellipse transform="matrix(0.1305 -0.9914 0.9914 0.1305 132.7906 202.8793)" class="st1" cx="182.1" cy="25.7" rx="0.5" ry="0.5"/>
			
				<ellipse transform="matrix(0.7071 -0.7071 0.7071 0.7071 41.6229 133.4576)" class="st1" cx="181.9" cy="16.5" rx="0.5" ry="0.5"/>
			
				<ellipse transform="matrix(0.2588 -0.9659 0.9659 0.2588 111.5645 192.8457)" class="st1" cx="181.4" cy="23.7" rx="0.4" ry="0.4"/>
			
				<ellipse transform="matrix(0.9659 -0.2589 0.2589 0.9659 -1.6957 48.5462)" class="st1" cx="183.5" cy="30.7" rx="0.5" ry="0.5"/>
			<circle class="st1" cx="183" cy="27.4" r="0.5"/>
			
				<ellipse transform="matrix(0.2588 -0.9659 0.9659 0.2588 112.5582 195.1291)" class="st1" cx="183.4" cy="24.2" rx="0.5" ry="0.5"/>
			<ellipse transform="matrix(0.866 -0.5 0.5 0.866 14.0232 92.9232)" class="st1" cx="180.4" cy="20.3" rx="0.4" ry="0.4"/>
			
				<ellipse transform="matrix(0.1305 -0.9914 0.9914 0.1305 134.3333 205.1055)" class="st1" cx="184.1" cy="26" rx="0.5" ry="0.5"/>
			<ellipse transform="matrix(0.9238 -0.3828 0.3828 0.9238 1.8945 73.1984)" class="st1" cx="184.9" cy="31.8" rx="0.5" ry="0.5"/>
			
				<ellipse transform="matrix(0.7934 -0.6087 0.6087 0.7934 16.4327 119.8236)" class="st1" cx="184.7" cy="35.7" rx="0.5" ry="0.5"/>
			<circle class="st1" cx="185.1" cy="27.4" r="0.5"/>
			<circle class="st1" cx="181" cy="27.4" r="0.4"/>
			
				<ellipse transform="matrix(0.9659 -0.2588 0.2588 0.9659 -1.9018 48.0152)" class="st1" cx="181.4" cy="31.2" rx="0.4" ry="0.4"/>
			<ellipse transform="matrix(0.9914 -0.1305 0.1305 0.9914 -2.2582 24.0049)" class="st1" cx="182" cy="29.2" rx="0.5" ry="0.5"/>
			<circle class="st1" cx="181.7" cy="37" r="0.4"/>
			<ellipse transform="matrix(0.9915 -0.1304 0.1304 0.9915 -3.0493 23.851)" class="st1" cx="180.6" cy="35.2" rx="0.5" ry="0.5"/>
			
				<ellipse transform="matrix(0.9659 -0.2588 0.2588 0.9659 -2.4222 48.0303)" class="st1" cx="181.2" cy="33.2" rx="0.4" ry="0.4"/>
			<ellipse transform="matrix(0.866 -0.5 0.5 0.866 9.2292 93.846)" class="st1" cx="179.7" cy="29.7" rx="0.4" ry="0.4"/>
			<ellipse transform="matrix(0.9239 -0.3827 0.3827 0.9239 1.5129 71.1839)" class="st1" cx="179.7" cy="31.8" rx="0.5" ry="0.5"/>
			
				<ellipse transform="matrix(0.1304 -0.9915 0.9915 0.1304 130.1872 226.0889)" class="st1" cx="194" cy="38.8" rx="0.5" ry="0.5"/>
			
				<ellipse transform="matrix(0.1306 -0.9914 0.9914 0.1306 132.4015 224.5902)" class="st1" cx="194.3" cy="36.8" rx="0.5" ry="0.5"/>
			
				<ellipse transform="matrix(0.2588 -0.9659 0.9659 0.2588 108.99 213.0735)" class="st1" cx="193.3" cy="35.5" rx="0.5" ry="0.5"/>
			
				<ellipse transform="matrix(0.3828 -0.9238 0.9238 0.3828 85.0537 199.561)" class="st1" cx="191.9" cy="36.1" rx="0.5" ry="0.5"/>
			
				<ellipse transform="matrix(0.8661 -0.4999 0.4999 0.8661 14.7122 99.1152)" class="st1" cx="192.4" cy="22.1" rx="0.6" ry="0.6"/>
			
				<ellipse transform="matrix(0.3826 -0.9239 0.9239 0.3826 87.3612 199.1496)" class="st1" cx="192.7" cy="34.2" rx="0.6" ry="0.6"/>
			
				<ellipse transform="matrix(0.2589 -0.9659 0.9659 0.2589 106.6666 213.9989)" class="st1" cx="192.8" cy="37.5" rx="0.5" ry="0.5"/>
			
				<ellipse transform="matrix(0.2589 -0.9659 0.9659 0.2589 104.2966 214.9531)" class="st1" cx="192.2" cy="39.5" rx="0.5" ry="0.5"/>
			
				<ellipse transform="matrix(0.1305 -0.9914 0.9914 0.1305 127.8741 227.576)" class="st1" cx="193.7" cy="40.9" rx="0.5" ry="0.5"/>
			<ellipse transform="matrix(0.5 -0.866 0.866 0.5 67.6897 183.008)" class="st1" cx="192.3" cy="32.9" rx="0.6" ry="0.6"/>
			<ellipse transform="matrix(0.3829 -0.9238 0.9238 0.3829 92.77 185.0172)" class="st1" cx="184.9" cy="23.1" rx="0.5" ry="0.5"/>
			<ellipse transform="matrix(0.5001 -0.866 0.866 0.5001 73.9389 170.5487)" class="st1" cx="184.7" cy="21.2" rx="0.5" ry="0.5"/>
			<ellipse transform="matrix(0.9239 -0.3827 0.3827 0.9239 1.4305 72.5016)" class="st1" cx="183" cy="32.7" rx="0.5" ry="0.5"/>
			
				<ellipse transform="matrix(0.6087 -0.7934 0.7934 0.6087 59.3169 152.0852)" class="st1" cx="183.8" cy="15.9" rx="0.5" ry="0.5"/>
			<ellipse transform="matrix(0.7071 -0.7071 0.7071 0.7071 41.02 134.9372)" class="st1" cx="183.4" cy="18" rx="0.4" ry="0.4"/>
			<ellipse transform="matrix(0.7072 -0.707 0.707 0.7072 42.0684 135.9701)" class="st1" cx="185.2" cy="17.2" rx="0.4" ry="0.4"/>
			<ellipse transform="matrix(0.3827 -0.9239 0.9239 0.3827 92.3423 182.8113)" class="st1" cx="183" cy="22.3" rx="0.5" ry="0.5"/>
			<ellipse transform="matrix(0.2587 -0.966 0.966 0.2587 102.058 215.971)" class="st1" cx="191.7" cy="41.5" rx="0.4" ry="0.4"/>
			
				<ellipse transform="matrix(0.3828 -0.9238 0.9238 0.3828 82.7478 200.0281)" class="st1" cx="191.1" cy="38.1" rx="0.5" ry="0.5"/>
			<ellipse transform="matrix(0.7934 -0.6087 0.6087 0.7934 18.6697 121.3041)" class="st1" cx="188" cy="33.1" rx="0.5" ry="0.5"/>
			
				<ellipse transform="matrix(0.9659 -0.2588 0.2588 0.9659 -1.2744 49.5162)" class="st1" cx="187.4" cy="29.6" rx="0.5" ry="0.5"/>
			
				<ellipse transform="matrix(0.2588 -0.9659 0.9659 0.2588 113.519 197.4965)" class="st1" cx="185.4" cy="24.8" rx="0.5" ry="0.5"/>
			
				<ellipse transform="matrix(0.1306 -0.9914 0.9914 0.1306 135.8129 207.3799)" class="st1" cx="186.2" cy="26.3" rx="0.5" ry="0.5"/>
			<circle class="st1" cx="203.8" cy="27.4" r="0.5"/>
			<ellipse transform="matrix(0.5 -0.866 0.866 0.5 82.2823 183.0102)" class="st1" cx="199.6" cy="20.2" rx="0.5" ry="0.5"/>
			<circle class="st1" cx="195.5" cy="33.7" r="0.6"/>
			
				<ellipse transform="matrix(0.3826 -0.9239 0.9239 0.3826 105.5353 195.4954)" class="st1" cx="199" cy="18.8" rx="0.5" ry="0.5"/>
			
				<ellipse transform="matrix(0.3827 -0.9239 0.9239 0.3827 103.2444 195.954)" class="st1" cx="198.3" cy="20.7" rx="0.6" ry="0.6"/>
			
				<ellipse transform="matrix(0.2589 -0.9659 0.9659 0.2589 125.3332 206.2511)" class="st1" cx="197.1" cy="21.4" rx="0.6" ry="0.6"/>
			<circle class="st1" cx="195.5" cy="21.2" r="0.6"/>
			
				<ellipse transform="matrix(0.9914 -0.1305 0.1305 0.9914 -2.8477 25.9289)" class="st1" cx="196.4" cy="34.7" rx="0.6" ry="0.6"/>
			
				<ellipse transform="matrix(0.259 -0.9659 0.9659 0.259 127.6889 205.2794)" class="st1" cx="197.6" cy="19.4" rx="0.5" ry="0.5"/>
			<ellipse transform="matrix(0.9239 -0.3826 0.3826 0.9239 5.9403 79.2573)" class="st1" cx="202.2" cy="24.7" rx="0.6" ry="0.6"/>
			
				<ellipse transform="matrix(0.7071 -0.7071 0.7071 0.7071 43.722 148.6966)" class="st1" cx="201.4" cy="21.6" rx="0.5" ry="0.5"/>
			
				<ellipse transform="matrix(0.6088 -0.7933 0.7933 0.6088 61.0269 167.092)" class="st1" cx="199.9" cy="21.7" rx="0.6" ry="0.6"/>
			<ellipse transform="matrix(0.866 -0.5 0.5 0.866 15.4852 104.4513)" class="st1" cx="202.6" cy="23.3" rx="0.5" ry="0.5"/>
			<ellipse transform="matrix(0.6088 -0.7933 0.7933 0.6088 62.7976 167.4192)" class="st1" cx="201.2" cy="20" rx="0.5" ry="0.5"/>
			<ellipse transform="matrix(0.5 -0.866 0.866 0.5 84.317 183.0056)" class="st1" cx="200.6" cy="18.5" rx="0.5" ry="0.5"/>
			<ellipse transform="matrix(0.9659 -0.2588 0.2588 0.9659 -4.709 52.064)" class="st1" cx="195.4" cy="43.9" rx="0.4" ry="0.4"/>
			<circle class="st1" cx="195.5" cy="35.8" r="0.5"/>
			
				<ellipse transform="matrix(0.7934 -0.6087 0.6087 0.7934 28.6802 127.9908)" class="st1" cx="202.9" cy="21.7" rx="0.5" ry="0.5"/>
			<circle class="st1" cx="207.9" cy="27.4" r="0.5"/>
			
				<ellipse transform="matrix(0.7934 -0.6087 0.6087 0.7934 29.7925 128.7696)" class="st1" cx="204.6" cy="20.5" rx="0.5" ry="0.5"/>
			
				<ellipse transform="matrix(0.8661 -0.4999 0.4999 0.8661 16.2431 105.2095)" class="st1" cx="204.5" cy="22.3" rx="0.5" ry="0.5"/>
			<ellipse transform="matrix(0.9659 -0.259 0.259 0.9659 0.5896 54.0717)" class="st1" cx="205.5" cy="24.8" rx="0.5" ry="0.5"/>
			<circle class="st1" cx="205.9" cy="27.4" r="0.5"/>
			<ellipse transform="matrix(0.9659 -0.2588 0.2588 0.9659 0.3837 53.5301)" class="st1" cx="203.5" cy="25.3" rx="0.5" ry="0.5"/>
			<ellipse transform="matrix(0.9239 -0.3826 0.3826 0.9239 6.3911 79.916)" class="st1" cx="204.1" cy="23.9" rx="0.5" ry="0.5"/>
			<ellipse transform="matrix(0.3827 -0.9239 0.9239 0.3827 98.2575 212.3068)" class="st1" cx="208" cy="32.6" rx="0.5" ry="0.5"/>
			
				<ellipse transform="matrix(0.5002 -0.8659 0.8659 0.5002 73.9097 197.528)" class="st1" cx="208.1" cy="34.7" rx="0.4" ry="0.4"/>
			
				<ellipse transform="matrix(0.2588 -0.9659 0.9659 0.2588 125.135 225.5078)" class="st1" cx="209.5" cy="31.2" rx="0.4" ry="0.4"/>
			
				<ellipse transform="matrix(0.1304 -0.9915 0.9915 0.1304 151.1646 230.2836)" class="st1" cx="206.9" cy="29" rx="0.5" ry="0.5"/>
			
				<ellipse transform="matrix(0.2589 -0.9659 0.9659 0.2589 124.1272 223.2092)" class="st1" cx="207.5" cy="30.7" rx="0.5" ry="0.5"/>
			
				<ellipse transform="matrix(0.7071 -0.7071 0.7071 0.7071 45.1655 149.2847)" class="st1" cx="202.8" cy="20.1" rx="0.5" ry="0.5"/>
			<ellipse transform="matrix(0.7072 -0.707 0.707 0.7072 34.1568 155.0477)" class="st1" cx="204.3" cy="36.3" rx="0.5" ry="0.5"/>
			
				<ellipse transform="matrix(0.7933 -0.6088 0.6088 0.7933 19.5699 130.8163)" class="st1" cx="202.5" cy="36.6" rx="0.5" ry="0.5"/>
			<ellipse transform="matrix(0.5 -0.866 0.866 0.5 73.9274 191.3356)" class="st1" cx="202.7" cy="31.6" rx="0.5" ry="0.5"/>
			<ellipse transform="matrix(0.866 -0.5 0.5 0.866 7.9017 105.9863)" class="st1" cx="201.7" cy="38.2" rx="0.5" ry="0.5"/>
			
				<ellipse transform="matrix(0.7071 -0.7071 0.7071 0.7071 34.7777 153.5905)" class="st1" cx="202.8" cy="34.8" rx="0.5" ry="0.5"/>
			
				<ellipse transform="matrix(0.1306 -0.9914 0.9914 0.1306 148.0816 225.6699)" class="st1" cx="202.7" cy="28.4" rx="0.6" ry="0.6"/>
			
				<ellipse transform="matrix(0.6087 -0.7934 0.7934 0.6087 53.0599 173.9631)" class="st1" cx="202.9" cy="33.2" rx="0.5" ry="0.5"/>
			<ellipse transform="matrix(0.866 -0.5 0.5 0.866 7.1384 106.7365)" class="st1" cx="202.7" cy="40" rx="0.4" ry="0.4"/>
			<ellipse transform="matrix(0.9914 -0.1307 0.1307 0.9914 -3.3846 26.0783)" class="st1" cx="197" cy="38.8" rx="0.5" ry="0.5"/>
			
				<ellipse transform="matrix(0.9914 -0.1305 0.1305 0.9914 -3.6464 26.0884)" class="st1" cx="197.2" cy="40.9" rx="0.5" ry="0.5"/>
			
				<ellipse transform="matrix(0.9239 -0.3827 0.3827 0.9239 -1.315578e-02 79.8269)" class="st1" cx="200.6" cy="39.9" rx="0.5" ry="0.5"/>
			<ellipse transform="matrix(0.9238 -0.3828 0.3828 0.9238 0.6478 79.3993)" class="st1" cx="199.8" cy="38.1" rx="0.5" ry="0.5"/>
			
				<ellipse transform="matrix(0.3827 -0.9239 0.9239 0.3827 96.8907 205.5065)" class="st1" cx="202.2" cy="30.2" rx="0.6" ry="0.6"/>
			
				<ellipse transform="matrix(0.6087 -0.7934 0.7934 0.6087 53.4269 172.1894)" class="st1" cx="201.3" cy="31.9" rx="0.6" ry="0.6"/>
			
				<ellipse transform="matrix(0.7071 -0.7071 0.7071 0.7071 35.4018 152.162)" class="st1" cx="201.4" cy="33.3" rx="0.5" ry="0.5"/>
			
				<ellipse transform="matrix(0.259 -0.9659 0.9659 0.259 122.1952 218.4724)" class="st1" cx="203.5" cy="29.6" rx="0.5" ry="0.5"/>
			
				<ellipse transform="matrix(0.6086 -0.7935 0.7935 0.6086 52.759 175.7914)" class="st1" cx="204.6" cy="34.4" rx="0.5" ry="0.5"/>
			
				<ellipse transform="matrix(0.1306 -0.9914 0.9914 0.1306 149.5745 227.9464)" class="st1" cx="204.8" cy="28.7" rx="0.5" ry="0.5"/>
			
				<ellipse transform="matrix(0.3828 -0.9238 0.9238 0.3828 97.2781 207.7827)" class="st1" cx="204.1" cy="31.1" rx="0.5" ry="0.5"/>
			
				<ellipse transform="matrix(0.4999 -0.8661 0.8661 0.4999 73.9675 189.2464)" class="st1" cx="200.9" cy="30.6" rx="0.6" ry="0.6"/>
			
				<ellipse transform="matrix(0.2589 -0.9659 0.9659 0.2589 121.2113 216.188)" class="st1" cx="201.5" cy="29.1" rx="0.6" ry="0.6"/>
			
				<ellipse transform="matrix(0.7071 -0.7071 0.7071 0.7071 36.0048 150.6824)" class="st1" cx="199.9" cy="31.9" rx="0.6" ry="0.6"/>
			
				<ellipse transform="matrix(0.7933 -0.6088 0.6088 0.7933 21.0751 128.5949)" class="st1" cx="199.9" cy="33.3" rx="0.6" ry="0.6"/>
			<ellipse transform="matrix(0.866 -0.5 0.5 0.866 8.6393 105.2224)" class="st1" cx="200.7" cy="36.5" rx="0.5" ry="0.5"/>
			
				<ellipse transform="matrix(0.7933 -0.6088 0.6088 0.7933 20.322 129.6786)" class="st1" cx="201.2" cy="34.9" rx="0.5" ry="0.5"/>
			<ellipse transform="matrix(0.7934 -0.6087 0.6087 0.7934 27.5766 127.258)" class="st1" cx="201.3" cy="23" rx="0.6" ry="0.6"/>
			<ellipse transform="matrix(0.966 -0.2587 0.2587 0.966 0.164 53.0026)" class="st1" cx="201.5" cy="25.9" rx="0.6" ry="0.6"/>
			<circle class="st1" cx="201.7" cy="27.4" r="0.6"/>
			
				<ellipse transform="matrix(0.9914 -0.1306 0.1306 0.9914 -1.7285 26.7061)" class="st1" cx="202.7" cy="26.5" rx="0.6" ry="0.6"/>
			
				<ellipse transform="matrix(0.8661 -0.4999 0.4999 0.8661 9.4138 104.4305)" class="st1" cx="199.6" cy="34.6" rx="0.5" ry="0.5"/>
			
				<ellipse transform="matrix(0.7071 -0.7071 0.7071 0.7071 42.2424 148.0936)" class="st1" cx="199.9" cy="23.1" rx="0.6" ry="0.6"/>
			
				<ellipse transform="matrix(0.8661 -0.4999 0.4999 0.8661 14.7282 103.6664)" class="st1" cx="200.9" cy="24.3" rx="0.6" ry="0.6"/>
			<ellipse transform="matrix(0.5 -0.866 0.866 0.5 80.2 183.0398)" class="st1" cx="198.6" cy="22.1" rx="0.6" ry="0.6"/>
			
				<ellipse transform="matrix(0.7933 -0.6088 0.6088 0.7933 18.8449 131.9176)" class="st1" cx="203.7" cy="38.2" rx="0.5" ry="0.5"/>
			
				<ellipse transform="matrix(0.9914 -0.1306 0.1306 0.9914 -1.6703 26.9693)" class="st1" cx="204.8" cy="26.2" rx="0.5" ry="0.5"/>
			<ellipse transform="matrix(0.9239 -0.3826 0.3826 0.9239 1.325 78.9112)" class="st1" cx="199.1" cy="36.1" rx="0.5" ry="0.5"/>
			<ellipse transform="matrix(0.9659 -0.2588 0.2588 0.9659 -3.962 52.9762)" class="st1" cx="199.2" cy="41.5" rx="0.4" ry="0.4"/>
			
				<ellipse transform="matrix(0.9659 -0.2588 0.2588 0.9659 -2.9568 52.5605)" class="st1" cx="198.1" cy="37.5" rx="0.5" ry="0.5"/>
			
				<ellipse transform="matrix(0.9659 -0.2588 0.2588 0.9659 -3.4465 52.7711)" class="st1" cx="198.7" cy="39.5" rx="0.5" ry="0.5"/>
			
				<ellipse transform="matrix(0.8661 -0.4999 0.4999 0.8661 10.1762 103.6812)" class="st1" cx="198.6" cy="32.8" rx="0.6" ry="0.6"/>
			<ellipse transform="matrix(0.9659 -0.259 0.259 0.9659 -1.9465 52.1855)" class="st1" cx="197.1" cy="33.5" rx="0.6" ry="0.6"/>
			
				<ellipse transform="matrix(0.9659 -0.2588 0.2588 0.9659 -2.4541 52.3605)" class="st1" cx="197.6" cy="35.5" rx="0.5" ry="0.5"/>
			<ellipse transform="matrix(0.9239 -0.3827 0.3827 0.9239 1.9858 78.4828)" class="st1" cx="198.3" cy="34.2" rx="0.6" ry="0.6"/>
			
				<ellipse transform="matrix(0.9914 -0.1306 0.1306 0.9914 -3.1183 26.0075)" class="st1" cx="196.7" cy="36.8" rx="0.5" ry="0.5"/>
			
				<ellipse transform="matrix(0.1306 -0.9914 0.9914 0.1306 152.6427 232.4959)" class="st1" cx="208.9" cy="29.2" rx="0.5" ry="0.5"/>
			<circle class="st1" cx="195.5" cy="19.2" r="0.5"/>
			<ellipse transform="matrix(0.866 -0.5 0.5 0.866 17.0087 96.85)" class="st1" cx="189.2" cy="16.7" rx="0.5" ry="0.5"/>
			<circle class="st1" cx="195.5" cy="15" r="0.5"/>
			<circle class="st1" cx="195.5" cy="17.1" r="0.5"/>
			<ellipse transform="matrix(0.9239 -0.3826 0.3826 0.9239 6.853 80.5911)" class="st1" cx="206.1" cy="23.1" rx="0.5" ry="0.5"/>
			
				<ellipse transform="matrix(0.7934 -0.6087 0.6087 0.7934 30.904 129.4929)" class="st1" cx="206.2" cy="19.2" rx="0.5" ry="0.5"/>
			
				<ellipse transform="matrix(0.9659 -0.2588 0.2588 0.9659 -0.9576 55.8043)" class="st1" cx="211.5" cy="31.5" rx="0.4" ry="0.4"/>
			
				<ellipse transform="matrix(0.8661 -0.4998 0.4998 0.8661 16.9995 105.9327)" class="st1" cx="206.3" cy="21.2" rx="0.5" ry="0.5"/>
			<ellipse transform="matrix(0.9659 -0.2588 0.2588 0.9659 1.624 55.5165)" class="st1" cx="211.7" cy="21.6" rx="0.4" ry="0.4"/>
			
				<ellipse transform="matrix(0.9659 -0.2589 0.2589 0.9659 -2.6202 47.5494)" class="st1" cx="179.2" cy="33.7" rx="0.5" ry="0.5"/>
			
				<ellipse transform="matrix(0.2591 -0.9659 0.9659 0.2591 108.8032 190.4357)" class="st1" cx="178.5" cy="24.3" rx="0.4" ry="0.4"/>
			<ellipse transform="matrix(0.7072 -0.707 0.707 0.7072 33.832 134.3319)" class="st1" cx="179.1" cy="26.3" rx="0.4" ry="0.4"/>
			
				<ellipse transform="matrix(0.7933 -0.6089 0.6089 0.7933 19.2876 114.2591)" class="st1" cx="177.9" cy="28.7" rx="0.5" ry="0.5"/>
			<circle class="st1" cx="195.5" cy="12.9" r="0.4"/>
			<ellipse transform="matrix(0.5 -0.866 0.866 0.5 61.4631 183.0286)" class="st1" cx="189.2" cy="38.3" rx="0.5" ry="0.5"/>
			<ellipse transform="matrix(0.5 -0.866 0.866 0.5 59.4056 183.0134)" class="st1" cx="188.2" cy="40.1" rx="0.4" ry="0.4"/>
			
				<ellipse transform="matrix(0.6088 -0.7933 0.7933 0.6088 44.7401 163.8581)" class="st1" cx="188.5" cy="36.6" rx="0.5" ry="0.5"/>
			
				<ellipse transform="matrix(0.7071 -0.7071 0.7071 0.7071 29.0268 142.6161)" class="st1" cx="186.7" cy="36.3" rx="0.5" ry="0.5"/>
			
				<ellipse transform="matrix(0.7934 -0.6087 0.6087 0.7934 17.531 120.5614)" class="st1" cx="186.4" cy="34.5" rx="0.5" ry="0.5"/>
			
				<ellipse transform="matrix(0.9914 -0.1306 0.1306 0.9914 -2.1499 24.5583)" class="st1" cx="186.2" cy="28.7" rx="0.5" ry="0.5"/>
			<ellipse transform="matrix(0.9659 -0.2588 0.2588 0.9659 -1.487 49.0219)" class="st1" cx="185.4" cy="30.2" rx="0.5" ry="0.5"/>
			<ellipse transform="matrix(0.7072 -0.707 0.707 0.7072 27.5324 141.9909)" class="st1" cx="185.2" cy="37.8" rx="0.4" ry="0.4"/>
			<ellipse transform="matrix(0.866 -0.5 0.5 0.866 8.6491 97.6149)" class="st1" cx="186.5" cy="32.7" rx="0.5" ry="0.5"/>
			<ellipse transform="matrix(0.866 -0.5001 0.5001 0.866 7.1428 96.127)" class="st1" cx="182.9" cy="34.7" rx="0.4" ry="0.4"/>
			<ellipse transform="matrix(0.9239 -0.3827 0.3827 0.9239 2.3373 73.8637)" class="st1" cx="186.8" cy="31.1" rx="0.5" ry="0.5"/>
			<ellipse transform="matrix(0.9914 -0.1306 0.1306 0.9914 -2.2063 24.2949)" class="st1" cx="184.1" cy="29" rx="0.5" ry="0.5"/>
			
				<ellipse transform="matrix(0.2588 -0.9659 0.9659 0.2588 98.3207 208.9334)" class="st1" cx="185.3" cy="40.4" rx="0.4" ry="0.4"/>
			<ellipse transform="matrix(0.6087 -0.7934 0.7934 0.6087 42.9548 163.5)" class="st1" cx="187.2" cy="38.2" rx="0.5" ry="0.5"/>
			
				<ellipse transform="matrix(0.7933 -0.6088 0.6088 0.7933 26.2754 114.2121)" class="st1" cx="181.3" cy="18.4" rx="0.5" ry="0.5"/>
			
				<ellipse transform="matrix(0.6087 -0.7934 0.7934 0.6087 57.029 154.1082)" class="st1" cx="184.7" cy="19.2" rx="0.5" ry="0.5"/>
			
				<ellipse transform="matrix(0.7071 -0.7071 0.7071 0.7071 30.5064 143.2191)" class="st1" cx="188.1" cy="34.8" rx="0.5" ry="0.5"/>
			<ellipse transform="matrix(0.9239 -0.3827 0.3827 0.9239 2.7829 74.5249)" class="st1" cx="188.7" cy="30.3" rx="0.6" ry="0.6"/>
			<ellipse transform="matrix(0.5 -0.866 0.866 0.5 79.9003 168.2966)" class="st1" cx="185.7" cy="15" rx="0.4" ry="0.4"/>
			<ellipse transform="matrix(0.8661 -0.4999 0.4999 0.8661 9.4111 98.3726)" class="st1" cx="188.3" cy="31.6" rx="0.5" ry="0.5"/>
			
				<ellipse transform="matrix(0.4999 -0.8661 0.8661 0.4999 63.6008 183.0488)" class="st1" cx="190.3" cy="36.5" rx="0.5" ry="0.5"/>
			
				<ellipse transform="matrix(0.6088 -0.7933 0.7933 0.6088 46.5105 164.1843)" class="st1" cx="189.7" cy="34.9" rx="0.5" ry="0.5"/>
			<ellipse transform="matrix(0.3827 -0.9239 0.9239 0.3827 80.5429 200.4586)" class="st1" cx="190.3" cy="40" rx="0.5" ry="0.5"/>
			<ellipse transform="matrix(0.707 -0.7072 0.7072 0.707 31.9528 143.8621)" class="st1" cx="189.6" cy="33.4" rx="0.5" ry="0.5"/>
			
				<ellipse transform="matrix(0.6087 -0.7934 0.7934 0.6087 56.6597 155.9072)" class="st1" cx="186.4" cy="20.5" rx="0.5" ry="0.5"/>
			
				<ellipse transform="matrix(0.1306 -0.9914 0.9914 0.1306 153.0255 210.7967)" class="st1" cx="196.7" cy="18.1" rx="0.5" ry="0.5"/>
			
				<ellipse transform="matrix(0.1305 -0.9914 0.9914 0.1305 150.737 212.3172)" class="st1" cx="196.4" cy="20.2" rx="0.6" ry="0.6"/>
			
				<ellipse transform="matrix(0.1307 -0.9914 0.9914 0.1307 155.2757 209.2929)" class="st1" cx="197" cy="16.1" rx="0.5" ry="0.5"/>
			
				<ellipse transform="matrix(0.9914 -0.1306 0.1306 0.9914 -0.9729 25.5786)" class="st1" cx="194.5" cy="20.2" rx="0.6" ry="0.6"/>
			<ellipse transform="matrix(0.9914 -0.1306 0.1306 0.9914 -0.4431 25.4707)" class="st1" cx="194" cy="16.1" rx="0.5" ry="0.5"/>
			
				<ellipse transform="matrix(0.1305 -0.9914 0.9914 0.1305 157.5454 207.7639)" class="st1" cx="197.2" cy="14.1" rx="0.5" ry="0.5"/>
			
				<ellipse transform="matrix(0.9914 -0.1306 0.1306 0.9914 -0.7089 25.5214)" class="st1" cx="194.2" cy="18.2" rx="0.5" ry="0.5"/>
			
				<ellipse transform="matrix(0.2588 -0.9659 0.9659 0.2588 130.0207 204.3448)" class="st1" cx="198.2" cy="17.5" rx="0.5" ry="0.5"/>
			<ellipse transform="matrix(0.9914 -0.1305 0.1305 0.9914 -0.174 25.3995)" class="st1" cx="193.7" cy="14" rx="0.5" ry="0.5"/>
			
				<ellipse transform="matrix(0.3827 -0.9239 0.9239 0.3827 107.7644 195.0816)" class="st1" cx="199.9" cy="16.9" rx="0.5" ry="0.5"/>
			
				<ellipse transform="matrix(0.2588 -0.9659 0.9659 0.2588 138.2759 202.1249)" class="st1" cx="200.8" cy="11" rx="0.4" ry="0.4"/>
			<ellipse transform="matrix(0.5 -0.866 0.866 0.5 86.4251 183.0301)" class="st1" cx="201.7" cy="16.7" rx="0.5" ry="0.5"/>
			
				<ellipse transform="matrix(0.2589 -0.9659 0.9659 0.2589 132.3545 203.3224)" class="st1" cx="198.7" cy="15.4" rx="0.5" ry="0.5"/>
			
				<ellipse transform="matrix(0.2588 -0.9659 0.9659 0.2588 134.679 202.3947)" class="st1" cx="199.2" cy="13.4" rx="0.4" ry="0.4"/>
			
				<ellipse transform="matrix(0.3827 -0.9239 0.9239 0.3827 110.0459 194.6039)" class="st1" cx="200.6" cy="15" rx="0.5" ry="0.5"/>
			<ellipse transform="matrix(0.866 -0.5 0.5 0.866 17.7691 96.1021)" class="st1" cx="188.2" cy="14.9" rx="0.4" ry="0.4"/>
			
				<ellipse transform="matrix(0.7071 -0.7071 0.7071 0.7071 40.8942 138.9132)" class="st1" cx="188.1" cy="20.1" rx="0.5" ry="0.5"/>
			
				<ellipse transform="matrix(0.7933 -0.6088 0.6088 0.7933 27.781 118.5564)" class="st1" cx="188.5" cy="18.4" rx="0.5" ry="0.5"/>
			
				<ellipse transform="matrix(0.7071 -0.7071 0.7071 0.7071 41.4823 137.4697)" class="st1" cx="186.7" cy="18.7" rx="0.5" ry="0.5"/>
			<ellipse transform="matrix(0.7933 -0.6089 0.6089 0.7933 27.0392 119.6592)" class="st1" cx="189.7" cy="20" rx="0.5" ry="0.5"/>
			
				<ellipse transform="matrix(0.7934 -0.6087 0.6087 0.7934 28.5028 117.4236)" class="st1" cx="187.2" cy="16.7" rx="0.5" ry="0.5"/>
			<ellipse transform="matrix(0.9659 -0.2589 0.2589 0.9659 2.0575 50.5103)" class="st1" cx="192.8" cy="17.4" rx="0.5" ry="0.5"/>
			<ellipse transform="matrix(0.9659 -0.259 0.259 0.9659 2.5691 50.3127)" class="st1" cx="192.2" cy="15.4" rx="0.5" ry="0.5"/>
			<ellipse transform="matrix(0.866 -0.5 0.5 0.866 16.2609 97.6217)" class="st1" cx="190.3" cy="18.5" rx="0.5" ry="0.5"/>
			<ellipse transform="matrix(0.9659 -0.2588 0.2588 0.9659 3.0593 50.0751)" class="st1" cx="191.7" cy="13.4" rx="0.4" ry="0.4"/>
			<circle class="st1" cx="192.8" cy="11.4" r="0.4"/>
			<ellipse transform="matrix(0.9239 -0.3825 0.3825 0.9239 8.7524 73.9238)" class="st1" cx="190.3" cy="15" rx="0.5" ry="0.5"/>
			<ellipse transform="matrix(0.9239 -0.3827 0.3827 0.9239 8.0764 74.4087)" class="st1" cx="191.1" cy="16.9" rx="0.5" ry="0.5"/>
			<ellipse transform="matrix(0.5 -0.866 0.866 0.5 88.4837 183.0384)" class="st1" cx="202.8" cy="14.9" rx="0.4" ry="0.4"/>
			
				<ellipse transform="matrix(0.6087 -0.7934 0.7934 0.6087 64.6326 167.8036)" class="st1" cx="202.4" cy="18.4" rx="0.5" ry="0.5"/>
			<ellipse transform="matrix(0.9914 -0.1305 0.1305 0.9914 -1.5684 27.484)" class="st1" cx="208.9" cy="25.7" rx="0.5" ry="0.5"/>
			<circle class="st1" cx="210" cy="27.4" r="0.4"/>
			<ellipse transform="matrix(0.9659 -0.2588 0.2588 0.9659 1.009 55.7199)" class="st1" cx="212.1" cy="24" rx="0.4" ry="0.4"/>
			<ellipse transform="matrix(0.966 -0.2586 0.2586 0.966 -1.493 56.1089)" class="st1" cx="212.5" cy="33.7" rx="0.4" ry="0.4"/>
			<ellipse transform="matrix(0.9659 -0.2588 0.2588 0.9659 0.9991 55.0361)" class="st1" cx="209.5" cy="23.7" rx="0.4" ry="0.4"/>
			<circle class="st1" cx="205.3" cy="14.3" r="0.4"/>
			
				<ellipse transform="matrix(0.6087 -0.7934 0.7934 0.6087 66.4384 168.1871)" class="st1" cx="203.7" cy="16.7" rx="0.5" ry="0.5"/>
			
				<ellipse transform="matrix(0.7071 -0.7071 0.7071 0.7071 46.6301 149.9238)" class="st1" cx="204.3" cy="18.7" rx="0.5" ry="0.5"/>
			<ellipse transform="matrix(0.9659 -0.2588 0.2588 0.9659 0.7983 54.5232)" class="st1" cx="207.5" cy="24.2" rx="0.5" ry="0.5"/>
			
				<ellipse transform="matrix(0.7071 -0.7071 0.7071 0.7071 48.1097 150.5268)" class="st1" cx="205.8" cy="17.2" rx="0.4" ry="0.4"/>
			<ellipse transform="matrix(0.866 -0.5 0.5 0.866 17.7718 106.7348)" class="st1" cx="208.1" cy="20.2" rx="0.4" ry="0.4"/>
			<ellipse transform="matrix(0.9239 -0.3827 0.3827 0.9239 7.3067 81.2976)" class="st1" cx="208" cy="22.3" rx="0.5" ry="0.5"/>
			<ellipse transform="matrix(0.9914 -0.1305 0.1305 0.9914 -1.6211 27.2131)" class="st1" cx="206.8" cy="26" rx="0.5" ry="0.5"/>
		</g>
	</g>
	<g>
		<circle class="st0" cx="27.5" cy="27.5" r="27.5"/>
		<g>
			<path class="st1" d="M46.3,24.3c-0.1-0.4-0.4-0.7-0.8-0.6l-17.3,2.3L17.4,12.2c-0.1-0.2-0.3-0.3-0.5-0.3c-0.2,0-0.4,0.1-0.6,0.2
				l-1,0.8c-0.2,0.2-0.3,0.4-0.3,0.7c0,0.1,0.1,0.3,0.2,0.4l10.7,13.8l-6.6,16.2c-0.1,0.1-0.1,0.3-0.1,0.4c0,0.1,0,0.1,0.1,0.2
				c0.1,0.2,0.2,0.3,0.4,0.4l1.2,0.5c0.4,0.2,0.8-0.1,1-0.4l6.6-16.2l17.3-2.3c0.4-0.1,0.7-0.4,0.6-0.8L46.3,24.3z"/>
			<path class="st1" d="M49.7,16C45.4,7.7,36.9,2.5,27.5,2.5c-4,0-7.9,0.9-11.4,2.8C10.1,8.4,5.7,13.5,3.7,19.9S2.2,33,5.3,39
				c4.3,8.3,12.9,13.5,22.2,13.5c4,0,7.9-0.9,11.4-2.8c5.9-3.1,10.3-8.3,12.3-14.6C53.3,28.7,52.8,22,49.7,16z M50.6,34.9
				c-2,6.2-6.2,11.2-12,14.2c-3.5,1.8-7.2,2.7-11.1,2.7c-9.1,0-17.4-5.1-21.6-13.2c-3-5.8-3.5-12.3-1.5-18.5s6.2-11.2,12-14.2
				c3.5-1.8,7.2-2.7,11.1-2.7c9.1,0,17.4,5.1,21.6,13.2C52.1,22.1,52.6,28.7,50.6,34.9z"/>
		</g>
	</g>
</g>
</svg>
