<?xml version="1.0" encoding="utf-8"?>
<!-- Generator: Adobe Illustrator 21.0.2, SVG Export Plug-In . SVG Version: 6.00 Build 0)  -->
<svg version="1.1" id="Layer_1" xmlns="http://www.w3.org/2000/svg" xmlns:xlink="http://www.w3.org/1999/xlink" x="0px" y="0px"
	 viewBox="0 0 257.1 74.2" style="enable-background:new 0 0 257.1 74.2;" xml:space="preserve">
<style type="text/css">
	.st0{fill:#FFFFFF;}
</style>
<g>
	<path class="st0" d="M66.3,12.4c-6.9-6.9-15-10.3-24.4-10.3c-9.4,0-17.8,3.4-25.2,10.3c-6.9,6.9-10.3,15-10.3,24.4
		c0,10.1,3.3,18.5,10,25.2c6.9,6.9,15.2,10.3,24.9,10.3c9.8,0,18.1-3.4,24.9-10.3c5.6-5.6,8.9-12.2,9.9-19.7h40.2V31.4H76.2
		C75,24.2,71.8,17.9,66.3,12.4z"/>
	<path class="st0" d="M180.2,44.3h-12.6c-1.7,0-3.1,1.4-3.1,3.1c0,1.7,1.4,3.1,3.1,3.1h12.6c1.7,0,3.1-1.4,3.1-3.1
		C183.3,45.7,182,44.3,180.2,44.3z"/>
	<path class="st0" d="M180.2,23h-12.6c-1.7,0-3.1,1.4-3.1,3.1s1.4,3.1,3.1,3.1h12.6c1.7,0,3.1-1.4,3.1-3.1S182,23,180.2,23z"/>
	<path class="st0" d="M159.2,13C159.2,13,159.2,13,159.2,13l-19.1,0.5c-1.6,0-3,1.4-3,3c0,0-0.1,2.2-1.3,4.2c-1.5,2.6-4.1,4-7.8,4.2
		h-5.7c-1.7,0-3.1,1.4-3.1,3.1v17.6c0,1.7,1.4,3.1,3.1,3.1h5.7c3.7,0.2,6.3,1.6,7.8,4.2c1.2,2.1,1.3,4.2,1.3,4.2c0,1.7,1.4,3,3,3
		l19.1,0.5c0.8,0,1.7-0.3,2.3-0.9c0.6-0.6,0.9-1.4,0.9-2.2V16.1c0-0.8-0.3-1.6-0.9-2.2C160.8,13.3,160,13,159.2,13z M155.1,49.2
		c0,1-0.8,1.9-1.9,1.9c-1,0-1.9-0.8-1.9-1.9V25c0-1,0.8-1.9,1.9-1.9c1,0,1.9,0.8,1.9,1.9V49.2z"/>
	<path class="st0" d="M239.4,35.7c6.5-2.9,9.1-8.1,9.1-13.5c0-14.1-10.3-20.3-24.1-20.3c-11.1,0-22.2,0-33.2,0v70
		c11.1,0,22.1,0,33.2,0c14.5,0,26.2-5,26.2-20.6C250.7,46.9,247.6,38.2,239.4,35.7z M204.2,13.9h20.2c8.4,0,11,5.4,11,8.6
		c0,4-2.7,7.5-11,7.5h-20.2V13.9z M224.4,59.6h-20.2v-18h20.2c5.4,0,13.1,3.3,13.1,9.6C237.5,57.8,229.8,59.6,224.4,59.6z"/>
</g>
</svg>
