<?xml version="1.0" encoding="utf-8"?>
<!-- Generator: Adobe Illustrator 21.0.2, SVG Export Plug-In . SVG Version: 6.00 Build 0)  -->
<svg version="1.1" id="Camada_1" xmlns="http://www.w3.org/2000/svg" xmlns:xlink="http://www.w3.org/1999/xlink" x="0px" y="0px"
	 viewBox="0 0 1058.9 243.3" style="enable-background:new 0 0 1058.9 243.3;" xml:space="preserve">
<style type="text/css">
	.st0{fill:#FFFFFF;}
</style>
<g>
	<g>
		<path class="st0" d="M12.8,2h51L29.1,104.4H62v13.7H8.7L43.9,15.2H12.8V2z"/>
		<path class="st0" d="M79.7,7.2c2.6,0,4.8,1,6.8,2.9c1.9,1.9,2.9,4.2,2.9,6.9c0,2.8-1,5-2.9,6.9s-4.2,2.9-6.9,2.9
			c-2.8,0-5-1-6.9-2.9s-2.8-4.2-2.8-7c0-2.6,1-4.8,2.9-6.8C74.8,8.1,77.1,7.2,79.7,7.2z M72.9,40.3h14.5v77.8H72.9V40.3z"/>
		<path class="st0" d="M129.9,7.2c2.6,0,4.8,1,6.8,2.9c1.9,1.9,2.9,4.2,2.9,6.9c0,2.8-1,5-2.9,6.9s-4.2,2.9-6.9,2.9
			c-2.8,0-5-1-6.9-2.9s-2.8-4.2-2.8-7c0-2.6,1-4.8,2.9-6.8C124.9,8.1,127.2,7.2,129.9,7.2z M123.1,40.3h14.5v77.8h-14.5V40.3z"/>
		<path class="st0" d="M155.4,18.4h14.4v21.8h7.8v11.4h-7.8v66.4h-14.4V51.7h-7.9V40.3h7.9V18.4z"/>
		<g>
			<g>
				<g>
					<path class="st0" d="M114.6,18.9h3.5c0.5,0,0.9,0.4,0.9,0.9c0,0.5-0.4,0.9-0.9,0.9h-3.5c-0.5,0-0.9-0.4-0.9-0.9
						C113.8,19.2,114.1,18.9,114.6,18.9z"/>
				</g>
				<g>
					<path class="st0" d="M114.6,12.9h3.5c0.5,0,0.9,0.4,0.9,0.9s-0.4,0.9-0.9,0.9h-3.5c-0.5,0-0.9-0.4-0.9-0.9
						C113.8,13.3,114.1,12.9,114.6,12.9z"/>
				</g>
				<path class="st0" d="M112.9,23.1c0.2-0.2,0.3-0.4,0.3-0.6V11c0-0.2-0.1-0.5-0.3-0.6c-0.2-0.2-0.4-0.2-0.6-0.2l0,0l-5.3,0.1
					c-0.5,0-0.8,0.4-0.9,0.9c0,0,0,0.6-0.4,1.2c-0.4,0.7-1.2,1.1-2.2,1.2h-1.6c-0.5,0-0.9,0.4-0.9,0.9v4.9c0,0.5,0.4,0.9,0.9,0.9
					h1.6c1.1,0.1,1.8,0.4,2.2,1.2c0.3,0.6,0.4,1.2,0.4,1.2c0,0.5,0.4,0.8,0.9,0.9l5.3,0.1C112.5,23.4,112.7,23.3,112.9,23.1z
					 M110.1,20.2v-6.7c0-0.3,0.2-0.5,0.5-0.5s0.5,0.2,0.5,0.5v6.7c0,0.3-0.2,0.5-0.5,0.5C110.3,20.8,110.1,20.5,110.1,20.2z"/>
			</g>
			<rect x="81.5" y="15.3" class="st0" width="18.9" height="3"/>
		</g>
	</g>
	<g>
		<path class="st0" d="M334,128.5c0,11.8-5.7,23.3-20,29.6c18,5.5,24.6,24.6,24.6,34.2c0,34.2-25.7,45.2-57.5,45.2
			c-24.4,0-48.5,0-72.9,0V83.9c24.1,0,48.5,0,72.9,0C311.3,83.9,334,97.6,334,128.5z M236.8,145.6h44.4c18.2,0,24.1-7.7,24.1-16.4
			c0-7-5.7-18.9-24.1-18.9h-44.4V145.6z M236.8,210.6h44.4c11.8,0,28.7-3.9,28.7-18.4c0-13.9-16.9-21-28.7-21h-44.4V210.6z"/>
		<path class="st0" d="M375.7,129.4V186c0,16.4,9,29,26.2,29c16.4,0,27.6-13.9,27.6-30.3v-55.3H456v108.4h-23.9l-1.8-14.7
			c-11.2,11-21.5,16.2-36.7,16.2c-25.9,0-44.8-19.6-44.8-53.1v-56.8L375.7,129.4L375.7,129.4z"/>
		<path class="st0" d="M541.6,158.1c-7.7-7.3-16.4-9.6-26.8-9.6c-12.7,0-19.8,3.9-19.8,10.7c0,7,6.4,11,20.2,11.8
			c20.5,1.3,46.3,5.9,46.3,34.7c0,19.1-15.5,35.5-46.5,35.5c-17.1,0-34.2-2.9-50.1-19.3l13.2-19.1c7.7,8.6,25.3,14.9,37.3,15.1
			c10.1,0.2,19.6-5,19.6-13c0-7.5-6.1-10.5-21.5-11.4c-20.5-1.6-44.8-9-44.8-33.5c0-25,25.9-33.8,45.6-33.8
			c16.9,0,29.6,3.2,42.1,14.3L541.6,158.1z"/>
		<path class="st0" d="M603.5,98.9c0,20.9-31.6,20.9-31.6,0C571.8,78,603.5,78,603.5,98.9z M574.3,129v108.6H601V129H574.3z"/>
		<path class="st0" d="M700.4,237.6V181c0-16.4-9-29-26.2-29c-16.4,0-27.6,13.9-27.6,30.3v55.3h-26.6V129.2H644l1.8,14.7
			c11-10.7,21.9-16.2,35.5-16.2c25.5,0,45.8,19.1,45.8,53.1v56.8H700.4z"/>
		<path class="st0" d="M764.3,193c1.8,13.4,13.4,23,32.3,23c9.8,0,22.8-3.7,29-10.1l17.1,16.9c-11.4,11.8-30.1,17.5-46.5,17.5
			c-37.3,0-59.5-23-59.5-57.7c0-32.9,22.4-56.7,57.5-56.7c36.2,0,58.8,22.4,54.7,66.9h-84.6V193z M823.1,170.9
			c-1.8-14.1-12.7-21-28.1-21c-14.5,0-26.4,7-30.3,21H823.1z"/>
		<path class="st0" d="M931.3,158.1c-7.7-7.3-16.4-9.6-26.8-9.6c-12.7,0-19.8,3.9-19.8,10.7c0,7,6.4,11,20.2,11.8
			c20.5,1.3,46.3,5.9,46.3,34.7c0,19.1-15.5,35.5-46.5,35.5c-17.1,0-34.2-2.9-50.1-19.3l13.2-19.1c7.7,8.6,25.3,14.9,37.3,15.1
			c10.1,0.2,19.6-5,19.6-13c0-7.5-6.1-10.5-21.5-11.4c-20.5-1.6-44.8-9-44.8-33.5c0-25,25.9-33.8,45.6-33.8
			c16.9,0,29.6,3.2,42.1,14.3L931.3,158.1z"/>
		<path class="st0" d="M1030.2,158.1c-7.7-7.3-16.4-9.6-26.8-9.6c-12.7,0-19.8,3.9-19.8,10.7c0,7,6.4,11,20.2,11.8
			c20.5,1.3,46.3,5.9,46.3,34.7c0,19.1-15.5,35.5-46.5,35.5c-17.1,0-34.2-2.9-50.1-19.3l13.2-19.1c7.7,8.6,25.3,14.9,37.3,15.1
			c10.1,0.2,19.6-5,19.6-13c0-7.5-6.1-10.5-21.5-11.4c-20.5-1.6-44.8-9-44.8-33.5c0-25,25.9-33.8,45.6-33.8
			c16.9,0,29.6,3.2,42.1,14.3L1030.2,158.1z"/>
	</g>
</g>
</svg>
