<?xml version="1.0" encoding="utf-8"?>
<!-- Generator: Adobe Illustrator 21.0.2, SVG Export Plug-In . SVG Version: 6.00 Build 0)  -->
<svg version="1.1" id="Layer_1" xmlns="http://www.w3.org/2000/svg" xmlns:xlink="http://www.w3.org/1999/xlink" x="0px" y="0px"
	 viewBox="0 0 400 91.9" style="enable-background:new 0 0 400 91.9;" xml:space="preserve">
<style type="text/css">
	.st0{fill:#0C0C0C;}
</style>
<g>
	<g>
		<path class="st0" d="M1.6,0h19.6L7.8,39.3h12.7v5.3H0L13.5,5.1H1.6V0z"/>
		<path class="st0" d="M27.3,2c1,0,1.9,0.4,2.6,1.1C30.6,3.8,31,4.7,31,5.7c0,1-0.4,1.9-1.1,2.7c-0.7,0.7-1.6,1.1-2.7,1.1
			c-1,0-1.9-0.4-2.7-1.1c-0.7-0.7-1.1-1.6-1.1-2.7c0-1,0.4-1.9,1.1-2.6C25.4,2.4,26.3,2,27.3,2z M24.7,14.7h5.5v29.9h-5.5V14.7z"/>
		<path class="st0" d="M46.5,2c1,0,1.9,0.4,2.6,1.1c0.7,0.7,1.1,1.6,1.1,2.6c0,1-0.4,1.9-1.1,2.7c-0.7,0.7-1.6,1.1-2.7,1.1
			c-1,0-1.9-0.4-2.7-1.1c-0.7-0.7-1.1-1.6-1.1-2.7c0-1,0.4-1.9,1.1-2.6C44.6,2.4,45.5,2,46.5,2z M43.9,14.7h5.5v29.9h-5.5V14.7z"/>
		<path class="st0" d="M56.3,6.3h5.5v8.4h3v4.4h-3v25.5h-5.5V19.1h-3v-4.4h3V6.3z"/>
		<g>
			<g>
				<g>
					<path class="st0" d="M40.7,6.5H42c0.2,0,0.3,0.1,0.3,0.3c0,0.2-0.1,0.3-0.3,0.3h-1.3c-0.2,0-0.3-0.1-0.3-0.3
						C40.3,6.6,40.5,6.5,40.7,6.5z"/>
				</g>
				<g>
					<path class="st0" d="M40.7,4.2H42c0.2,0,0.3,0.1,0.3,0.3c0,0.2-0.1,0.3-0.3,0.3h-1.3c-0.2,0-0.3-0.1-0.3-0.3
						C40.3,4.4,40.5,4.2,40.7,4.2z"/>
				</g>
				<path class="st0" d="M40,8.1c0.1-0.1,0.1-0.1,0.1-0.2V3.5c0-0.1,0-0.2-0.1-0.2c-0.1-0.1-0.1-0.1-0.2-0.1c0,0,0,0,0,0l-2,0.1
					c-0.2,0-0.3,0.1-0.3,0.3c0,0,0,0.2-0.1,0.5c-0.2,0.3-0.4,0.4-0.8,0.4h-0.6c-0.2,0-0.3,0.1-0.3,0.3v1.9c0,0.2,0.1,0.3,0.3,0.3
					h0.6c0.4,0,0.7,0.2,0.8,0.4c0.1,0.2,0.1,0.4,0.1,0.4c0,0.2,0.1,0.3,0.3,0.3l2,0.1C39.8,8.2,39.9,8.2,40,8.1z M38.9,7V4.4
					c0-0.1,0.1-0.2,0.2-0.2c0.1,0,0.2,0.1,0.2,0.2V7c0,0.1-0.1,0.2-0.2,0.2C39,7.2,38.9,7.1,38.9,7z"/>
			</g>
			
				<rect x="31" y="2.1" transform="matrix(4.227178e-11 1 -1 4.227178e-11 37.2799 -25.8972)" class="st0" width="1.2" height="7.2"/>
		</g>
	</g>
	<g>
		<path class="st0" d="M124.9,48.6c0,4.6-2.2,8.9-7.7,11.4c6.9,2.1,9.4,9.4,9.4,13.1c0,13.1-9.9,17.4-22.1,17.4c-9.4,0-18.6,0-28,0
			v-59c9.3,0,18.6,0,28,0C116.2,31.5,124.9,36.7,124.9,48.6z M87.6,55.2h17c7,0,9.3-3,9.3-6.3c0-2.7-2.2-7.2-9.3-7.2h-17V55.2z
			 M87.6,80.1h17c4.6,0,11-1.5,11-7.1c0-5.3-6.5-8.1-11-8.1h-17V80.1z"/>
		<path class="st0" d="M140.9,48.9v21.7c0,6.3,3.5,11.1,10,11.1c6.3,0,10.6-5.3,10.6-11.6V48.9h10.2v41.6h-9.2l-0.7-5.6
			c-4.3,4.2-8.3,6.2-14.1,6.2c-9.9,0-17.2-7.5-17.2-20.4V48.9H140.9z"/>
		<path class="st0" d="M204.6,60c-3-2.8-6.3-3.7-10.3-3.7c-4.9,0-7.6,1.5-7.6,4.1c0,2.7,2.4,4.2,7.8,4.6c7.8,0.5,17.8,2.3,17.8,13.3
			c0,7.3-6,13.7-17.9,13.7c-6.6,0-13.1-1.1-19.2-7.4l5.1-7.3c3,3.3,9.7,5.7,14.3,5.8c3.9,0.1,7.5-1.9,7.5-5c0-2.9-2.4-4-8.3-4.4
			c-7.8-0.6-17.2-3.5-17.2-12.9c0-9.6,9.9-13,17.5-13c6.5,0,11.4,1.3,16.2,5.5L204.6,60z"/>
		<path class="st0" d="M228.4,37.2c0,8-12.1,8-12.1,0C216.3,29.2,228.4,29.2,228.4,37.2z M217.2,48.8v41.7h10.3V48.8H217.2z"/>
		<path class="st0" d="M265.7,90.5V68.7c0-6.3-3.5-11.1-10-11.1c-6.3,0-10.6,5.3-10.6,11.6v21.2h-10.2V48.8h9.2l0.7,5.6
			c4.2-4.1,8.4-6.2,13.7-6.2c9.8,0,17.6,7.3,17.6,20.4v21.8H265.7z"/>
		<path class="st0" d="M290.2,73.4c0.7,5.1,5.1,8.8,12.4,8.8c3.8,0,8.8-1.4,11.1-3.9l6.6,6.5c-4.4,4.6-11.5,6.7-17.9,6.7
			c-14.3,0-22.8-8.8-22.8-22.2c0-12.6,8.6-21.7,22.1-21.7c13.9,0,22.6,8.6,21,25.7H290.2z M312.8,64.9c-0.7-5.4-4.9-8.1-10.8-8.1
			c-5.6,0-10.1,2.7-11.6,8.1H312.8z"/>
		<path class="st0" d="M354.3,60c-3-2.8-6.3-3.7-10.3-3.7c-4.9,0-7.6,1.5-7.6,4.1c0,2.7,2.4,4.2,7.8,4.6c7.8,0.5,17.8,2.3,17.8,13.3
			c0,7.3-6,13.7-17.9,13.7c-6.6,0-13.1-1.1-19.2-7.4l5.1-7.3c3,3.3,9.7,5.7,14.3,5.8c3.9,0.1,7.5-1.9,7.5-5c0-2.9-2.4-4-8.3-4.4
			c-7.8-0.6-17.2-3.5-17.2-12.9c0-9.6,9.9-13,17.5-13c6.5,0,11.4,1.3,16.2,5.5L354.3,60z"/>
		<path class="st0" d="M392.3,60c-3-2.8-6.3-3.7-10.3-3.7c-4.9,0-7.6,1.5-7.6,4.1c0,2.7,2.4,4.2,7.8,4.6c7.8,0.5,17.8,2.3,17.8,13.3
			c0,7.3-6,13.7-17.9,13.7c-6.6,0-13.1-1.1-19.2-7.4l5.1-7.3c3,3.3,9.7,5.7,14.3,5.8c3.9,0.1,7.5-1.9,7.5-5c0-2.9-2.4-4-8.3-4.4
			c-7.8-0.6-17.2-3.5-17.2-12.9c0-9.6,9.9-13,17.5-13c6.5,0,11.4,1.3,16.2,5.5L392.3,60z"/>
	</g>
</g>
</svg>
